{
.appVersion = "1342";
DisplayStrings = (
"nononohonohonon\012hoooononnnnohonono\012ohononannoonnnoonn\012nohonahnhlnonnohollno/space \012nno/space naoohno/space hon/space hohoo\012lohn/space hoallano/space ohlo/space hnlon\012",

glyphs = (
{
color = 0;
glyphname = A;
lastChange = "2020-11-24 16:02:08 +0000";
layers = (
{
layerId = "A2204D38-078E-49A4-B70C-87904FFF8E34";
paths = (
{
closed = 1;
nodes = (
"464 358 LINE",
"214 358 LINE",
"214 303 LINE",
"464 303 LINE"
);
},
{
closed = 1;
nodes = (
"383 710 LINE",
"362 710 LINE",
"5 0 LINE",
"73 0 LINE",
"342 548 LINE",
"361 548 LINE",
"571 0 LINE",
"661 0 LINE"
);
},
{
closed = 1;
nodes = (
"5 0 LINE",
"72 0 LINE",
"82 20 LINE",
"91 37 OFFCURVE",
"99 55 OFFCURVE",
"111 79 CURVE",
"59 106 LINE",
"41 70 OFFCURVE",
"29 44 OFFCURVE",
"16 20 CURVE"
);
},
{
closed = 1;
nodes = (
"644 41 OFFCURVE",
"639 55 OFFCURVE",
"617 112 CURVE",
"541 79 LINE",
"545 67 OFFCURVE",
"559 35 OFFCURVE",
"564 20 CURVE",
"571 0 LINE",
"661 0 LINE",
"653 20 LINE"
);
}
);
width = 666;
},
{
backgroundImage = {
crop = "{{0, 0}, {305.926, 73.749}}";
imagePath = ../pala/pala.png;
locked = "1";
transform = "{74.93332, 0, 0, 74.93332, -1106, -3917}";
};
layerId = "3EDEE92B-4D9D-4D9A-9438-63C2E33416C1";
paths = (
{
closed = 1;
nodes = (
"522 358 LINE",
"272 358 LINE",
"272 303 LINE",
"522 303 LINE"
);
},
{
closed = 1;
nodes = (
"441 710 LINE",
"420 710 LINE",
"63 0 LINE",
"131 0 LINE",
"400 548 LINE",
"419 548 LINE",
"629 0 LINE",
"719 0 LINE"
);
},
{
closed = 1;
nodes = (
"10 0 LINE",
"200 0 LINE",
"197 20 LINE",
"180 21 OFFCURVE",
"141 23 OFFCURVE",
"169 79 CURVE",
"117 106 LINE",
"79 27 OFFCURVE",
"28 20 OFFCURVE",
"10 20 CURVE"
);
},
{
closed = 1;
nodes = (
"714 20 OFFCURVE",
"701 46 OFFCURVE",
"675 112 CURVE",
"599 79 LINE",
"619 27 OFFCURVE",
"577 21 OFFCURVE",
"560 20 CURVE",
"557 0 LINE",
"757 0 LINE",
"757 20 LINE"
);
}
);
width = 767;
}
);
unicode = 0041;
},
{
color = 0;
glyphname = B;
lastChange = "2020-11-24 16:20:59 +0000";
layers = (
{
layerId = "A2204D38-078E-49A4-B70C-87904FFF8E34";
paths = (
{
closed = 1;
nodes = (
"5 0 LINE",
"80 0 LINE",
"80 700 LINE",
"5 700 LINE"
);
},
{
closed = 1;
nodes = (
"31 667 LINE",
"183 667 LINE SMOOTH",
"283 667 OFFCURVE",
"322 606 OFFCURVE",
"322 536 CURVE SMOOTH",
"322 460 OFFCURVE",
"274 406 OFFCURVE",
"146 406 CURVE SMOOTH",
"68 406 LINE",
"68 392 LINE",
"146 392 LINE SMOOTH",
"336 392 OFFCURVE",
"406 457 OFFCURVE",
"406 561 CURVE SMOOTH",
"406 642 OFFCURVE",
"351 700 OFFCURVE",
"237 700 CURVE SMOOTH",
"31 700 LINE"
);
},
{
closed = 1;
nodes = (
"60 368 LINE",
"154 368 LINE SMOOTH",
"270 368 OFFCURVE",
"360 311 OFFCURVE",
"360 221 CURVE SMOOTH",
"360 127 OFFCURVE",
"311 36 OFFCURVE",
"176 36 CURVE SMOOTH",
"33 36 LINE",
"33 0 LINE",
"154 0 LINE SMOOTH",
"342 0 OFFCURVE",
"446 91 OFFCURVE",
"446 221 CURVE SMOOTH",
"446 327 OFFCURVE",
"384 402 OFFCURVE",
"200 402 CURVE SMOOTH",
"60 402 LINE"
);
},
{
closed = 1;
nodes = (
"241 387 LINE",
"257 387 LINE",
"257 408 LINE",
"241 408 LINE"
);
},
{
closed = 1;
nodes = (
"5 0 LINE",
"11 0 LINE",
"11 106 LINE",
"5 106 LINE",
"5 39 OFFCURVE",
"5 33 OFFCURVE",
"5 20 CURVE"
);
},
{
closed = 1;
nodes = (
"5 649 OFFCURVE",
"5 615 OFFCURVE",
"5 594 CURVE",
"11 594 LINE",
"11 700 LINE",
"5 700 LINE",
"5 680 LINE"
);
}
);
width = 451;
},
{
backgroundImage = {
crop = "{{0, 0}, {305.926, 73.749}}";
imagePath = ../pala/pala.png;
transform = "{74.933, 0, 0, 74.933, -1885, -3917}";
};
layerId = "3EDEE92B-4D9D-4D9A-9438-63C2E33416C1";
paths = (
{
closed = 1;
nodes = (
"110 0 LINE",
"185 0 LINE",
"185 700 LINE",
"110 700 LINE"
);
},
{
closed = 1;
nodes = (
"136 667 LINE",
"288 667 LINE SMOOTH",
"388 667 OFFCURVE",
"427 606 OFFCURVE",
"427 536 CURVE SMOOTH",
"427 460 OFFCURVE",
"379 406 OFFCURVE",
"251 406 CURVE SMOOTH",
"173 406 LINE",
"173 392 LINE",
"251 392 LINE SMOOTH",
"441 392 OFFCURVE",
"511 457 OFFCURVE",
"511 561 CURVE SMOOTH",
"511 642 OFFCURVE",
"456 700 OFFCURVE",
"342 700 CURVE SMOOTH",
"136 700 LINE"
);
},
{
closed = 1;
nodes = (
"165 368 LINE",
"259 368 LINE SMOOTH",
"375 368 OFFCURVE",
"465 311 OFFCURVE",
"465 221 CURVE SMOOTH",
"465 127 OFFCURVE",
"416 36 OFFCURVE",
"281 36 CURVE SMOOTH",
"138 36 LINE",
"138 0 LINE",
"259 0 LINE SMOOTH",
"447 0 OFFCURVE",
"551 91 OFFCURVE",
"551 221 CURVE SMOOTH",
"551 327 OFFCURVE",
"489 402 OFFCURVE",
"305 402 CURVE SMOOTH",
"165 402 LINE"
);
},
{
closed = 1;
nodes = (
"346 387 LINE",
"362 387 LINE",
"362 408 LINE",
"346 408 LINE"
);
},
{
closed = 1;
nodes = (
"60 0 LINE",
"116 0 LINE",
"116 106 LINE",
"110 106 LINE",
"110 39 OFFCURVE",
"94 20 OFFCURVE",
"60 20 CURVE"
);
},
{
closed = 1;
nodes = (
"74 680 OFFCURVE",
"110 659 OFFCURVE",
"110 594 CURVE",
"116 594 LINE",
"116 700 LINE",
"30 700 LINE",
"30 680 LINE"
);
}
);
width = 591;
}
);
unicode = 0042;
},
{
color = 0;
glyphname = C;
lastChange = "2020-11-24 16:19:54 +0000";
layers = (
{
background = {
paths = (
{
closed = 1;
nodes = (
"638 107 LINE",
"622 80 OFFCURVE",
"518 37 OFFCURVE",
"428 37 CURVE SMOOTH",
"230 37 OFFCURVE",
"131 179 OFFCURVE",
"131 353 CURVE SMOOTH",
"131 525 OFFCURVE",
"230 667 OFFCURVE",
"417 667 CURVE SMOOTH",
"515 667 OFFCURVE",
"585 620 OFFCURVE",
"612 590 CURVE",
"656 657 LINE",
"624 674 OFFCURVE",
"555 710 OFFCURVE",
"417 710 CURVE SMOOTH",
"208 710 OFFCURVE",
"34 549 OFFCURVE",
"34 335 CURVE SMOOTH",
"34 152 OFFCURVE",
"159 -10 OFFCURVE",
"420 -10 CURVE SMOOTH",
"526 -10 OFFCURVE",
"612 24 OFFCURVE",
"638 46 CURVE"
);
}
);
};
backgroundImage = {
crop = "{{0, 0}, {294, 68.104}}";
imagePath = "palatino-source/alphabet.jpg";
locked = "1";
transform = "{72.66444, 0, 0, 72.66444, -1941, -3669}";
};
layerId = "A2204D38-078E-49A4-B70C-87904FFF8E34";
paths = (
{
closed = 1;
nodes = (
"634 98 LINE",
"631 98 LINE",
"608 78 OFFCURVE",
"511 37 OFFCURVE",
"404 37 CURVE SMOOTH",
"206 37 OFFCURVE",
"107 179 OFFCURVE",
"107 353 CURVE SMOOTH",
"107 525 OFFCURVE",
"206 667 OFFCURVE",
"393 667 CURVE SMOOTH",
"474 667 OFFCURVE",
"520 652 OFFCURVE",
"551 635 CURVE SMOOTH",
"573 623 OFFCURVE",
"594 609 OFFCURVE",
"609 593 CURVE",
"619 593 LINE",
"656 657 LINE",
"634 672 OFFCURVE",
"556 710 OFFCURVE",
"414 710 CURVE SMOOTH",
"147 710 OFFCURVE",
"10 561 OFFCURVE",
"10 335 CURVE SMOOTH",
"10 152 OFFCURVE",
"135 -12 OFFCURVE",
"396 -12 CURVE SMOOTH",
"502 -12 OFFCURVE",
"617 28 OFFCURVE",
"643 50 CURVE"
);
}
);
width = 664;
},
{
backgroundImage = {
crop = "{{0, 0}, {305.926, 73.749}}";
imagePath = ../pala/pala.png;
locked = "1";
transform = "{74.933, 0, 0, 74.933, -2539, -3911}";
};
layerId = "3EDEE92B-4D9D-4D9A-9438-63C2E33416C1";
paths = (
{
closed = 1;
nodes = (
"654 98 LINE",
"631 98 LINE",
"617 71 OFFCURVE",
"511 37 OFFCURVE",
"404 37 CURVE SMOOTH",
"206 37 OFFCURVE",
"107 179 OFFCURVE",
"107 353 CURVE SMOOTH",
"107 525 OFFCURVE",
"206 667 OFFCURVE",
"393 667 CURVE SMOOTH",
"474 667 OFFCURVE",
"535 652 OFFCURVE",
"566 635 CURVE",
"588 610 OFFCURVE",
"593 588 OFFCURVE",
"593 570 CURVE",
"639 570 LINE",
"644 666 LINE",
"622 677 OFFCURVE",
"556 710 OFFCURVE",
"414 710 CURVE SMOOTH",
"147 710 OFFCURVE",
"10 561 OFFCURVE",
"10 335 CURVE SMOOTH",
"10 152 OFFCURVE",
"135 -12 OFFCURVE",
"396 -12 CURVE SMOOTH",
"502 -12 OFFCURVE",
"617 28 OFFCURVE",
"643 50 CURVE"
);
}
);
width = 664;
}
);
unicode = 0043;
},
{
color = 0;
glyphname = D;
lastChange = "2020-12-03 13:08:29 +0000";
layers = (
{
background = {
paths = (
{
closed = 1;
nodes = (
"-10 700 LINE",
"-10 0 LINE",
"195 0 LINE SMOOTH",
"376 0 OFFCURVE",
"604 91 OFFCURVE",
"604 361 CURVE SMOOTH",
"604 603 OFFCURVE",
"470 700 OFFCURVE",
"215 700 CURVE SMOOTH"
);
},
{
closed = 1;
nodes = (
"65 46 LINE",
"65 654 LINE",
"250 654 LINE SMOOTH",
"416 654 OFFCURVE",
"520 555 OFFCURVE",
"520 355 CURVE SMOOTH",
"520 173 OFFCURVE",
"407 46 OFFCURVE",
"211 46 CURVE SMOOTH"
);
}
);
};
backgroundImage = {
crop = "{{0, 0}, {294, 68.104}}";
imagePath = "palatino-source/alphabet.jpg";
locked = "1";
transform = "{72.664, 0, 0, 72.664, -2735, -3667}";
};
layerId = "A2204D38-078E-49A4-B70C-87904FFF8E34";
paths = (
{
closed = 1;
nodes = (
"40 700 LINE",
"40 0 LINE",
"300 0 LINE SMOOTH",
"514 0 OFFCURVE",
"674 146 OFFCURVE",
"674 361 CURVE SMOOTH",
"674 601 OFFCURVE",
"585 700 OFFCURVE",
"316 700 CURVE SMOOTH"
);
},
{
closed = 1;
nodes = (
"115 43 LINE",
"115 654 LINE",
"266 654 LINE SMOOTH",
"399 654 OFFCURVE",
"460 634 OFFCURVE",
"514 583 CURVE SMOOTH",
"565 533 OFFCURVE",
"590 455 OFFCURVE",
"590 355 CURVE SMOOTH",
"590 174 OFFCURVE",
"498 43 OFFCURVE",
"261 43 CURVE SMOOTH"
);
},
{
closed = 1;
nodes = (
"40 0 LINE",
"46 0 LINE",
"46 106 LINE",
"40 106 LINE",
"40 39 OFFCURVE",
"40 33 OFFCURVE",
"40 20 CURVE"
);
},
{
closed = 1;
nodes = (
"40 649 OFFCURVE",
"40 615 OFFCURVE",
"40 594 CURVE",
"46 594 LINE",
"46 700 LINE",
"40 700 LINE",
"40 680 LINE"
);
}
);
width = 714;
},
{
backgroundImage = {
crop = "{{0, 0}, {305.926, 73.749}}";
imagePath = ../pala/pala.png;
locked = "1";
transform = "{74.933, 0, 0, 74.933, -3204, -3917}";
};
layerId = "3EDEE92B-4D9D-4D9A-9438-63C2E33416C1";
paths = (
{
closed = 1;
nodes = (
"120 700 LINE",
"120 0 LINE",
"380 0 LINE SMOOTH",
"594 0 OFFCURVE",
"754 146 OFFCURVE",
"754 361 CURVE SMOOTH",
"754 601 OFFCURVE",
"665 700 OFFCURVE",
"396 700 CURVE SMOOTH"
);
},
{
closed = 1;
nodes = (
"195 43 LINE",
"195 654 LINE",
"346 654 LINE SMOOTH",
"479 654 OFFCURVE",
"540 634 OFFCURVE",
"594 583 CURVE SMOOTH",
"645 533 OFFCURVE",
"670 455 OFFCURVE",
"670 355 CURVE SMOOTH",
"670 174 OFFCURVE",
"578 43 OFFCURVE",
"341 43 CURVE SMOOTH"
);
},
{
closed = 1;
nodes = (
"70 0 LINE",
"126 0 LINE",
"126 106 LINE",
"120 106 LINE",
"120 39 OFFCURVE",
"104 20 OFFCURVE",
"70 20 CURVE"
);
},
{
closed = 1;
nodes = (
"84 680 OFFCURVE",
"120 659 OFFCURVE",
"120 594 CURVE",
"126 594 LINE",
"126 700 LINE",
"40 700 LINE",
"40 680 LINE"
);
}
);
width = 794;
}
);
leftMetricsKey = O;
rightMetricsKey = O;
unicode = 0044;
},
{
color = 0;
glyphname = E;
lastChange = "2020-11-24 19:37:14 +0000";
layers = (
{
backgroundImage = {
crop = "{{0, 0}, {198.906, 37.715}}";
imagePath = "palatino-source/members.jpg";
locked = "1";
transform = "{33.72588, 0, 0, 33.72588, -3406, -374}";
};
layerId = "A2204D38-078E-49A4-B70C-87904FFF8E34";
paths = (
{
closed = 1;
nodes = (
"40 0 LINE",
"115 0 LINE",
"115 700 LINE",
"40 700 LINE"
);
},
{
closed = 1;
nodes = (
"393 700 LINE",
"66 700 LINE",
"66 663 LINE",
"393 663 LINE"
);
},
{
closed = 1;
nodes = (
"372 373 LINE",
"66 373 LINE",
"66 336 LINE",
"372 336 LINE"
);
},
{
closed = 1;
nodes = (
"413 40 LINE",
"86 40 LINE",
"86 0 LINE",
"413 0 LINE"
);
},
{
closed = 1;
nodes = (
"393 663 LINE",
"393 700 LINE",
"371 689 LINE",
"294 663 LINE",
"326 663 OFFCURVE",
"340 663 OFFCURVE",
"359 663 CURVE"
);
},
{
closed = 1;
nodes = (
"360 40 OFFCURVE",
"342 40 OFFCURVE",
"310 40 CURVE",
"391 11 LINE",
"413 0 LINE",
"413 40 LINE",
"379 40 LINE"
);
},
{
closed = 1;
nodes = (
"299 336 OFFCURVE",
"314 336 OFFCURVE",
"338 336 CURVE",
"372 336 LINE",
"372 345 OFFCURVE",
"372 347 OFFCURVE",
"372 354 CURVE SMOOTH",
"372 361 OFFCURVE",
"372 364 OFFCURVE",
"372 373 CURVE",
"338 373 LINE",
"314 373 OFFCURVE",
"299 373 OFFCURVE",
"267 373 CURVE",
"267 336 LINE"
);
},
{
closed = 1;
nodes = (
"40 0 LINE",
"46 0 LINE",
"46 106 LINE",
"40 106 LINE",
"40 39 OFFCURVE",
"40 33 OFFCURVE",
"40 20 CURVE"
);
},
{
closed = 1;
nodes = (
"40 649 OFFCURVE",
"40 615 OFFCURVE",
"40 594 CURVE",
"46 594 LINE",
"46 700 LINE",
"40 700 LINE",
"40 680 LINE"
);
}
);
width = 453;
},
{
backgroundImage = {
crop = "{{0, 0}, {305.926, 73.749}}";
imagePath = ../pala/pala.png;
locked = "1";
transform = "{74.933, 0, 0, 74.933, -4040, -3917}";
};
layerId = "3EDEE92B-4D9D-4D9A-9438-63C2E33416C1";
paths = (
{
closed = 1;
nodes = (
"90 0 LINE",
"165 0 LINE",
"165 700 LINE",
"90 700 LINE"
);
},
{
closed = 1;
nodes = (
"443 700 LINE",
"116 700 LINE",
"116 663 LINE",
"443 663 LINE"
);
},
{
closed = 1;
nodes = (
"422 373 LINE",
"116 373 LINE",
"116 336 LINE",
"422 336 LINE"
);
},
{
closed = 1;
nodes = (
"463 40 LINE",
"136 40 LINE",
"136 0 LINE",
"463 0 LINE"
);
},
{
closed = 1;
nodes = (
"460 556 LINE",
"443 700 LINE",
"421 689 LINE",
"344 663 LINE",
"406 663 OFFCURVE",
"415 610 OFFCURVE",
"426 557 CURVE"
);
},
{
closed = 1;
nodes = (
"435 90 OFFCURVE",
"422 40 OFFCURVE",
"360 40 CURVE",
"441 11 LINE",
"463 0 LINE",
"480 144 LINE",
"446 143 LINE"
);
},
{
closed = 1;
nodes = (
"381 336 OFFCURVE",
"392 325 OFFCURVE",
"403 272 CURVE",
"437 272 LINE",
"428 299 OFFCURVE",
"422 327 OFFCURVE",
"422 354 CURVE SMOOTH",
"421 382 OFFCURVE",
"428 408 OFFCURVE",
"437 437 CURVE",
"403 437 LINE",
"392 384 OFFCURVE",
"381 373 OFFCURVE",
"317 373 CURVE",
"317 336 LINE"
);
},
{
closed = 1;
nodes = (
"40 0 LINE",
"96 0 LINE",
"96 106 LINE",
"90 106 LINE",
"90 39 OFFCURVE",
"74 20 OFFCURVE",
"40 20 CURVE"
);
},
{
closed = 1;
nodes = (
"54 680 OFFCURVE",
"90 659 OFFCURVE",
"90 594 CURVE",
"96 594 LINE",
"96 700 LINE",
"10 700 LINE",
"10 680 LINE"
);
}
);
width = 490;
}
);
unicode = 0045;
},
{
color = 0;
glyphname = F;
lastChange = "2020-11-26 14:30:38 +0000";
layers = (
{
layerId = "A2204D38-078E-49A4-B70C-87904FFF8E34";
paths = (
{
closed = 1;
nodes = (
"10 0 LINE",
"85 0 LINE",
"85 700 LINE",
"10 700 LINE"
);
},
{
closed = 1;
nodes = (
"353 700 LINE",
"26 700 LINE",
"26 663 LINE",
"353 663 LINE"
);
},
{
closed = 1;
nodes = (
"353 663 LINE",
"353 700 LINE",
"331 689 LINE",
"254 663 LINE",
"289 663 OFFCURVE",
"305 663 OFFCURVE",
"319 663 CURVE"
);
},
{
closed = 1;
nodes = (
"204 339 OFFCURVE",
"249 339 OFFCURVE",
"281 339 CURVE",
"315 339 LINE",
"315 352 OFFCURVE",
"315 367 OFFCURVE",
"315 380 CURVE",
"281 380 LINE",
"249 380 OFFCURVE",
"204 380 OFFCURVE",
"140 380 CURVE",
"140 339 LINE"
);
},
{
closed = 1;
nodes = (
"315 380 LINE",
"49 380 LINE",
"49 339 LINE",
"315 339 LINE"
);
},
{
closed = 1;
nodes = (
"10 0 LINE",
"16 0 LINE",
"16 106 LINE",
"10 106 LINE",
"10 69 OFFCURVE",
"10 37 OFFCURVE",
"10 20 CURVE"
);
},
{
closed = 1;
nodes = (
"10 649 OFFCURVE",
"10 623 OFFCURVE",
"10 594 CURVE",
"16 594 LINE",
"16 700 LINE",
"10 700 LINE",
"10 680 LINE"
);
},
{
closed = 1;
nodes = (
"85 37 OFFCURVE",
"85 69 OFFCURVE",
"85 106 CURVE",
"79 106 LINE",
"79 0 LINE",
"85 0 LINE",
"85 20 LINE"
);
}
);
width = 363;
},
{
backgroundImage = {
crop = "{{0, 0}, {305.926, 73.749}}";
imagePath = ../pala/pala.png;
locked = "1";
transform = "{74.933, 0, 0, 74.933, -4636, -3917}";
};
layerId = "3EDEE92B-4D9D-4D9A-9438-63C2E33416C1";
paths = (
{
closed = 1;
nodes = (
"90 0 LINE",
"165 0 LINE",
"165 700 LINE",
"90 700 LINE"
);
},
{
closed = 1;
nodes = (
"433 700 LINE",
"106 700 LINE",
"106 663 LINE",
"433 663 LINE"
);
},
{
closed = 1;
nodes = (
"450 556 LINE",
"433 700 LINE",
"411 689 LINE",
"334 663 LINE",
"396 663 OFFCURVE",
"405 610 OFFCURVE",
"416 557 CURVE"
);
},
{
closed = 1;
nodes = (
"364 339 OFFCURVE",
"374 305 OFFCURVE",
"386 256 CURVE",
"420 256 LINE",
"403 311 OFFCURVE",
"403 409 OFFCURVE",
"420 464 CURVE",
"386 464 LINE",
"375 411 OFFCURVE",
"364 380 OFFCURVE",
"300 380 CURVE",
"300 339 LINE"
);
},
{
closed = 1;
nodes = (
"395 380 LINE",
"129 380 LINE",
"129 339 LINE",
"395 339 LINE"
);
},
{
closed = 1;
nodes = (
"30 0 LINE",
"96 0 LINE",
"96 106 LINE",
"90 106 LINE",
"90 39 OFFCURVE",
"64 20 OFFCURVE",
"30 20 CURVE"
);
},
{
closed = 1;
nodes = (
"54 680 OFFCURVE",
"90 659 OFFCURVE",
"90 594 CURVE",
"96 594 LINE",
"96 700 LINE",
"10 700 LINE",
"10 680 LINE"
);
},
{
closed = 1;
nodes = (
"201 20 OFFCURVE",
"165 39 OFFCURVE",
"165 106 CURVE",
"159 106 LINE",
"159 0 LINE",
"235 0 LINE",
"235 20 LINE"
);
}
);
width = 460;
}
);
unicode = 0046;
},
{
color = 0;
glyphname = G;
lastChange = "2020-11-24 17:51:32 +0000";
layers = (
{
layerId = "A2204D38-078E-49A4-B70C-87904FFF8E34";
paths = (
{
closed = 1;
nodes = (
"489 -12 OFFCURVE",
"599 17 OFFCURVE",
"633 34 CURVE",
"633 267 LINE",
"572 267 LINE",
"572 62 LINE",
"523 39 OFFCURVE",
"474 32 OFFCURVE",
"395 32 CURVE SMOOTH",
"267 32 OFFCURVE",
"94 132 OFFCURVE",
"94 366 CURVE SMOOTH",
"94 547 OFFCURVE",
"237 667 OFFCURVE",
"387 667 CURVE SMOOTH",
"477 667 OFFCURVE",
"548 641 OFFCURVE",
"599 611 CURVE SMOOTH",
"621 598 LINE",
"631 598 LINE",
"653 657 LINE",
"608 682 OFFCURVE",
"535 710 OFFCURVE",
"389 710 CURVE SMOOTH",
"171 710 OFFCURVE",
"10 573 OFFCURVE",
"10 339 CURVE SMOOTH",
"10 143 OFFCURVE",
"143 -12 OFFCURVE",
"389 -12 CURVE SMOOTH"
);
},
{
closed = 1;
nodes = (
"477 242 LINE",
"572 226 LINE",
"633 226 LINE",
"633 240 LINE",
"633 267 LINE",
"477 267 LINE"
);
}
);
width = 663;
},
{
backgroundImage = {
crop = "{{0, 0}, {305.926, 73.749}}";
imagePath = ../pala/pala.png;
locked = "1";
transform = "{74.933, 0, 0, 74.933, -5186, -3917}";
};
layerId = "3EDEE92B-4D9D-4D9A-9438-63C2E33416C1";
paths = (
{
closed = 1;
nodes = (
"489 -12 OFFCURVE",
"599 17 OFFCURVE",
"633 34 CURVE",
"633 267 LINE",
"572 267 LINE",
"572 62 LINE",
"523 39 OFFCURVE",
"474 32 OFFCURVE",
"395 32 CURVE SMOOTH",
"267 32 OFFCURVE",
"94 132 OFFCURVE",
"94 366 CURVE SMOOTH",
"94 547 OFFCURVE",
"237 667 OFFCURVE",
"387 667 CURVE SMOOTH",
"477 667 OFFCURVE",
"550 644 OFFCURVE",
"599 611 CURVE",
"618 550 LINE",
"653 550 LINE",
"653 657 LINE",
"608 682 OFFCURVE",
"535 710 OFFCURVE",
"389 710 CURVE SMOOTH",
"171 710 OFFCURVE",
"10 573 OFFCURVE",
"10 339 CURVE SMOOTH",
"10 143 OFFCURVE",
"143 -12 OFFCURVE",
"389 -12 CURVE SMOOTH"
);
},
{
closed = 1;
nodes = (
"477 242 LINE",
"572 226 LINE",
"633 226 LINE",
"698 240 LINE",
"698 267 LINE",
"477 267 LINE"
);
}
);
width = 708;
}
);
unicode = 0047;
},
{
color = 0;
glyphname = H;
lastChange = "2020-11-24 18:57:19 +0000";
layers = (
{
backgroundImage = {
crop = "{{0, 0}, {294, 68.104}}";
imagePath = "palatino-source/alphabet.jpg";
locked = "1";
transform = "{72.664, 0, 0, 72.664, -5373, -3667}";
};
layerId = "A2204D38-078E-49A4-B70C-87904FFF8E34";
paths = (
{
closed = 1;
nodes = (
"85 0 LINE",
"85 700 LINE",
"10 700 LINE",
"10 0 LINE"
);
},
{
closed = 1;
nodes = (
"53 403 LINE",
"53 348 LINE",
"510 348 LINE",
"510 403 LINE"
);
},
{
closed = 1;
nodes = (
"568 0 LINE",
"568 700 LINE",
"493 700 LINE",
"493 0 LINE"
);
},
{
closed = 1;
nodes = (
"10 0 LINE",
"16 0 LINE",
"16 106 LINE",
"10 106 LINE",
"10 65 OFFCURVE",
"10 46 OFFCURVE",
"10 20 CURVE"
);
},
{
closed = 1;
nodes = (
"85 46 OFFCURVE",
"85 65 OFFCURVE",
"85 106 CURVE",
"79 106 LINE",
"79 0 LINE",
"85 0 LINE",
"85 20 LINE"
);
},
{
closed = 1;
nodes = (
"493 0 LINE",
"499 0 LINE",
"499 106 LINE",
"493 106 LINE",
"493 80 OFFCURVE",
"493 61 OFFCURVE",
"493 20 CURVE"
);
},
{
closed = 1;
nodes = (
"568 61 OFFCURVE",
"568 80 OFFCURVE",
"568 106 CURVE",
"562 106 LINE",
"562 0 LINE",
"568 0 LINE",
"568 20 LINE"
);
},
{
closed = 1;
nodes = (
"493 659 OFFCURVE",
"493 635 OFFCURVE",
"493 594 CURVE",
"499 594 LINE",
"499 700 LINE",
"493 700 LINE",
"493 680 LINE"
);
},
{
closed = 1;
nodes = (
"568 700 LINE",
"562 700 LINE",
"562 594 LINE",
"568 594 LINE",
"568 635 OFFCURVE",
"568 659 OFFCURVE",
"568 680 CURVE"
);
},
{
closed = 1;
nodes = (
"10 654 OFFCURVE",
"10 635 OFFCURVE",
"10 594 CURVE",
"16 594 LINE",
"16 700 LINE",
"10 700 LINE",
"10 680 LINE"
);
},
{
closed = 1;
nodes = (
"85 700 LINE",
"79 700 LINE",
"79 594 LINE",
"85 594 LINE",
"85 635 OFFCURVE",
"85 654 OFFCURVE",
"85 680 CURVE"
);
}
);
width = 578;
},
{
backgroundImage = {
crop = "{{0, 0}, {305.926, 73.749}}";
imagePath = ../pala/pala.png;
locked = "1";
transform = "{74.933, 0, 0, 74.933, -5996, -3917}";
};
layerId = "3EDEE92B-4D9D-4D9A-9438-63C2E33416C1";
paths = (
{
closed = 1;
nodes = (
"145 0 LINE",
"145 700 LINE",
"70 700 LINE",
"70 0 LINE"
);
},
{
closed = 1;
nodes = (
"113 403 LINE",
"113 348 LINE",
"570 348 LINE",
"570 403 LINE"
);
},
{
closed = 1;
nodes = (
"628 0 LINE",
"628 700 LINE",
"553 700 LINE",
"553 0 LINE"
);
},
{
closed = 1;
nodes = (
"10 0 LINE",
"76 0 LINE",
"76 106 LINE",
"70 106 LINE",
"70 39 OFFCURVE",
"44 20 OFFCURVE",
"10 20 CURVE"
);
},
{
closed = 1;
nodes = (
"171 20 OFFCURVE",
"145 39 OFFCURVE",
"145 106 CURVE",
"139 106 LINE",
"139 0 LINE",
"205 0 LINE",
"205 20 LINE"
);
},
{
closed = 1;
nodes = (
"493 0 LINE",
"559 0 LINE",
"559 106 LINE",
"553 106 LINE",
"553 39 OFFCURVE",
"527 20 OFFCURVE",
"493 20 CURVE"
);
},
{
closed = 1;
nodes = (
"654 20 OFFCURVE",
"628 39 OFFCURVE",
"628 106 CURVE",
"622 106 LINE",
"622 0 LINE",
"688 0 LINE",
"688 20 LINE"
);
},
{
closed = 1;
nodes = (
"527 680 OFFCURVE",
"553 661 OFFCURVE",
"553 594 CURVE",
"559 594 LINE",
"559 700 LINE",
"493 700 LINE",
"493 680 LINE"
);
},
{
closed = 1;
nodes = (
"688 700 LINE",
"622 700 LINE",
"622 594 LINE",
"628 594 LINE",
"628 661 OFFCURVE",
"654 680 OFFCURVE",
"688 680 CURVE"
);
},
{
closed = 1;
nodes = (
"44 680 OFFCURVE",
"70 661 OFFCURVE",
"70 594 CURVE",
"76 594 LINE",
"76 700 LINE",
"10 700 LINE",
"10 680 LINE"
);
},
{
closed = 1;
nodes = (
"205 700 LINE",
"139 700 LINE",
"139 594 LINE",
"145 594 LINE",
"145 661 OFFCURVE",
"171 680 OFFCURVE",
"205 680 CURVE"
);
}
);
width = 698;
}
);
unicode = 0048;
},
{
color = 0;
glyphname = I;
lastChange = "2020-12-03 13:03:44 +0000";
layers = (
{
layerId = "A2204D38-078E-49A4-B70C-87904FFF8E34";
paths = (
{
closed = 1;
nodes = (
"115 0 LINE",
"115 700 LINE",
"40 700 LINE",
"40 0 LINE"
);
},
{
closed = 1;
nodes = (
"40 0 LINE",
"46 0 LINE",
"46 106 LINE",
"40 106 LINE",
"40 65 OFFCURVE",
"40 46 OFFCURVE",
"40 20 CURVE"
);
},
{
closed = 1;
nodes = (
"115 46 OFFCURVE",
"115 65 OFFCURVE",
"115 106 CURVE",
"109 106 LINE",
"109 0 LINE",
"115 0 LINE",
"115 20 LINE"
);
},
{
closed = 1;
nodes = (
"40 654 OFFCURVE",
"40 635 OFFCURVE",
"40 594 CURVE",
"46 594 LINE",
"46 700 LINE",
"40 700 LINE",
"40 680 LINE"
);
},
{
closed = 1;
nodes = (
"115 700 LINE",
"109 700 LINE",
"109 594 LINE",
"115 594 LINE",
"115 635 OFFCURVE",
"115 654 OFFCURVE",
"115 680 CURVE"
);
}
);
width = 135;
},
{
backgroundImage = {
crop = "{{0, 0}, {305.926, 73.749}}";
imagePath = ../pala/pala.png;
locked = "1";
transform = "{74.933, 0, 0, 74.933, -6856, -3917}";
};
layerId = "3EDEE92B-4D9D-4D9A-9438-63C2E33416C1";
paths = (
{
closed = 1;
nodes = (
"145 0 LINE",
"145 700 LINE",
"70 700 LINE",
"70 0 LINE"
);
},
{
closed = 1;
nodes = (
"10 0 LINE",
"76 0 LINE",
"76 106 LINE",
"70 106 LINE",
"70 39 OFFCURVE",
"44 20 OFFCURVE",
"10 20 CURVE"
);
},
{
closed = 1;
nodes = (
"171 20 OFFCURVE",
"145 39 OFFCURVE",
"145 106 CURVE",
"139 106 LINE",
"139 0 LINE",
"205 0 LINE",
"205 20 LINE"
);
},
{
closed = 1;
nodes = (
"44 680 OFFCURVE",
"70 661 OFFCURVE",
"70 594 CURVE",
"76 594 LINE",
"76 700 LINE",
"10 700 LINE",
"10 680 LINE"
);
},
{
closed = 1;
nodes = (
"205 700 LINE",
"139 700 LINE",
"139 594 LINE",
"145 594 LINE",
"145 661 OFFCURVE",
"171 680 OFFCURVE",
"205 680 CURVE"
);
}
);
width = 215;
}
);
leftMetricsKey = L;
unicode = 0049;
},
{
color = 0;
glyphname = J;
lastChange = "2020-11-24 18:42:25 +0000";
layers = (
{
layerId = "A2204D38-078E-49A4-B70C-87904FFF8E34";
paths = (
{
closed = 1;
nodes = (
"110 132 LINE",
"110 28 LINE SMOOTH",
"110 -41 OFFCURVE",
"98 -123 OFFCURVE",
"44 -123 CURVE SMOOTH",
"26 -123 OFFCURVE",
"14 -118 OFFCURVE",
"4 -113 CURVE",
"0 -115 LINE",
"0 -166 LINE",
"2 -167 LINE",
"61 -167 OFFCURVE",
"106 -143 OFFCURVE",
"138 -108 CURVE SMOOTH",
"168 -75 OFFCURVE",
"185 -33 OFFCURVE",
"185 28 CURVE SMOOTH",
"185 54 OFFCURVE",
"185 104 OFFCURVE",
"185 130 CURVE"
);
},
{
closed = 1;
nodes = (
"185 40 LINE",
"185 700 LINE",
"110 700 LINE",
"110 40 LINE"
);
},
{
closed = 1;
nodes = (
"110 654 OFFCURVE",
"110 635 OFFCURVE",
"110 594 CURVE",
"116 594 LINE",
"116 700 LINE",
"110 700 LINE",
"110 680 LINE"
);
},
{
closed = 1;
nodes = (
"185 700 LINE",
"179 700 LINE",
"179 594 LINE",
"185 594 LINE",
"185 635 OFFCURVE",
"185 654 OFFCURVE",
"185 680 CURVE"
);
}
);
width = 195;
},
{
backgroundImage = {
crop = "{{0, 0}, {305.926, 73.749}}";
imagePath = ../pala/pala.png;
locked = "1";
transform = "{74.933, 0, 0, 74.933, -7176, -3917}";
};
layerId = "3EDEE92B-4D9D-4D9A-9438-63C2E33416C1";
paths = (
{
closed = 1;
nodes = (
"110 132 LINE",
"110 28 LINE SMOOTH",
"110 -41 OFFCURVE",
"98 -123 OFFCURVE",
"44 -123 CURVE SMOOTH",
"26 -123 OFFCURVE",
"14 -118 OFFCURVE",
"4 -113 CURVE",
"0 -115 LINE",
"0 -166 LINE",
"2 -167 LINE",
"61 -167 OFFCURVE",
"106 -143 OFFCURVE",
"138 -108 CURVE SMOOTH",
"168 -75 OFFCURVE",
"185 -33 OFFCURVE",
"185 28 CURVE SMOOTH",
"185 54 OFFCURVE",
"185 104 OFFCURVE",
"185 130 CURVE"
);
},
{
closed = 1;
nodes = (
"185 40 LINE",
"185 700 LINE",
"110 700 LINE",
"110 40 LINE"
);
},
{
closed = 1;
nodes = (
"84 680 OFFCURVE",
"110 661 OFFCURVE",
"110 594 CURVE",
"116 594 LINE",
"116 700 LINE",
"50 700 LINE",
"50 680 LINE"
);
},
{
closed = 1;
nodes = (
"245 700 LINE",
"179 700 LINE",
"179 594 LINE",
"185 594 LINE",
"185 661 OFFCURVE",
"211 680 OFFCURVE",
"245 680 CURVE"
);
}
);
width = 255;
}
);
unicode = 004A;
},
{
color = 0;
glyphname = K;
lastChange = "2020-11-24 19:02:38 +0000";
layers = (
{
guideLines = (
{
angle = -42.541;
position = "{320, 195}";
}
);
layerId = "A2204D38-078E-49A4-B70C-87904FFF8E34";
paths = (
{
closed = 1;
nodes = (
"150 351 LINE",
"150 353 LINE",
"449 648 LINE",
"463 662 OFFCURVE",
"469 668 OFFCURVE",
"487 685 CURVE SMOOTH",
"503 700 LINE",
"423 700 LINE",
"88 364 LINE",
"83 364 LINE",
"83 321 LINE",
"101 321 LINE",
"417 0 LINE",
"533 0 LINE",
"517 14 LINE SMOOTH",
"508 22 OFFCURVE",
"500 30 OFFCURVE",
"490 39 CURVE"
);
},
{
closed = 1;
nodes = (
"85 0 LINE",
"85 700 LINE",
"10 700 LINE",
"10 0 LINE"
);
},
{
closed = 1;
nodes = (
"10 0 LINE",
"16 0 LINE",
"16 106 LINE",
"10 106 LINE",
"10 65 OFFCURVE",
"10 46 OFFCURVE",
"10 20 CURVE"
);
},
{
closed = 1;
nodes = (
"85 46 OFFCURVE",
"85 65 OFFCURVE",
"85 106 CURVE",
"79 106 LINE",
"79 0 LINE",
"85 0 LINE",
"85 20 LINE"
);
},
{
closed = 1;
nodes = (
"10 654 OFFCURVE",
"10 635 OFFCURVE",
"10 594 CURVE",
"16 594 LINE",
"16 700 LINE",
"10 700 LINE",
"10 680 LINE"
);
},
{
closed = 1;
nodes = (
"85 700 LINE",
"79 700 LINE",
"79 594 LINE",
"85 594 LINE",
"85 635 OFFCURVE",
"85 654 OFFCURVE",
"85 680 CURVE"
);
}
);
width = 543;
},
{
backgroundImage = {
crop = "{{0, 0}, {305.926, 73.749}}";
imagePath = ../pala/pala.png;
locked = "1";
transform = "{74.933, 0, 0, 74.933, -7594, -3904}";
};
layerId = "3EDEE92B-4D9D-4D9A-9438-63C2E33416C1";
paths = (
{
closed = 1;
nodes = (
"210 351 LINE",
"210 353 LINE",
"509 648 LINE",
"535 672 OFFCURVE",
"554 680 OFFCURVE",
"580 680 CURVE",
"580 700 LINE",
"483 700 LINE",
"148 364 LINE",
"143 364 LINE",
"143 321 LINE",
"161 321 LINE",
"477 0 LINE",
"615 0 LINE",
"615 20 LINE",
"588 20 OFFCURVE",
"572 20 OFFCURVE",
"550 39 CURVE"
);
},
{
closed = 1;
nodes = (
"145 0 LINE",
"145 700 LINE",
"70 700 LINE",
"70 0 LINE"
);
},
{
closed = 1;
nodes = (
"10 0 LINE",
"76 0 LINE",
"76 106 LINE",
"70 106 LINE",
"70 39 OFFCURVE",
"44 20 OFFCURVE",
"10 20 CURVE"
);
},
{
closed = 1;
nodes = (
"171 20 OFFCURVE",
"145 39 OFFCURVE",
"145 106 CURVE",
"139 106 LINE",
"139 0 LINE",
"205 0 LINE",
"205 20 LINE"
);
},
{
closed = 1;
nodes = (
"44 680 OFFCURVE",
"70 661 OFFCURVE",
"70 594 CURVE",
"76 594 LINE",
"76 700 LINE",
"10 700 LINE",
"10 680 LINE"
);
},
{
closed = 1;
nodes = (
"205 700 LINE",
"139 700 LINE",
"139 594 LINE",
"145 594 LINE",
"145 661 OFFCURVE",
"171 680 OFFCURVE",
"205 680 CURVE"
);
}
);
width = 625;
}
);
unicode = 004B;
},
{
color = 0;
glyphname = L;
lastChange = "2020-11-24 19:19:50 +0000";
layers = (
{
backgroundImage = {
crop = "{{0, 0}, {49.726, 17.296}}";
imagePath = "palatino-source/alon.jpg";
locked = "1";
transform = "{60.937, 0, 0, 60.937, -894, -255}";
};
layerId = "A2204D38-078E-49A4-B70C-87904FFF8E34";
paths = (
{
closed = 1;
nodes = (
"40 0 LINE",
"115 0 LINE",
"115 700 LINE",
"40 700 LINE"
);
},
{
closed = 1;
nodes = (
"393 50 LINE",
"86 50 LINE",
"86 0 LINE",
"393 0 LINE"
);
},
{
closed = 1;
nodes = (
"40 0 LINE",
"46 0 LINE",
"46 106 LINE",
"40 106 LINE",
"40 80 OFFCURVE",
"40 61 OFFCURVE",
"40 20 CURVE"
);
},
{
closed = 1;
nodes = (
"40 659 OFFCURVE",
"40 635 OFFCURVE",
"40 594 CURVE",
"46 594 LINE",
"46 700 LINE",
"40 700 LINE",
"40 680 LINE"
);
},
{
closed = 1;
nodes = (
"115 700 LINE",
"109 700 LINE",
"109 594 LINE",
"115 594 LINE",
"115 635 OFFCURVE",
"115 659 OFFCURVE",
"115 680 CURVE"
);
},
{
closed = 1;
nodes = (
"393 0 LINE",
"393 50 LINE",
"369 50 LINE",
"361 50 LINE",
"331 50 OFFCURVE",
"301 50 OFFCURVE",
"267 50 CURVE",
"372 0 LINE"
);
}
);
width = 433;
},
{
backgroundImage = {
crop = "{{0, 0}, {305.926, 73.749}}";
imagePath = ../pala/pala.png;
transform = "{74.933, 0, 0, 74.933, -8274, -3904}";
};
layerId = "3EDEE92B-4D9D-4D9A-9438-63C2E33416C1";
paths = (
{
closed = 1;
nodes = (
"70 0 LINE",
"145 0 LINE",
"145 700 LINE",
"70 700 LINE"
);
},
{
closed = 1;
nodes = (
"423 50 LINE",
"116 50 LINE",
"116 0 LINE",
"423 0 LINE"
);
},
{
closed = 1;
nodes = (
"10 0 LINE",
"76 0 LINE",
"76 106 LINE",
"70 106 LINE",
"70 39 OFFCURVE",
"44 20 OFFCURVE",
"10 20 CURVE"
);
},
{
closed = 1;
nodes = (
"44 680 OFFCURVE",
"70 661 OFFCURVE",
"70 594 CURVE",
"76 594 LINE",
"76 700 LINE",
"10 700 LINE",
"10 680 LINE"
);
},
{
closed = 1;
nodes = (
"235 700 LINE",
"139 700 LINE",
"139 594 LINE",
"145 594 LINE",
"145 661 OFFCURVE",
"201 680 OFFCURVE",
"235 680 CURVE"
);
},
{
closed = 1;
nodes = (
"441 0 LINE",
"473 131 LINE",
"446 141 LINE",
"441 138 LINE",
"427 77 OFFCURVE",
"391 50 OFFCURVE",
"357 50 CURVE",
"402 0 LINE"
);
}
);
width = 483;
}
);
unicode = 004C;
},
{
color = 0;
glyphname = M;
lastChange = "2020-12-03 13:08:29 +0000";
layers = (
{
layerId = "A2204D38-078E-49A4-B70C-87904FFF8E34";
paths = (
{
closed = 1;
nodes = (
"725 700 LINE",
"414 85 LINE",
"424 85 LINE",
"128 700 LINE",
"40 700 LINE",
"40 0 LINE",
"92 0 LINE",
"92 626 LINE",
"79 626 LINE",
"398 -13 LINE",
"411 -13 LINE",
"735 595 LINE",
"735 0 LINE",
"800 0 LINE",
"800 700 LINE"
);
},
{
closed = 1;
nodes = (
"72 582 LINE",
"121 582 LINE",
"121 636 LINE",
"72 636 LINE"
);
},
{
closed = 1;
nodes = (
"702 582 LINE",
"751 582 LINE",
"751 636 LINE",
"702 636 LINE"
);
},
{
closed = 1;
nodes = (
"40 0 LINE",
"46 0 LINE",
"46 106 LINE",
"40 106 LINE",
"40 65 OFFCURVE",
"40 41 OFFCURVE",
"40 20 CURVE"
);
},
{
closed = 1;
nodes = (
"92 41 OFFCURVE",
"92 65 OFFCURVE",
"92 106 CURVE",
"86 106 LINE",
"86 0 LINE",
"92 0 LINE",
"92 20 LINE"
);
},
{
closed = 1;
nodes = (
"40 659 OFFCURVE",
"40 635 OFFCURVE",
"40 594 CURVE",
"46 594 LINE",
"46 700 LINE",
"40 700 LINE",
"40 680 LINE"
);
},
{
closed = 1;
nodes = (
"800 41 OFFCURVE",
"800 65 OFFCURVE",
"800 106 CURVE",
"794 106 LINE",
"794 0 LINE",
"800 0 LINE",
"800 20 LINE SMOOTH"
);
},
{
closed = 1;
nodes = (
"735 0 LINE",
"741 0 LINE",
"741 106 LINE",
"735 106 LINE",
"735 65 OFFCURVE",
"735 41 OFFCURVE",
"735 20 CURVE SMOOTH"
);
},
{
closed = 1;
nodes = (
"800 700 LINE",
"794 700 LINE",
"794 594 LINE",
"800 594 LINE",
"800 635 OFFCURVE",
"800 659 OFFCURVE",
"800 680 CURVE"
);
}
);
width = 840;
},
{
backgroundImage = {
crop = "{{0, 0}, {305.926, 73.749}}";
imagePath = ../pala/pala.png;
locked = "1";
transform = "{74.933, 0, 0, 74.933, -8784, -3904}";
};
layerId = "3EDEE92B-4D9D-4D9A-9438-63C2E33416C1";
paths = (
{
closed = 1;
nodes = (
"785 700 LINE",
"474 85 LINE",
"484 85 LINE",
"188 700 LINE",
"100 700 LINE",
"100 0 LINE",
"152 0 LINE",
"152 626 LINE",
"139 626 LINE",
"458 -13 LINE",
"471 -13 LINE",
"795 595 LINE",
"795 0 LINE",
"860 0 LINE",
"860 700 LINE"
);
},
{
closed = 1;
nodes = (
"132 582 LINE",
"181 582 LINE",
"181 636 LINE",
"132 636 LINE"
);
},
{
closed = 1;
nodes = (
"762 582 LINE",
"811 582 LINE",
"811 636 LINE",
"762 636 LINE"
);
},
{
closed = 1;
nodes = (
"40 0 LINE",
"106 0 LINE",
"106 106 LINE",
"100 106 LINE",
"100 39 OFFCURVE",
"74 20 OFFCURVE",
"40 20 CURVE"
);
},
{
closed = 1;
nodes = (
"188 20 OFFCURVE",
"152 39 OFFCURVE",
"152 106 CURVE",
"146 106 LINE",
"146 0 LINE",
"222 0 LINE",
"222 20 LINE"
);
},
{
closed = 1;
nodes = (
"74 680 OFFCURVE",
"100 661 OFFCURVE",
"100 594 CURVE",
"106 594 LINE",
"106 700 LINE",
"40 700 LINE",
"40 680 LINE"
);
},
{
closed = 1;
nodes = (
"886 20 OFFCURVE",
"860 39 OFFCURVE",
"860 106 CURVE",
"854 106 LINE",
"854 0 LINE",
"920 0 LINE",
"920 20 LINE"
);
},
{
closed = 1;
nodes = (
"735 0 LINE",
"801 0 LINE",
"801 106 LINE",
"795 106 LINE",
"795 39 OFFCURVE",
"769 20 OFFCURVE",
"735 20 CURVE"
);
},
{
closed = 1;
nodes = (
"920 700 LINE",
"854 700 LINE",
"854 594 LINE",
"860 594 LINE",
"860 661 OFFCURVE",
"886 680 OFFCURVE",
"920 680 CURVE"
);
}
);
width = 960;
}
);
leftMetricsKey = O;
rightMetricsKey = O;
unicode = 004D;
},
{
color = 0;
glyphname = N;
lastChange = "2020-12-03 13:08:29 +0000";
layers = (
{
backgroundImage = {
crop = "{{0, 0}, {49.726, 17.296}}";
imagePath = "palatino-source/alon.jpg";
locked = "1";
transform = "{62.53975, 0, 0, 62.53975, -2339, -255}";
};
layerId = "A2204D38-078E-49A4-B70C-87904FFF8E34";
paths = (
{
closed = 1;
nodes = (
"586 700 LINE",
"586 66 LINE",
"596 66 LINE",
"98 700 LINE",
"40 700 LINE",
"40 0 LINE",
"92 0 LINE",
"92 626 LINE",
"79 606 LINE",
"573 -12 LINE",
"638 -12 LINE",
"638 700 LINE"
);
},
{
closed = 1;
nodes = (
"72 582 LINE",
"121 582 LINE",
"121 636 LINE",
"72 636 LINE"
);
},
{
closed = 1;
nodes = (
"40 0 LINE",
"46 0 LINE",
"46 106 LINE",
"40 106 LINE",
"40 65 OFFCURVE",
"40 41 OFFCURVE",
"40 20 CURVE"
);
},
{
closed = 1;
nodes = (
"92 41 OFFCURVE",
"92 65 OFFCURVE",
"92 106 CURVE",
"86 106 LINE",
"86 0 LINE",
"92 0 LINE",
"92 20 LINE"
);
},
{
closed = 1;
nodes = (
"40 659 OFFCURVE",
"40 635 OFFCURVE",
"40 594 CURVE",
"46 594 LINE",
"46 700 LINE",
"40 700 LINE",
"40 680 LINE"
);
},
{
closed = 1;
nodes = (
"638 700 LINE",
"632 700 LINE",
"632 594 LINE",
"638 594 LINE",
"638 635 OFFCURVE",
"638 659 OFFCURVE",
"638 680 CURVE"
);
},
{
closed = 1;
nodes = (
"586 659 OFFCURVE",
"586 635 OFFCURVE",
"586 594 CURVE",
"592 594 LINE",
"592 700 LINE",
"586 700 LINE",
"586 680 LINE"
);
},
{
closed = 1;
nodes = (
"561 32 LINE",
"610 32 LINE",
"610 86 LINE",
"561 86 LINE"
);
}
);
width = 678;
},
{
backgroundImage = {
crop = "{{0, 0}, {305.926, 73.749}}";
imagePath = ../pala/pala.png;
transform = "{74.933, 0, 0, 74.933, -9860, -3904}";
};
layerId = "3EDEE92B-4D9D-4D9A-9438-63C2E33416C1";
paths = (
{
closed = 1;
nodes = (
"646 700 LINE",
"646 66 LINE",
"656 66 LINE",
"158 700 LINE",
"100 700 LINE",
"100 0 LINE",
"152 0 LINE",
"152 626 LINE",
"139 606 LINE",
"633 -12 LINE",
"698 -12 LINE",
"698 700 LINE"
);
},
{
closed = 1;
nodes = (
"132 582 LINE",
"181 582 LINE",
"181 636 LINE",
"132 636 LINE"
);
},
{
closed = 1;
nodes = (
"40 0 LINE",
"106 0 LINE",
"106 106 LINE",
"100 106 LINE",
"100 39 OFFCURVE",
"74 20 OFFCURVE",
"40 20 CURVE"
);
},
{
closed = 1;
nodes = (
"188 20 OFFCURVE",
"152 39 OFFCURVE",
"152 106 CURVE",
"146 106 LINE",
"146 0 LINE",
"222 0 LINE",
"222 20 LINE"
);
},
{
closed = 1;
nodes = (
"74 680 OFFCURVE",
"100 661 OFFCURVE",
"100 594 CURVE",
"106 594 LINE",
"106 700 LINE",
"40 700 LINE",
"40 680 LINE"
);
},
{
closed = 1;
nodes = (
"758 700 LINE",
"692 700 LINE",
"692 594 LINE",
"698 594 LINE",
"698 661 OFFCURVE",
"724 680 OFFCURVE",
"758 680 CURVE"
);
},
{
closed = 1;
nodes = (
"620 680 OFFCURVE",
"646 661 OFFCURVE",
"646 594 CURVE",
"652 594 LINE",
"652 700 LINE",
"586 700 LINE",
"586 680 LINE"
);
},
{
closed = 1;
nodes = (
"621 32 LINE",
"670 32 LINE",
"670 86 LINE",
"621 86 LINE"
);
}
);
width = 798;
}
);
leftMetricsKey = O;
rightMetricsKey = O;
unicode = 004E;
},
{
color = 0;
glyphname = O;
lastChange = "2020-11-23 16:23:43 +0000";
layers = (
{
background = {
paths = (
{
closed = 1;
nodes = (
"605 -13 OFFCURVE",
"754 173 OFFCURVE",
"754 380 CURVE SMOOTH",
"754 565 OFFCURVE",
"625 710 OFFCURVE",
"417 710 CURVE SMOOTH",
"198 710 OFFCURVE",
"10 549 OFFCURVE",
"10 335 CURVE SMOOTH",
"10 152 OFFCURVE",
"129 -13 OFFCURVE",
"332 -13 CURVE SMOOTH"
);
},
{
closed = 1;
nodes = (
"220 37 OFFCURVE",
"91 179 OFFCURVE",
"91 353 CURVE SMOOTH",
"91 525 OFFCURVE",
"220 667 OFFCURVE",
"381 667 CURVE SMOOTH",
"542 667 OFFCURVE",
"673 525 OFFCURVE",
"673 353 CURVE SMOOTH",
"673 179 OFFCURVE",
"542 37 OFFCURVE",
"381 37 CURVE SMOOTH"
);
}
);
};
backgroundImage = {
crop = "{{0, 0}, {49.726, 17.296}}";
imagePath = "palatino-source/alon.jpg";
locked = "1";
transform = "{60.937, 0, 0, 60.937, -1362, -255}";
};
guideLines = (
{
position = "{-86, 710}";
}
);
layerId = "A2204D38-078E-49A4-B70C-87904FFF8E34";
paths = (
{
closed = 1;
nodes = (
"595 -13 OFFCURVE",
"724 173 OFFCURVE",
"724 380 CURVE SMOOTH",
"724 565 OFFCURVE",
"595 713 OFFCURVE",
"417 713 CURVE SMOOTH",
"208 713 OFFCURVE",
"40 549 OFFCURVE",
"40 335 CURVE SMOOTH",
"40 152 OFFCURVE",
"159 -13 OFFCURVE",
"332 -13 CURVE SMOOTH"
);
},
{
closed = 1;
nodes = (
"230 37 OFFCURVE",
"121 179 OFFCURVE",
"121 353 CURVE SMOOTH",
"121 525 OFFCURVE",
"230 667 OFFCURVE",
"381 667 CURVE SMOOTH",
"532 667 OFFCURVE",
"643 525 OFFCURVE",
"643 353 CURVE SMOOTH",
"643 179 OFFCURVE",
"532 37 OFFCURVE",
"381 37 CURVE SMOOTH"
);
}
);
width = 764;
},
{
background = {
paths = (
{
closed = 1;
nodes = (
"605 -13 OFFCURVE",
"754 173 OFFCURVE",
"754 380 CURVE SMOOTH",
"754 565 OFFCURVE",
"625 710 OFFCURVE",
"417 710 CURVE SMOOTH",
"198 710 OFFCURVE",
"10 549 OFFCURVE",
"10 335 CURVE SMOOTH",
"10 152 OFFCURVE",
"129 -13 OFFCURVE",
"332 -13 CURVE SMOOTH"
);
},
{
closed = 1;
nodes = (
"220 37 OFFCURVE",
"91 179 OFFCURVE",
"91 353 CURVE SMOOTH",
"91 525 OFFCURVE",
"220 667 OFFCURVE",
"381 667 CURVE SMOOTH",
"542 667 OFFCURVE",
"673 525 OFFCURVE",
"673 353 CURVE SMOOTH",
"673 179 OFFCURVE",
"542 37 OFFCURVE",
"381 37 CURVE SMOOTH"
);
}
);
};
backgroundImage = {
crop = "{{0, 0}, {49.726, 17.296}}";
imagePath = "palatino-source/alon.jpg";
locked = "1";
transform = "{60.937, 0, 0, 60.937, -1362, -255}";
};
guideLines = (
{
position = "{-86, 710}";
}
);
layerId = "3EDEE92B-4D9D-4D9A-9438-63C2E33416C1";
paths = (
{
closed = 1;
nodes = (
"595 -13 OFFCURVE",
"724 173 OFFCURVE",
"724 380 CURVE SMOOTH",
"724 565 OFFCURVE",
"595 713 OFFCURVE",
"417 713 CURVE SMOOTH",
"208 713 OFFCURVE",
"40 549 OFFCURVE",
"40 335 CURVE SMOOTH",
"40 152 OFFCURVE",
"159 -13 OFFCURVE",
"332 -13 CURVE SMOOTH"
);
},
{
closed = 1;
nodes = (
"230 37 OFFCURVE",
"121 179 OFFCURVE",
"121 353 CURVE SMOOTH",
"121 525 OFFCURVE",
"230 667 OFFCURVE",
"381 667 CURVE SMOOTH",
"532 667 OFFCURVE",
"643 525 OFFCURVE",
"643 353 CURVE SMOOTH",
"643 179 OFFCURVE",
"532 37 OFFCURVE",
"381 37 CURVE SMOOTH"
);
}
);
width = 764;
}
);
unicode = 004F;
},
{
color = 0;
glyphname = P;
lastChange = "2020-12-03 13:08:29 +0000";
layers = (
{
layerId = "A2204D38-078E-49A4-B70C-87904FFF8E34";
paths = (
{
closed = 1;
nodes = (
"40 0 LINE",
"115 0 LINE",
"115 233 OFFCURVE",
"115 467 OFFCURVE",
"115 700 CURVE",
"40 700 LINE"
);
},
{
closed = 1;
nodes = (
"86 654 LINE",
"256 654 LINE SMOOTH",
"335 654 OFFCURVE",
"382 604 OFFCURVE",
"382 512 CURVE SMOOTH",
"382 420 OFFCURVE",
"333 355 OFFCURVE",
"211 357 CURVE SMOOTH",
"87 359 LINE",
"87 322 LINE",
"196 322 LINE SMOOTH",
"326 322 OFFCURVE",
"472 368 OFFCURVE",
"472 532 CURVE SMOOTH",
"472 649 OFFCURVE",
"388 700 OFFCURVE",
"285 700 CURVE SMOOTH",
"86 700 LINE"
);
},
{
closed = 1;
nodes = (
"40 0 LINE",
"46 0 LINE",
"46 106 LINE",
"40 106 LINE",
"40 65 OFFCURVE",
"40 41 OFFCURVE",
"40 20 CURVE"
);
},
{
closed = 1;
nodes = (
"115 41 OFFCURVE",
"115 65 OFFCURVE",
"115 106 CURVE",
"109 106 LINE",
"109 0 LINE",
"115 0 LINE",
"115 20 LINE"
);
},
{
closed = 1;
nodes = (
"40 659 OFFCURVE",
"40 635 OFFCURVE",
"40 594 CURVE",
"46 594 LINE",
"46 700 LINE",
"40 700 LINE",
"40 680 LINE"
);
}
);
width = 482;
},
{
background = {
paths = (
{
closed = 1;
nodes = (
"120 0 LINE",
"195 0 LINE",
"195 233 OFFCURVE",
"195 467 OFFCURVE",
"195 700 CURVE",
"120 700 LINE"
);
},
{
closed = 1;
nodes = (
"166 654 LINE",
"336 654 LINE SMOOTH",
"415 654 OFFCURVE",
"462 604 OFFCURVE",
"462 512 CURVE SMOOTH",
"462 420 OFFCURVE",
"413 357 OFFCURVE",
"291 357 CURVE SMOOTH",
"191 357 OFFCURVE",
"182 423 OFFCURVE",
"182 469 CURVE",
"147 426 LINE",
"147 363 OFFCURVE",
"215 322 OFFCURVE",
"312 322 CURVE SMOOTH",
"409 322 OFFCURVE",
"552 362 OFFCURVE",
"552 532 CURVE SMOOTH",
"552 649 OFFCURVE",
"468 700 OFFCURVE",
"365 700 CURVE SMOOTH",
"166 700 LINE"
);
},
{
closed = 1;
nodes = (
"60 0 LINE",
"126 0 LINE",
"126 106 LINE",
"120 106 LINE",
"120 39 OFFCURVE",
"94 20 OFFCURVE",
"60 20 CURVE"
);
},
{
closed = 1;
nodes = (
"231 20 OFFCURVE",
"195 39 OFFCURVE",
"195 106 CURVE",
"189 106 LINE",
"189 0 LINE",
"265 0 LINE",
"265 20 LINE"
);
},
{
closed = 1;
nodes = (
"84 680 OFFCURVE",
"120 659 OFFCURVE",
"120 594 CURVE",
"126 594 LINE",
"126 700 LINE",
"40 700 LINE",
"40 680 LINE"
);
}
);
};
layerId = "3EDEE92B-4D9D-4D9A-9438-63C2E33416C1";
paths = (
{
closed = 1;
nodes = (
"120 0 LINE",
"195 0 LINE",
"195 233 OFFCURVE",
"195 467 OFFCURVE",
"195 700 CURVE",
"120 700 LINE"
);
},
{
closed = 1;
nodes = (
"166 654 LINE",
"336 654 LINE SMOOTH",
"415 654 OFFCURVE",
"462 604 OFFCURVE",
"462 512 CURVE SMOOTH",
"462 420 OFFCURVE",
"413 357 OFFCURVE",
"291 357 CURVE SMOOTH",
"167 359 LINE",
"167 322 LINE",
"276 322 LINE SMOOTH",
"406 322 OFFCURVE",
"552 368 OFFCURVE",
"552 532 CURVE SMOOTH",
"552 649 OFFCURVE",
"468 700 OFFCURVE",
"365 700 CURVE SMOOTH",
"166 700 LINE"
);
},
{
closed = 1;
nodes = (
"60 0 LINE",
"126 0 LINE",
"126 106 LINE",
"120 106 LINE",
"120 39 OFFCURVE",
"94 20 OFFCURVE",
"60 20 CURVE"
);
},
{
closed = 1;
nodes = (
"231 20 OFFCURVE",
"195 39 OFFCURVE",
"195 106 CURVE",
"189 106 LINE",
"189 0 LINE",
"265 0 LINE",
"265 20 LINE"
);
},
{
closed = 1;
nodes = (
"84 680 OFFCURVE",
"120 659 OFFCURVE",
"120 594 CURVE",
"126 594 LINE",
"126 700 LINE",
"40 700 LINE",
"40 680 LINE"
);
}
);
width = 542;
}
);
leftMetricsKey = D;
unicode = 0050;
},
{
color = 0;
glyphname = Q;
lastChange = "2020-11-23 16:23:43 +0000";
layers = (
{
backgroundImage = {
crop = "{{0, 0}, {294, 68.104}}";
imagePath = "palatino-source/alphabet.jpg";
transform = "{72.664, 0, 0, 72.664, -18467, -5984}";
};
layerId = "A2204D38-078E-49A4-B70C-87904FFF8E34";
paths = (
{
closed = 1;
nodes = (
"702 -21 LINE",
"442 142 LINE",
"417 103 LINE",
"678 -60 LINE"
);
},
{
closed = 1;
nodes = (
"595 -13 OFFCURVE",
"724 173 OFFCURVE",
"724 380 CURVE SMOOTH",
"724 565 OFFCURVE",
"595 713 OFFCURVE",
"417 713 CURVE SMOOTH",
"208 713 OFFCURVE",
"40 549 OFFCURVE",
"40 335 CURVE SMOOTH",
"40 152 OFFCURVE",
"159 -13 OFFCURVE",
"332 -13 CURVE SMOOTH"
);
},
{
closed = 1;
nodes = (
"230 37 OFFCURVE",
"121 179 OFFCURVE",
"121 353 CURVE SMOOTH",
"121 525 OFFCURVE",
"230 667 OFFCURVE",
"381 667 CURVE SMOOTH",
"532 667 OFFCURVE",
"643 525 OFFCURVE",
"643 353 CURVE SMOOTH",
"643 179 OFFCURVE",
"532 37 OFFCURVE",
"381 37 CURVE SMOOTH"
);
}
);
width = 764;
},
{
backgroundImage = {
crop = "{{0, 0}, {294, 68.104}}";
imagePath = "palatino-source/alphabet.jpg";
transform = "{72.664, 0, 0, 72.664, -18467, -5984}";
};
layerId = "3EDEE92B-4D9D-4D9A-9438-63C2E33416C1";
paths = (
{
closed = 1;
nodes = (
"702 -21 LINE",
"442 142 LINE",
"417 103 LINE",
"678 -60 LINE"
);
},
{
closed = 1;
nodes = (
"595 -13 OFFCURVE",
"724 173 OFFCURVE",
"724 380 CURVE SMOOTH",
"724 565 OFFCURVE",
"595 713 OFFCURVE",
"417 713 CURVE SMOOTH",
"208 713 OFFCURVE",
"40 549 OFFCURVE",
"40 335 CURVE SMOOTH",
"40 152 OFFCURVE",
"159 -13 OFFCURVE",
"332 -13 CURVE SMOOTH"
);
},
{
closed = 1;
nodes = (
"230 37 OFFCURVE",
"121 179 OFFCURVE",
"121 353 CURVE SMOOTH",
"121 525 OFFCURVE",
"230 667 OFFCURVE",
"381 667 CURVE SMOOTH",
"532 667 OFFCURVE",
"643 525 OFFCURVE",
"643 353 CURVE SMOOTH",
"643 179 OFFCURVE",
"532 37 OFFCURVE",
"381 37 CURVE SMOOTH"
);
}
);
width = 764;
}
);
unicode = 0051;
},
{
color = 0;
glyphname = R;
lastChange = "2020-11-23 16:23:43 +0000";
layers = (
{
backgroundImage = {
crop = "{{0, 0}, {198.906, 37.715}}";
imagePath = "palatino-source/members.jpg";
transform = "{34.40389, 0, 0, 34.40389, -4047, 908}";
};
layerId = "A2204D38-078E-49A4-B70C-87904FFF8E34";
paths = (
{
closed = 1;
nodes = (
"449 0 LINE",
"533 0 LINE",
"242 375 LINE",
"173 359 LINE"
);
},
{
closed = 1;
nodes = (
"40 0 LINE",
"115 0 LINE",
"115 700 LINE",
"40 700 LINE"
);
},
{
closed = 1;
nodes = (
"66 654 LINE",
"236 654 LINE SMOOTH",
"315 654 OFFCURVE",
"362 604 OFFCURVE",
"362 536 CURVE SMOOTH",
"362 435 OFFCURVE",
"301 377 OFFCURVE",
"191 377 CURVE SMOOTH",
"88 377 LINE",
"88 342 LINE",
"162 342 LINE SMOOTH",
"315 342 OFFCURVE",
"452 389 OFFCURVE",
"452 553 CURVE SMOOTH",
"452 649 OFFCURVE",
"368 700 OFFCURVE",
"265 700 CURVE SMOOTH",
"66 700 LINE"
);
}
);
width = 573;
},
{
backgroundImage = {
crop = "{{0, 0}, {198.906, 37.715}}";
imagePath = "palatino-source/members.jpg";
transform = "{34.40389, 0, 0, 34.40389, -4047, 908}";
};
layerId = "3EDEE92B-4D9D-4D9A-9438-63C2E33416C1";
paths = (
{
closed = 1;
nodes = (
"449 0 LINE",
"533 0 LINE",
"242 375 LINE",
"173 359 LINE"
);
},
{
closed = 1;
nodes = (
"40 0 LINE",
"115 0 LINE",
"115 700 LINE",
"40 700 LINE"
);
},
{
closed = 1;
nodes = (
"66 654 LINE",
"236 654 LINE SMOOTH",
"315 654 OFFCURVE",
"362 604 OFFCURVE",
"362 536 CURVE SMOOTH",
"362 435 OFFCURVE",
"301 377 OFFCURVE",
"191 377 CURVE SMOOTH",
"88 377 LINE",
"88 342 LINE",
"162 342 LINE SMOOTH",
"315 342 OFFCURVE",
"452 389 OFFCURVE",
"452 553 CURVE SMOOTH",
"452 649 OFFCURVE",
"368 700 OFFCURVE",
"265 700 CURVE SMOOTH",
"66 700 LINE"
);
}
);
width = 573;
}
);
unicode = 0052;
},
{
color = 0;
glyphname = S;
lastChange = "2020-11-23 16:23:43 +0000";
layers = (
{
backgroundImage = {
crop = "{{0, 0}, {198.906, 37.715}}";
imagePath = "palatino-source/members.jpg";
locked = "1";
transform = "{34.063, 0, 0, 34.063, -4591, -384}";
};
layerId = "A2204D38-078E-49A4-B70C-87904FFF8E34";
paths = (
{
closed = 1;
nodes = (
"65 110 LINE",
"40 31 LINE",
"62 16 OFFCURVE",
"124 -10 OFFCURVE",
"205 -10 CURVE SMOOTH",
"352 -10 OFFCURVE",
"475 66 OFFCURVE",
"475 219 CURVE SMOOTH",
"475 318 OFFCURVE",
"432 368 OFFCURVE",
"299 399 CURVE SMOOTH",
"156 432 OFFCURVE",
"124 473 OFFCURVE",
"124 537 CURVE SMOOTH",
"124 604 OFFCURVE",
"165 673 OFFCURVE",
"268 673 CURVE SMOOTH",
"330 673 OFFCURVE",
"387 637 OFFCURVE",
"420 603 CURVE",
"428 603 LINE",
"447 672 LINE",
"423 686 OFFCURVE",
"363 710 OFFCURVE",
"277 710 CURVE SMOOTH",
"192 710 OFFCURVE",
"56 670 OFFCURVE",
"56 518 CURVE SMOOTH",
"56 425 OFFCURVE",
"95 370 OFFCURVE",
"237 330 CURVE SMOOTH",
"365 294 OFFCURVE",
"395 252 OFFCURVE",
"395 195 CURVE SMOOTH",
"395 83 OFFCURVE",
"320 35 OFFCURVE",
"232 35 CURVE SMOOTH",
"156 35 OFFCURVE",
"98 84 OFFCURVE",
"72 110 CURVE"
);
}
);
width = 515;
},
{
backgroundImage = {
crop = "{{0, 0}, {198.906, 37.715}}";
imagePath = "palatino-source/members.jpg";
locked = "1";
transform = "{34.063, 0, 0, 34.063, -4591, -384}";
};
layerId = "3EDEE92B-4D9D-4D9A-9438-63C2E33416C1";
paths = (
{
closed = 1;
nodes = (
"65 110 LINE",
"40 31 LINE",
"62 16 OFFCURVE",
"124 -10 OFFCURVE",
"205 -10 CURVE SMOOTH",
"352 -10 OFFCURVE",
"475 66 OFFCURVE",
"475 219 CURVE SMOOTH",
"475 318 OFFCURVE",
"432 368 OFFCURVE",
"299 399 CURVE SMOOTH",
"156 432 OFFCURVE",
"124 473 OFFCURVE",
"124 537 CURVE SMOOTH",
"124 604 OFFCURVE",
"165 673 OFFCURVE",
"268 673 CURVE SMOOTH",
"330 673 OFFCURVE",
"387 637 OFFCURVE",
"420 603 CURVE",
"428 603 LINE",
"447 672 LINE",
"423 686 OFFCURVE",
"363 710 OFFCURVE",
"277 710 CURVE SMOOTH",
"192 710 OFFCURVE",
"56 670 OFFCURVE",
"56 518 CURVE SMOOTH",
"56 425 OFFCURVE",
"95 370 OFFCURVE",
"237 330 CURVE SMOOTH",
"365 294 OFFCURVE",
"395 252 OFFCURVE",
"395 195 CURVE SMOOTH",
"395 83 OFFCURVE",
"320 35 OFFCURVE",
"232 35 CURVE SMOOTH",
"156 35 OFFCURVE",
"98 84 OFFCURVE",
"72 110 CURVE"
);
}
);
width = 515;
}
);
unicode = 0053;
},
{
color = 0;
glyphname = T;
lastChange = "2020-11-23 16:23:43 +0000";
layers = (
{
background = {
paths = (
{
closed = 1;
nodes = (
"413 0 LINE",
"413 700 LINE",
"338 700 LINE",
"338 0 LINE"
);
},
{
closed = 1;
nodes = (
"40 700 LINE",
"40 640 LINE",
"711 640 LINE",
"711 700 LINE"
);
}
);
};
layerId = "A2204D38-078E-49A4-B70C-87904FFF8E34";
paths = (
{
closed = 1;
nodes = (
"413 0 LINE",
"413 700 LINE",
"338 700 LINE",
"338 0 LINE"
);
},
{
closed = 1;
nodes = (
"40 700 LINE",
"40 640 LINE",
"711 640 LINE",
"711 700 LINE"
);
}
);
width = 751;
},
{
background = {
paths = (
{
closed = 1;
nodes = (
"413 0 LINE",
"413 700 LINE",
"338 700 LINE",
"338 0 LINE"
);
},
{
closed = 1;
nodes = (
"40 700 LINE",
"40 640 LINE",
"711 640 LINE",
"711 700 LINE"
);
}
);
};
layerId = "3EDEE92B-4D9D-4D9A-9438-63C2E33416C1";
paths = (
{
closed = 1;
nodes = (
"413 0 LINE",
"413 700 LINE",
"338 700 LINE",
"338 0 LINE"
);
},
{
closed = 1;
nodes = (
"40 700 LINE",
"40 640 LINE",
"711 640 LINE",
"711 700 LINE"
);
}
);
width = 751;
}
);
unicode = 0054;
},
{
color = 0;
glyphname = U;
lastChange = "2020-11-23 16:23:43 +0000";
layers = (
{
backgroundImage = {
crop = "{{0, 0}, {294, 68.104}}";
imagePath = "palatino-source/alphabet.jpg";
locked = "1";
transform = "{72.664, 0, 0, 72.664, -14176, -3637}";
};
layerId = "A2204D38-078E-49A4-B70C-87904FFF8E34";
paths = (
{
closed = 1;
nodes = (
"490 254 LINE SMOOTH",
"490 95 OFFCURVE",
"428 48 OFFCURVE",
"295 48 CURVE SMOOTH",
"175 48 OFFCURVE",
"115 95 OFFCURVE",
"115 254 CURVE SMOOTH",
"115 700 LINE",
"40 700 LINE",
"40 259 LINE SMOOTH",
"40 63 OFFCURVE",
"107 -13 OFFCURVE",
"295 -13 CURVE SMOOTH",
"459 -13 OFFCURVE",
"555 60 OFFCURVE",
"555 259 CURVE SMOOTH",
"555 700 LINE",
"490 700 LINE"
);
}
);
width = 595;
},
{
backgroundImage = {
crop = "{{0, 0}, {294, 68.104}}";
imagePath = "palatino-source/alphabet.jpg";
locked = "1";
transform = "{72.664, 0, 0, 72.664, -14176, -3637}";
};
layerId = "3EDEE92B-4D9D-4D9A-9438-63C2E33416C1";
paths = (
{
closed = 1;
nodes = (
"490 254 LINE SMOOTH",
"490 95 OFFCURVE",
"428 48 OFFCURVE",
"295 48 CURVE SMOOTH",
"175 48 OFFCURVE",
"115 95 OFFCURVE",
"115 254 CURVE SMOOTH",
"115 700 LINE",
"40 700 LINE",
"40 259 LINE SMOOTH",
"40 63 OFFCURVE",
"107 -13 OFFCURVE",
"295 -13 CURVE SMOOTH",
"459 -13 OFFCURVE",
"555 60 OFFCURVE",
"555 259 CURVE SMOOTH",
"555 700 LINE",
"490 700 LINE"
);
}
);
width = 595;
}
);
unicode = 0055;
},
{
color = 0;
glyphname = V;
lastChange = "2020-11-23 16:23:43 +0000";
layers = (
{
backgroundImage = {
crop = "{{0, 0}, {294, 68.104}}";
imagePath = "palatino-source/alphabet.jpg";
locked = "1";
transform = "{72.664, 0, 0, 72.664, -14902, -3627}";
};
layerId = "A2204D38-078E-49A4-B70C-87904FFF8E34";
paths = (
{
closed = 1;
nodes = (
"314 -8 LINE",
"653 700 LINE",
"595 700 LINE",
"329 135 LINE",
"323 135 LINE",
"123 700 LINE",
"31 700 LINE",
"279 -8 LINE"
);
}
);
width = 693;
},
{
backgroundImage = {
crop = "{{0, 0}, {294, 68.104}}";
imagePath = "palatino-source/alphabet.jpg";
locked = "1";
transform = "{72.664, 0, 0, 72.664, -14902, -3627}";
};
layerId = "3EDEE92B-4D9D-4D9A-9438-63C2E33416C1";
paths = (
{
closed = 1;
nodes = (
"314 -8 LINE",
"653 700 LINE",
"595 700 LINE",
"329 135 LINE",
"323 135 LINE",
"123 700 LINE",
"31 700 LINE",
"279 -8 LINE"
);
}
);
width = 693;
}
);
unicode = 0056;
},
{
color = 0;
glyphname = W;
lastChange = "2020-11-23 16:23:43 +0000";
layers = (
{
backgroundImage = {
crop = "{{0, 0}, {294, 68.104}}";
imagePath = "palatino-source/alphabet.jpg";
locked = "1";
transform = "{72.664, 0, 0, 72.664, -15672, -3627}";
};
layerId = "A2204D38-078E-49A4-B70C-87904FFF8E34";
paths = (
{
closed = 1;
nodes = (
"695 155 LINE",
"683 155 LINE",
"487 700 LINE",
"447 700 LINE",
"219 155 LINE",
"208 155 LINE",
"113 700 LINE",
"40 700 LINE",
"168 0 LINE",
"204 0 LINE",
"454 586 LINE",
"664 0 LINE",
"700 0 LINE",
"892 700 LINE",
"834 700 LINE"
);
}
);
width = 932;
},
{
backgroundImage = {
crop = "{{0, 0}, {294, 68.104}}";
imagePath = "palatino-source/alphabet.jpg";
locked = "1";
transform = "{72.664, 0, 0, 72.664, -15672, -3627}";
};
layerId = "3EDEE92B-4D9D-4D9A-9438-63C2E33416C1";
paths = (
{
closed = 1;
nodes = (
"695 155 LINE",
"683 155 LINE",
"487 700 LINE",
"447 700 LINE",
"219 155 LINE",
"208 155 LINE",
"113 700 LINE",
"40 700 LINE",
"168 0 LINE",
"204 0 LINE",
"454 586 LINE",
"664 0 LINE",
"700 0 LINE",
"892 700 LINE",
"834 700 LINE"
);
}
);
width = 932;
}
);
unicode = 0057;
},
{
color = 0;
glyphname = X;
lastChange = "2020-11-23 16:23:43 +0000";
layers = (
{
backgroundImage = {
crop = "{{0, 0}, {294, 68.104}}";
imagePath = "palatino-source/alphabet.jpg";
transform = "{72.664, 0, 0, 72.664, -16639, -3627}";
};
layerId = "A2204D38-078E-49A4-B70C-87904FFF8E34";
paths = (
{
closed = 1;
nodes = (
"339 386 LINE",
"40 0 LINE",
"129 0 LINE",
"369 350 LINE"
);
},
{
closed = 1;
nodes = (
"608 0 LINE",
"204 700 LINE",
"111 700 LINE",
"514 0 LINE"
);
},
{
closed = 1;
nodes = (
"370 368 LINE",
"623 695 LINE",
"535 695 LINE",
"349 405 LINE"
);
}
);
width = 659;
},
{
backgroundImage = {
crop = "{{0, 0}, {294, 68.104}}";
imagePath = "palatino-source/alphabet.jpg";
transform = "{72.664, 0, 0, 72.664, -16639, -3627}";
};
layerId = "3EDEE92B-4D9D-4D9A-9438-63C2E33416C1";
paths = (
{
closed = 1;
nodes = (
"339 386 LINE",
"40 0 LINE",
"129 0 LINE",
"369 350 LINE"
);
},
{
closed = 1;
nodes = (
"608 0 LINE",
"204 700 LINE",
"111 700 LINE",
"514 0 LINE"
);
},
{
closed = 1;
nodes = (
"370 368 LINE",
"623 695 LINE",
"535 695 LINE",
"349 405 LINE"
);
}
);
width = 659;
}
);
unicode = 0058;
},
{
color = 0;
glyphname = Y;
lastChange = "2020-11-23 16:23:43 +0000";
layers = (
{
backgroundImage = {
crop = "{{0, 0}, {294, 68.104}}";
imagePath = "palatino-source/alphabet.jpg";
locked = "1";
transform = "{72.664, 0, 0, 72.664, -17352, -3627}";
};
layerId = "A2204D38-078E-49A4-B70C-87904FFF8E34";
paths = (
{
closed = 1;
nodes = (
"360 0 LINE",
"360 354 LINE",
"285 354 LINE",
"285 0 LINE"
);
},
{
closed = 1;
nodes = (
"338 293 LINE",
"640 700 LINE",
"572 700 LINE",
"334 371 LINE",
"328 371 LINE",
"122 700 LINE",
"40 700 LINE",
"303 293 LINE"
);
}
);
width = 680;
},
{
backgroundImage = {
crop = "{{0, 0}, {294, 68.104}}";
imagePath = "palatino-source/alphabet.jpg";
locked = "1";
transform = "{72.664, 0, 0, 72.664, -17352, -3627}";
};
layerId = "3EDEE92B-4D9D-4D9A-9438-63C2E33416C1";
paths = (
{
closed = 1;
nodes = (
"360 0 LINE",
"360 354 LINE",
"285 354 LINE",
"285 0 LINE"
);
},
{
closed = 1;
nodes = (
"338 293 LINE",
"640 700 LINE",
"572 700 LINE",
"334 371 LINE",
"328 371 LINE",
"122 700 LINE",
"40 700 LINE",
"303 293 LINE"
);
}
);
width = 680;
}
);
unicode = 0059;
},
{
color = 0;
glyphname = Z;
lastChange = "2020-11-23 16:23:43 +0000";
layers = (
{
backgroundImage = {
crop = "{{0, 0}, {294, 68.104}}";
imagePath = "palatino-source/alphabet.jpg";
locked = "1";
transform = "{72.664, 0, 0, 72.664, -18001, -3627}";
};
layerId = "A2204D38-078E-49A4-B70C-87904FFF8E34";
paths = (
{
closed = 1;
nodes = (
"112 640 LINE",
"580 640 LINE",
"582 700 LINE",
"112 700 LINE"
);
},
{
closed = 1;
nodes = (
"100 0 LINE",
"608 0 LINE",
"611 70 LINE",
"100 70 LINE"
);
},
{
closed = 1;
nodes = (
"50 0 LINE",
"128 0 LINE",
"648 694 LINE",
"644 700 LINE",
"561 700 LINE",
"40 11 LINE"
);
}
);
width = 688;
},
{
backgroundImage = {
crop = "{{0, 0}, {294, 68.104}}";
imagePath = "palatino-source/alphabet.jpg";
locked = "1";
transform = "{72.664, 0, 0, 72.664, -18001, -3627}";
};
layerId = "3EDEE92B-4D9D-4D9A-9438-63C2E33416C1";
paths = (
{
closed = 1;
nodes = (
"112 640 LINE",
"580 640 LINE",
"582 700 LINE",
"112 700 LINE"
);
},
{
closed = 1;
nodes = (
"100 0 LINE",
"608 0 LINE",
"611 70 LINE",
"100 70 LINE"
);
},
{
closed = 1;
nodes = (
"50 0 LINE",
"128 0 LINE",
"648 694 LINE",
"644 700 LINE",
"561 700 LINE",
"40 11 LINE"
);
}
);
width = 688;
}
);
unicode = 005A;
},
{
color = 1;
glyphname = a;
lastChange = "2020-12-03 15:54:31 +0000";
layers = (
{
layerId = "A2204D38-078E-49A4-B70C-87904FFF8E34";
paths = (
{
closed = 1;
nodes = (
"66 410 LINE",
"96 445 OFFCURVE",
"158 490 OFFCURVE",
"241 490 CURVE SMOOTH",
"337 490 OFFCURVE",
"388 433 OFFCURVE",
"388 322 CURVE SMOOTH",
"388 37 LINE",
"388 20 LINE",
"388 0 LINE",
"325 0 LINE",
"325 37 LINE",
"325 302 LINE SMOOTH",
"325 400 OFFCURVE",
"300 450 OFFCURVE",
"215 450 CURVE SMOOTH",
"178 450 OFFCURVE",
"118 427 OFFCURVE",
"88 366 CURVE"
);
},
{
closed = 1;
nodes = (
"347 275 LINE",
"267 259 OFFCURVE",
"107 221 OFFCURVE",
"107 121 CURVE SMOOTH",
"107 73 OFFCURVE",
"144 46 OFFCURVE",
"183 46 CURVE SMOOTH",
"248 46 OFFCURVE",
"315 105 OFFCURVE",
"343 152 CURVE",
"346 122 LINE",
"305 61 OFFCURVE",
"237 -12 OFFCURVE",
"159 -12 CURVE SMOOTH",
"69 -12 OFFCURVE",
"30 47 OFFCURVE",
"30 110 CURVE SMOOTH",
"30 226 OFFCURVE",
"190 271 OFFCURVE",
"347 306 CURVE"
);
},
{
closed = 1;
nodes = (
"88 366 LINE",
"88 366 LINE",
"83 376 LINE",
"66 410 LINE"
);
}
);
width = 418;
},
{
associatedMasterId = "A2204D38-078E-49A4-B70C-87904FFF8E34";
background = {
paths = (
{
closed = 1;
nodes = (
"63 416 LINE",
"104 473 OFFCURVE",
"168 510 OFFCURVE",
"236 510 CURVE SMOOTH",
"349 510 OFFCURVE",
"402 433 OFFCURVE",
"402 337 CURVE SMOOTH",
"402 0 LINE",
"342 0 LINE",
"342 316 LINE",
"342 399 OFFCURVE",
"292 460 OFFCURVE",
"223 460 CURVE SMOOTH",
"179 460 OFFCURVE",
"132 444 OFFCURVE",
"95 398 CURVE"
);
},
{
closed = 1;
nodes = (
"355 288 LINE",
"287 275 OFFCURVE",
"102 232 OFFCURVE",
"102 123 CURVE SMOOTH",
"102 78 OFFCURVE",
"132 45 OFFCURVE",
"195 45 CURVE SMOOTH",
"271 45 OFFCURVE",
"331 126 OFFCURVE",
"354 175 CURVE",
"354 138 LINE",
"311 74 OFFCURVE",
"265 -10 OFFCURVE",
"153 -10 CURVE SMOOTH",
"58 -10 OFFCURVE",
"30 70 OFFCURVE",
"30 118 CURVE SMOOTH",
"30 258 OFFCURVE",
"191 288 OFFCURVE",
"355 322 CURVE"
);
}
);
};
backgroundImage = {
crop = "{{0, 0}, {320, 437}}";
imagePath = "../../Screenshot 2020-10-15 at 11.24.38.png";
locked = "1";
transform = "{1.83102, 0, 0, 1.83102, -73, -186}";
};
layerId = "7BCF6627-4367-41A7-93C7-86B12A22C6E6";
name = "Oct 15 20, 11:30";
paths = (
{
closed = 1;
nodes = (
"63 425 LINE",
"94 461 OFFCURVE",
"162 510 OFFCURVE",
"248 510 CURVE SMOOTH",
"349 510 OFFCURVE",
"402 453 OFFCURVE",
"402 337 CURVE SMOOTH",
"402 0 LINE",
"332 0 LINE",
"332 316 LINE",
"332 413 OFFCURVE",
"296 460 OFFCURVE",
"217 460 CURVE SMOOTH",
"179 460 OFFCURVE",
"117 434 OFFCURVE",
"80 388 CURVE"
);
},
{
closed = 1;
nodes = (
"355 288 LINE",
"271 271 OFFCURVE",
"106 231 OFFCURVE",
"106 127 CURVE SMOOTH",
"106 81 OFFCURVE",
"145 51 OFFCURVE",
"184 51 CURVE SMOOTH",
"252 51 OFFCURVE",
"320 125 OFFCURVE",
"349 174 CURVE",
"354 128 LINE",
"311 64 OFFCURVE",
"240 -10 OFFCURVE",
"159 -10 CURVE SMOOTH",
"65 -10 OFFCURVE",
"24 50 OFFCURVE",
"24 115 CURVE SMOOTH",
"24 236 OFFCURVE",
"191 283 OFFCURVE",
"355 320 CURVE"
);
}
);
width = 447;
},
{
background = {
paths = (
{
closed = 1;
nodes = (
"53 416 LINE",
"94 473 OFFCURVE",
"158 510 OFFCURVE",
"226 510 CURVE SMOOTH",
"339 510 OFFCURVE",
"392 433 OFFCURVE",
"392 337 CURVE SMOOTH",
"392 0 LINE",
"332 0 LINE",
"332 316 LINE",
"332 399 OFFCURVE",
"282 460 OFFCURVE",
"213 460 CURVE SMOOTH",
"169 460 OFFCURVE",
"122 444 OFFCURVE",
"85 398 CURVE"
);
},
{
closed = 1;
nodes = (
"345 288 LINE",
"277 275 OFFCURVE",
"92 232 OFFCURVE",
"92 123 CURVE SMOOTH",
"92 78 OFFCURVE",
"122 45 OFFCURVE",
"185 45 CURVE SMOOTH",
"261 45 OFFCURVE",
"321 126 OFFCURVE",
"344 175 CURVE",
"344 138 LINE",
"301 74 OFFCURVE",
"255 -10 OFFCURVE",
"143 -10 CURVE SMOOTH",
"48 -10 OFFCURVE",
"20 70 OFFCURVE",
"20 118 CURVE SMOOTH",
"20 258 OFFCURVE",
"181 288 OFFCURVE",
"345 322 CURVE"
);
}
);
};
backgroundImage = {
crop = "{{0, 0}, {305.926, 73.749}}";
imagePath = ../pala/pala.png;
locked = "1";
transform = "{82.77348, 0, 0, 82.77348, -1314, -1413}";
};
layerId = "3EDEE92B-4D9D-4D9A-9438-63C2E33416C1";
paths = (
{
closed = 1;
nodes = (
"66 410 LINE",
"96 445 OFFCURVE",
"158 490 OFFCURVE",
"241 490 CURVE SMOOTH",
"337 490 OFFCURVE",
"388 433 OFFCURVE",
"388 322 CURVE SMOOTH",
"388 37 LINE",
"463 20 LINE",
"463 0 LINE",
"319 0 LINE",
"325 37 LINE",
"325 302 LINE SMOOTH",
"325 400 OFFCURVE",
"300 450 OFFCURVE",
"215 450 CURVE SMOOTH",
"178 450 OFFCURVE",
"118 427 OFFCURVE",
"88 366 CURVE"
);
},
{
closed = 1;
nodes = (
"347 275 LINE",
"267 259 OFFCURVE",
"107 221 OFFCURVE",
"107 121 CURVE SMOOTH",
"107 73 OFFCURVE",
"144 46 OFFCURVE",
"183 46 CURVE SMOOTH",
"248 46 OFFCURVE",
"315 105 OFFCURVE",
"343 152 CURVE",
"346 122 LINE",
"305 61 OFFCURVE",
"237 -11 OFFCURVE",
"159 -11 CURVE SMOOTH",
"69 -11 OFFCURVE",
"30 47 OFFCURVE",
"30 110 CURVE SMOOTH",
"30 226 OFFCURVE",
"190 271 OFFCURVE",
"347 306 CURVE"
);
},
{
closed = 1;
nodes = (
"88 366 LINE",
"84 356 LINE",
"70 357 LINE",
"66 410 LINE"
);
}
);
width = 493;
},
{
associatedMasterId = "3EDEE92B-4D9D-4D9A-9438-63C2E33416C1";
background = {
paths = (
{
closed = 1;
nodes = (
"63 416 LINE",
"104 473 OFFCURVE",
"168 510 OFFCURVE",
"236 510 CURVE SMOOTH",
"349 510 OFFCURVE",
"402 433 OFFCURVE",
"402 337 CURVE SMOOTH",
"402 0 LINE",
"342 0 LINE",
"342 316 LINE",
"342 399 OFFCURVE",
"292 460 OFFCURVE",
"223 460 CURVE SMOOTH",
"179 460 OFFCURVE",
"132 444 OFFCURVE",
"95 398 CURVE"
);
},
{
closed = 1;
nodes = (
"355 288 LINE",
"287 275 OFFCURVE",
"102 232 OFFCURVE",
"102 123 CURVE SMOOTH",
"102 78 OFFCURVE",
"132 45 OFFCURVE",
"195 45 CURVE SMOOTH",
"271 45 OFFCURVE",
"331 126 OFFCURVE",
"354 175 CURVE",
"354 138 LINE",
"311 74 OFFCURVE",
"265 -10 OFFCURVE",
"153 -10 CURVE SMOOTH",
"58 -10 OFFCURVE",
"30 70 OFFCURVE",
"30 118 CURVE SMOOTH",
"30 258 OFFCURVE",
"191 288 OFFCURVE",
"355 322 CURVE"
);
}
);
};
backgroundImage = {
crop = "{{0, 0}, {320, 437}}";
imagePath = "../../Screenshot 2020-10-15 at 11.24.38.png";
locked = "1";
transform = "{1.83102, 0, 0, 1.83102, -73, -186}";
};
layerId = "CFA403A6-0876-4B87-9D85-CF7E3A582D40";
name = "Oct 15 20, 11:30";
paths = (
{
closed = 1;
nodes = (
"63 425 LINE",
"94 461 OFFCURVE",
"162 510 OFFCURVE",
"248 510 CURVE SMOOTH",
"349 510 OFFCURVE",
"402 453 OFFCURVE",
"402 337 CURVE SMOOTH",
"402 0 LINE",
"332 0 LINE",
"332 316 LINE",
"332 413 OFFCURVE",
"296 460 OFFCURVE",
"217 460 CURVE SMOOTH",
"179 460 OFFCURVE",
"117 434 OFFCURVE",
"80 388 CURVE"
);
},
{
closed = 1;
nodes = (
"355 288 LINE",
"271 271 OFFCURVE",
"106 231 OFFCURVE",
"106 127 CURVE SMOOTH",
"106 81 OFFCURVE",
"145 51 OFFCURVE",
"184 51 CURVE SMOOTH",
"252 51 OFFCURVE",
"320 125 OFFCURVE",
"349 174 CURVE",
"354 128 LINE",
"311 64 OFFCURVE",
"240 -10 OFFCURVE",
"159 -10 CURVE SMOOTH",
"65 -10 OFFCURVE",
"24 50 OFFCURVE",
"24 115 CURVE SMOOTH",
"24 236 OFFCURVE",
"191 283 OFFCURVE",
"355 320 CURVE"
);
}
);
width = 447;
},
{
associatedMasterId = "3EDEE92B-4D9D-4D9A-9438-63C2E33416C1";
background = {
paths = (
{
closed = 1;
nodes = (
"59 416 LINE",
"100 473 OFFCURVE",
"164 510 OFFCURVE",
"232 510 CURVE SMOOTH",
"345 510 OFFCURVE",
"398 433 OFFCURVE",
"398 337 CURVE SMOOTH",
"398 0 LINE",
"338 0 LINE",
"338 316 LINE",
"338 399 OFFCURVE",
"288 460 OFFCURVE",
"219 460 CURVE SMOOTH",
"175 460 OFFCURVE",
"128 444 OFFCURVE",
"91 398 CURVE"
);
},
{
closed = 1;
nodes = (
"351 288 LINE",
"283 275 OFFCURVE",
"98 232 OFFCURVE",
"98 123 CURVE SMOOTH",
"98 78 OFFCURVE",
"128 45 OFFCURVE",
"191 45 CURVE SMOOTH",
"267 45 OFFCURVE",
"327 126 OFFCURVE",
"350 175 CURVE",
"350 138 LINE",
"307 74 OFFCURVE",
"261 -10 OFFCURVE",
"149 -10 CURVE SMOOTH",
"54 -10 OFFCURVE",
"26 70 OFFCURVE",
"26 118 CURVE SMOOTH",
"26 258 OFFCURVE",
"187 288 OFFCURVE",
"351 322 CURVE"
);
}
);
};
backgroundImage = {
crop = "{{0, 0}, {305.926, 73.749}}";
imagePath = ../pala/pala.png;
locked = "1";
transform = "{82.77348, 0, 0, 82.77348, -1308, -1413}";
};
layerId = "5BC199BB-61E6-42F5-8CAB-8EB0595BC485";
name = "Dec 3 20, 14:07";
paths = (
{
closed = 1;
nodes = (
"72 410 LINE",
"102 445 OFFCURVE",
"168 490 OFFCURVE",
"251 490 CURVE SMOOTH",
"347 490 OFFCURVE",
"398 433 OFFCURVE",
"398 322 CURVE SMOOTH",
"398 37 LINE",
"473 20 LINE",
"473 0 LINE",
"325 0 LINE",
"331 37 LINE",
"331 302 LINE",
"331 395 OFFCURVE",
"296 440 OFFCURVE",
"221 440 CURVE SMOOTH",
"184 440 OFFCURVE",
"130 410 OFFCURVE",
"94 366 CURVE"
);
},
{
closed = 1;
nodes = (
"353 275 LINE",
"273 259 OFFCURVE",
"115 221 OFFCURVE",
"115 121 CURVE SMOOTH",
"115 77 OFFCURVE",
"152 48 OFFCURVE",
"189 48 CURVE SMOOTH",
"254 48 OFFCURVE",
"319 119 OFFCURVE",
"347 166 CURVE",
"352 122 LINE",
"311 61 OFFCURVE",
"243 -10 OFFCURVE",
"165 -10 CURVE SMOOTH",
"75 -10 OFFCURVE",
"36 47 OFFCURVE",
"36 110 CURVE SMOOTH",
"36 226 OFFCURVE",
"196 271 OFFCURVE",
"353 306 CURVE"
);
},
{
closed = 1;
nodes = (
"94 366 LINE",
"90 356 LINE",
"76 357 LINE",
"72 410 LINE"
);
}
);
width = 509;
},
{
associatedMasterId = "3EDEE92B-4D9D-4D9A-9438-63C2E33416C1";
background = {
paths = (
{
closed = 1;
nodes = (
"59 416 LINE",
"100 473 OFFCURVE",
"164 510 OFFCURVE",
"232 510 CURVE SMOOTH",
"345 510 OFFCURVE",
"398 433 OFFCURVE",
"398 337 CURVE SMOOTH",
"398 0 LINE",
"338 0 LINE",
"338 316 LINE",
"338 399 OFFCURVE",
"288 460 OFFCURVE",
"219 460 CURVE SMOOTH",
"175 460 OFFCURVE",
"128 444 OFFCURVE",
"91 398 CURVE"
);
},
{
closed = 1;
nodes = (
"351 288 LINE",
"283 275 OFFCURVE",
"98 232 OFFCURVE",
"98 123 CURVE SMOOTH",
"98 78 OFFCURVE",
"128 45 OFFCURVE",
"191 45 CURVE SMOOTH",
"267 45 OFFCURVE",
"327 126 OFFCURVE",
"350 175 CURVE",
"350 138 LINE",
"307 74 OFFCURVE",
"261 -10 OFFCURVE",
"149 -10 CURVE SMOOTH",
"54 -10 OFFCURVE",
"26 70 OFFCURVE",
"26 118 CURVE SMOOTH",
"26 258 OFFCURVE",
"187 288 OFFCURVE",
"351 322 CURVE"
);
}
);
};
backgroundImage = {
crop = "{{0, 0}, {305.926, 73.749}}";
imagePath = ../pala/pala.png;
locked = "1";
transform = "{82.77348, 0, 0, 82.77348, -1308, -1413}";
};
layerId = "83C95EE3-BDD5-49E9-A3BC-71176E07CD37";
name = "Dec 3 20, 14:11";
paths = (
{
closed = 1;
nodes = (
"72 410 LINE",
"102 445 OFFCURVE",
"164 490 OFFCURVE",
"247 490 CURVE SMOOTH",
"343 490 OFFCURVE",
"394 433 OFFCURVE",
"394 322 CURVE SMOOTH",
"394 37 LINE",
"469 20 LINE",
"469 0 LINE",
"325 0 LINE",
"331 37 LINE",
"331 302 LINE SMOOTH",
"331 400 OFFCURVE",
"306 450 OFFCURVE",
"221 450 CURVE SMOOTH",
"184 450 OFFCURVE",
"124 427 OFFCURVE",
"94 366 CURVE"
);
},
{
closed = 1;
nodes = (
"353 275 LINE",
"273 259 OFFCURVE",
"113 221 OFFCURVE",
"113 121 CURVE SMOOTH",
"113 73 OFFCURVE",
"150 46 OFFCURVE",
"189 46 CURVE SMOOTH",
"254 46 OFFCURVE",
"321 105 OFFCURVE",
"349 152 CURVE",
"352 122 LINE",
"311 61 OFFCURVE",
"243 -10 OFFCURVE",
"165 -10 CURVE SMOOTH",
"75 -10 OFFCURVE",
"36 47 OFFCURVE",
"36 110 CURVE SMOOTH",
"36 226 OFFCURVE",
"196 271 OFFCURVE",
"353 306 CURVE"
);
},
{
closed = 1;
nodes = (
"94 366 LINE",
"90 356 LINE",
"76 357 LINE",
"72 410 LINE"
);
}
);
width = 505;
}
);
leftMetricsKey = o;
rightMetricsKey = o;
unicode = 0061;
},
{
color = 1;
glyphname = b;
lastChange = "2020-12-03 16:27:04 +0000";
layers = (
{
backgroundImage = {
crop = "{{0, 0}, {420, 160.83}}";
imagePath = "palatino-source/42439316544_afda35a227_5k copy.jpg";
locked = "1";
transform = "{74.21874, 0, 0, 74.21874, -3417, -3717}";
};
layerId = "A2204D38-078E-49A4-B70C-87904FFF8E34";
paths = (
{
closed = 1;
nodes = (
"55 743 LINE",
"55 698 LINE",
"55 27 LINE",
"55 8 LINE",
"55 0 LINE",
"118 0 LINE",
"118 762 LINE",
"55 762 LINE"
);
},
{
closed = 1;
nodes = (
"99 357 OFFCURVE",
"202 431 OFFCURVE",
"278 431 CURVE SMOOTH",
"352 431 OFFCURVE",
"434 376 OFFCURVE",
"434 248 CURVE SMOOTH",
"434 85 OFFCURVE",
"307 34 OFFCURVE",
"230 34 CURVE SMOOTH",
"160 34 OFFCURVE",
"125 72 OFFCURVE",
"90 120 CURVE",
"95 34 LINE",
"117 14 OFFCURVE",
"162 -12 OFFCURVE",
"225 -12 CURVE SMOOTH",
"312 -12 OFFCURVE",
"512 98 OFFCURVE",
"512 268 CURVE SMOOTH",
"512 407 OFFCURVE",
"439 488 OFFCURVE",
"323 488 CURVE SMOOTH",
"229 488 OFFCURVE",
"136 408 OFFCURVE",
"99 362 CURVE",
"99 256 LINE"
);
}
);
width = 542;
},
{
backgroundImage = {
crop = "{{0, 0}, {305.926, 73.749}}";
imagePath = ../pala/pala.png;
transform = "{82.773, 0, 0, 82.773, -1809, -1413}";
};
layerId = "3EDEE92B-4D9D-4D9A-9438-63C2E33416C1";
paths = (
{
closed = 1;
nodes = (
"35 703 LINE",
"115 698 LINE",
"115 27 LINE",
"95 8 LINE",
"100 -12 LINE",
"178 18 LINE",
"178 762 LINE",
"25 722 LINE"
);
},
{
closed = 1;
nodes = (
"159 357 OFFCURVE",
"262 431 OFFCURVE",
"338 431 CURVE SMOOTH",
"412 431 OFFCURVE",
"494 376 OFFCURVE",
"494 248 CURVE SMOOTH",
"494 85 OFFCURVE",
"367 34 OFFCURVE",
"290 34 CURVE SMOOTH",
"220 34 OFFCURVE",
"185 72 OFFCURVE",
"150 120 CURVE",
"155 34 LINE",
"177 14 OFFCURVE",
"222 -12 OFFCURVE",
"285 -12 CURVE SMOOTH",
"372 -12 OFFCURVE",
"572 98 OFFCURVE",
"572 268 CURVE SMOOTH",
"572 407 OFFCURVE",
"499 488 OFFCURVE",
"383 488 CURVE SMOOTH",
"289 488 OFFCURVE",
"196 408 OFFCURVE",
"159 362 CURVE",
"159 256 LINE"
);
}
);
width = 602;
}
);
leftMetricsKey = n;
rightMetricsKey = o;
unicode = 0062;
},
{
color = 1;
glyphname = c;
lastChange = "2020-12-03 15:03:58 +0000";
layers = (
{
background = {
paths = (
{
closed = 1;
nodes = (
"428 348 LINE",
"444 450 LINE",
"410 475 OFFCURVE",
"351 490 OFFCURVE",
"291 490 CURVE SMOOTH",
"144 490 OFFCURVE",
"30 377 OFFCURVE",
"30 222 CURVE SMOOTH",
"30 93 OFFCURVE",
"132 -12 OFFCURVE",
"278 -12 CURVE SMOOTH",
"346 -12 OFFCURVE",
"404 19 OFFCURVE",
"426 34 CURVE",
"433 72 LINE",
"430 72 LINE",
"413 58 OFFCURVE",
"374 33 OFFCURVE",
"291 33 CURVE SMOOTH",
"176 33 OFFCURVE",
"108 147 OFFCURVE",
"108 248 CURVE SMOOTH",
"108 368 OFFCURVE",
"171 445 OFFCURVE",
"282 445 CURVE SMOOTH",
"343 445 OFFCURVE",
"386 398 OFFCURVE",
"394 348 CURVE"
);
}
);
};
layerId = "A2204D38-078E-49A4-B70C-87904FFF8E34";
paths = (
{
closed = 1;
nodes = (
"418 373 LINE",
"433 450 LINE",
"399 475 OFFCURVE",
"351 490 OFFCURVE",
"291 490 CURVE SMOOTH",
"144 490 OFFCURVE",
"30 377 OFFCURVE",
"30 222 CURVE SMOOTH",
"30 93 OFFCURVE",
"132 -12 OFFCURVE",
"278 -12 CURVE SMOOTH",
"346 -12 OFFCURVE",
"404 19 OFFCURVE",
"426 34 CURVE",
"433 72 LINE",
"430 72 LINE",
"413 58 OFFCURVE",
"374 33 OFFCURVE",
"291 33 CURVE SMOOTH",
"176 33 OFFCURVE",
"108 147 OFFCURVE",
"108 248 CURVE SMOOTH",
"108 368 OFFCURVE",
"171 445 OFFCURVE",
"282 445 CURVE SMOOTH",
"343 445 OFFCURVE",
"389 408 OFFCURVE",
"415 373 CURVE"
);
}
);
width = 463;
},
{
background = {
paths = (
{
closed = 1;
nodes = (
"104 367 OFFCURVE",
"153 455 OFFCURVE",
"248 455 CURVE SMOOTH",
"331 455 OFFCURVE",
"375 395 OFFCURVE",
"375 308 CURVE",
"364 297 LINE",
"104 293 LINE"
);
},
{
closed = 1;
nodes = (
"440 308 LINE",
"440 421 OFFCURVE",
"363 490 OFFCURVE",
"251 490 CURVE SMOOTH",
"136 490 OFFCURVE",
"30 384 OFFCURVE",
"30 215 CURVE SMOOTH",
"30 82 OFFCURVE",
"124 -12 OFFCURVE",
"248 -12 CURVE SMOOTH",
"345 -12 OFFCURVE",
"402 31 OFFCURVE",
"425 54 CURVE",
"425 85 LINE",
"421 88 LINE",
"394 61 OFFCURVE",
"344 39 OFFCURVE",
"278 39 CURVE SMOOTH",
"156 39 OFFCURVE",
"104 115 OFFCURVE",
"104 246 CURVE",
"373 255 LINE"
);
}
);
};
backgroundImage = {
crop = "{{0, 0}, {305.926, 73.749}}";
imagePath = ../pala/pala.png;
locked = "1";
transform = "{82.773, 0, 0, 82.773, -2484, -1413}";
};
layerId = "3EDEE92B-4D9D-4D9A-9438-63C2E33416C1";
paths = (
{
closed = 1;
nodes = (
"426 348 LINE",
"442 450 LINE",
"408 475 OFFCURVE",
"351 490 OFFCURVE",
"291 490 CURVE SMOOTH",
"118 490 OFFCURVE",
"30 373 OFFCURVE",
"30 222 CURVE SMOOTH",
"30 71 OFFCURVE",
"134 -12 OFFCURVE",
"248 -12 CURVE SMOOTH",
"346 -12 OFFCURVE",
"404 29 OFFCURVE",
"426 44 CURVE",
"433 82 LINE",
"430 82 LINE",
"413 68 OFFCURVE",
"374 36 OFFCURVE",
"291 36 CURVE SMOOTH",
"150 36 OFFCURVE",
"104 148 OFFCURVE",
"104 248 CURVE SMOOTH",
"104 368 OFFCURVE",
"171 456 OFFCURVE",
"282 454 CURVE SMOOTH",
"355 453 OFFCURVE",
"387 412 OFFCURVE",
"402 348 CURVE"
);
}
);
width = 462;
}
);
leftMetricsKey = o;
unicode = 0063;
},
{
color = 1;
glyphname = d;
lastChange = "2020-12-03 16:27:04 +0000";
layers = (
{
background = {
paths = (
{
closed = 1;
nodes = (
"470 0 LINE",
"470 762 LINE",
"410 762 LINE",
"410 0 LINE"
);
},
{
closed = 1;
nodes = (
"384 73 OFFCURVE",
"325 32 OFFCURVE",
"261 32 CURVE SMOOTH",
"180 32 OFFCURVE",
"113 110 OFFCURVE",
"113 237 CURVE SMOOTH",
"113 381 OFFCURVE",
"160 468 OFFCURVE",
"298 468 CURVE SMOOTH",
"369 468 OFFCURVE",
"415 419 OFFCURVE",
"428 384 CURVE",
"428 472 LINE",
"405 491 OFFCURVE",
"361 510 OFFCURVE",
"294 510 CURVE SMOOTH",
"186 510 OFFCURVE",
"43 397 OFFCURVE",
"43 216 CURVE SMOOTH",
"43 67 OFFCURVE",
"125 -10 OFFCURVE",
"253 -10 CURVE SMOOTH",
"335 -10 OFFCURVE",
"403 56 OFFCURVE",
"427 90 CURVE",
"427 132 LINE"
);
}
);
};
layerId = "A2204D38-078E-49A4-B70C-87904FFF8E34";
paths = (
{
closed = 1;
nodes = (
"447 230 LINE",
"411 152 OFFCURVE",
"357 38 OFFCURVE",
"252 38 CURVE SMOOTH",
"158 38 OFFCURVE",
"104 129 OFFCURVE",
"104 225 CURVE SMOOTH",
"104 365 OFFCURVE",
"188 435 OFFCURVE",
"268 435 CURVE SMOOTH",
"369 435 OFFCURVE",
"414 356 OFFCURVE",
"429 323 CURVE",
"459 392 LINE",
"439 422 OFFCURVE",
"385 490 OFFCURVE",
"306 490 CURVE SMOOTH",
"223 490 OFFCURVE",
"30 408 OFFCURVE",
"30 205 CURVE SMOOTH",
"30 60 OFFCURVE",
"107 -12 OFFCURVE",
"230 -12 CURVE SMOOTH",
"335 -12 OFFCURVE",
"411 85 OFFCURVE",
"447 131 CURVE"
);
},
{
closed = 1;
nodes = (
"427 703 LINE",
"427 698 LINE",
"427 0 LINE",
"490 0 LINE",
"490 26 LINE",
"490 52 LINE",
"490 762 LINE",
"427 762 LINE"
);
}
);
width = 545;
},
{
backgroundImage = {
crop = "{{0, 0}, {305.926, 73.749}}";
imagePath = ../pala/pala.png;
locked = "1";
transform = "{82.773, 0, 0, 82.773, -2984, -1413}";
};
layerId = "3EDEE92B-4D9D-4D9A-9438-63C2E33416C1";
paths = (
{
closed = 1;
nodes = (
"447 230 LINE",
"411 152 OFFCURVE",
"357 38 OFFCURVE",
"252 38 CURVE SMOOTH",
"158 38 OFFCURVE",
"104 129 OFFCURVE",
"104 225 CURVE SMOOTH",
"104 365 OFFCURVE",
"188 435 OFFCURVE",
"268 435 CURVE SMOOTH",
"369 435 OFFCURVE",
"414 356 OFFCURVE",
"429 323 CURVE",
"459 392 LINE",
"439 422 OFFCURVE",
"385 490 OFFCURVE",
"306 490 CURVE SMOOTH",
"223 490 OFFCURVE",
"30 408 OFFCURVE",
"30 205 CURVE SMOOTH",
"30 60 OFFCURVE",
"107 -12 OFFCURVE",
"230 -12 CURVE SMOOTH",
"335 -12 OFFCURVE",
"411 85 OFFCURVE",
"447 131 CURVE"
);
},
{
closed = 1;
nodes = (
"347 703 LINE",
"427 698 LINE",
"427 0 LINE",
"565 0 LINE",
"565 20 LINE",
"490 37 LINE",
"490 762 LINE",
"337 722 LINE"
);
}
);
width = 590;
}
);
leftMetricsKey = o;
rightMetricsKey = n;
unicode = 0064;
},
{
color = 1;
glyphname = e;
lastChange = "2020-12-03 15:57:20 +0000";
layers = (
{
layerId = "A2204D38-078E-49A4-B70C-87904FFF8E34";
paths = (
{
closed = 1;
nodes = (
"106 367 OFFCURVE",
"153 455 OFFCURVE",
"248 455 CURVE SMOOTH",
"331 455 OFFCURVE",
"375 395 OFFCURVE",
"375 308 CURVE",
"364 297 LINE",
"106 293 LINE"
);
},
{
closed = 1;
nodes = (
"440 308 LINE",
"440 421 OFFCURVE",
"363 490 OFFCURVE",
"251 490 CURVE SMOOTH",
"136 490 OFFCURVE",
"30 384 OFFCURVE",
"30 215 CURVE SMOOTH",
"30 82 OFFCURVE",
"124 -12 OFFCURVE",
"248 -12 CURVE SMOOTH",
"345 -12 OFFCURVE",
"402 31 OFFCURVE",
"425 54 CURVE",
"425 85 LINE",
"421 88 LINE",
"394 61 OFFCURVE",
"344 39 OFFCURVE",
"278 39 CURVE SMOOTH",
"158 39 OFFCURVE",
"106 130 OFFCURVE",
"106 246 CURVE",
"373 255 LINE"
);
}
);
width = 470;
},
{
backgroundImage = {
crop = "{{0, 0}, {305.926, 73.749}}";
imagePath = ../pala/pala.png;
locked = "1";
transform = "{82.773, 0, 0, 82.773, -3614, -1413}";
};
layerId = "3EDEE92B-4D9D-4D9A-9438-63C2E33416C1";
paths = (
{
closed = 1;
nodes = (
"104 367 OFFCURVE",
"153 455 OFFCURVE",
"248 455 CURVE SMOOTH",
"331 455 OFFCURVE",
"375 395 OFFCURVE",
"375 308 CURVE",
"364 297 LINE",
"104 293 LINE"
);
},
{
closed = 1;
nodes = (
"440 308 LINE",
"440 421 OFFCURVE",
"363 490 OFFCURVE",
"251 490 CURVE SMOOTH",
"136 490 OFFCURVE",
"30 384 OFFCURVE",
"30 215 CURVE SMOOTH",
"30 82 OFFCURVE",
"124 -12 OFFCURVE",
"248 -12 CURVE SMOOTH",
"345 -12 OFFCURVE",
"402 31 OFFCURVE",
"425 54 CURVE",
"425 85 LINE",
"421 88 LINE",
"394 61 OFFCURVE",
"344 39 OFFCURVE",
"278 39 CURVE SMOOTH",
"156 39 OFFCURVE",
"104 115 OFFCURVE",
"104 246 CURVE",
"373 255 LINE"
);
}
);
width = 465;
},
{
associatedMasterId = "3EDEE92B-4D9D-4D9A-9438-63C2E33416C1";
backgroundImage = {
crop = "{{0, 0}, {305.926, 73.749}}";
imagePath = ../pala/pala.png;
locked = "1";
transform = "{82.773, 0, 0, 82.773, -3614, -1413}";
};
layerId = "817A4564-64A0-4D36-8E8D-F6BB38019082";
name = "Dec 3 20, 16:53";
paths = (
{
closed = 1;
nodes = (
"106 367 OFFCURVE",
"153 455 OFFCURVE",
"248 455 CURVE SMOOTH",
"331 455 OFFCURVE",
"375 395 OFFCURVE",
"375 308 CURVE",
"364 297 LINE",
"106 293 LINE"
);
},
{
closed = 1;
nodes = (
"440 308 LINE",
"440 421 OFFCURVE",
"363 490 OFFCURVE",
"251 490 CURVE SMOOTH",
"136 490 OFFCURVE",
"30 384 OFFCURVE",
"30 215 CURVE SMOOTH",
"30 82 OFFCURVE",
"124 -12 OFFCURVE",
"248 -12 CURVE SMOOTH",
"345 -12 OFFCURVE",
"402 31 OFFCURVE",
"425 54 CURVE",
"425 85 LINE",
"421 88 LINE",
"394 61 OFFCURVE",
"344 39 OFFCURVE",
"278 39 CURVE SMOOTH",
"158 39 OFFCURVE",
"106 130 OFFCURVE",
"106 246 CURVE",
"373 255 LINE"
);
}
);
width = 470;
}
);
unicode = 0065;
},
{
color = 1;
glyphname = egrave;
lastChange = "2020-12-03 16:26:56 +0000";
layers = (
{
background = {
paths = (
{
closed = 1;
nodes = (
"101 395 OFFCURVE",
"167 463 OFFCURVE",
"246 463 CURVE",
"347 463 OFFCURVE",
"369 362 OFFCURVE",
"369 306 CURVE",
"101 306 LINE"
);
},
{
closed = 1;
nodes = (
"331 -10 OFFCURVE",
"396 33 OFFCURVE",
"437 89 CURVE",
"399 89 LINE",
"361 57 OFFCURVE",
"315 43 OFFCURVE",
"266 43 CURVE SMOOTH",
"166 43 OFFCURVE",
"101 164 OFFCURVE",
"101 268 CURVE",
"350 268 LINE",
"439 314 LINE",
"439 412 OFFCURVE",
"375 510 OFFCURVE",
"256 510 CURVE SMOOTH",
"136 510 OFFCURVE",
"32 399 OFFCURVE",
"32 263 CURVE SMOOTH",
"32 84 OFFCURVE",
"131 -10 OFFCURVE",
"246 -10 CURVE SMOOTH"
);
}
);
};
backgroundImage = {
crop = "{{0, 0}, {584.826, 615}}";
imagePath = 43107733732_e84851c66c_5k.jpg;
locked = "1";
transform = "{37.925, 0, 0, 37.925, -16987, -13383}";
};
layerId = "A2204D38-078E-49A4-B70C-87904FFF8E34";
paths = (
{
closed = 1;
nodes = (
"343 563 LINE",
"190 647 LINE",
"166 609 LINE",
"320 526 LINE"
);
},
{
closed = 1;
nodes = (
"107 363 OFFCURVE",
"153 443 OFFCURVE",
"248 443 CURVE SMOOTH",
"325 443 OFFCURVE",
"368 391 OFFCURVE",
"368 307 CURVE",
"354 293 LINE",
"107 289 LINE"
);
},
{
closed = 1;
nodes = (
"440 308 LINE",
"440 421 OFFCURVE",
"363 488 OFFCURVE",
"251 488 CURVE SMOOTH",
"136 488 OFFCURVE",
"30 384 OFFCURVE",
"30 215 CURVE SMOOTH",
"30 82 OFFCURVE",
"124 -10 OFFCURVE",
"248 -10 CURVE SMOOTH",
"335 -10 OFFCURVE",
"397 33 OFFCURVE",
"420 56 CURVE",
"420 87 LINE",
"416 90 LINE",
"389 63 OFFCURVE",
"344 41 OFFCURVE",
"278 41 CURVE SMOOTH",
"162 41 OFFCURVE",
"107 167 OFFCURVE",
"107 242 CURVE",
"373 246 LINE"
);
}
);
width = 470;
},
{
background = {
paths = (
{
closed = 1;
nodes = (
"101 395 OFFCURVE",
"167 463 OFFCURVE",
"246 463 CURVE",
"347 463 OFFCURVE",
"369 362 OFFCURVE",
"369 306 CURVE",
"101 306 LINE"
);
},
{
closed = 1;
nodes = (
"331 -10 OFFCURVE",
"396 33 OFFCURVE",
"437 89 CURVE",
"399 89 LINE",
"361 57 OFFCURVE",
"315 43 OFFCURVE",
"266 43 CURVE SMOOTH",
"166 43 OFFCURVE",
"101 164 OFFCURVE",
"101 268 CURVE",
"350 268 LINE",
"439 314 LINE",
"439 412 OFFCURVE",
"375 510 OFFCURVE",
"256 510 CURVE SMOOTH",
"136 510 OFFCURVE",
"32 399 OFFCURVE",
"32 263 CURVE SMOOTH",
"32 84 OFFCURVE",
"131 -10 OFFCURVE",
"246 -10 CURVE SMOOTH"
);
}
);
};
backgroundImage = {
crop = "{{0, 0}, {584.826, 615}}";
imagePath = 43107733732_e84851c66c_5k.jpg;
locked = "1";
transform = "{37.925, 0, 0, 37.925, -16987, -13383}";
};
layerId = "3EDEE92B-4D9D-4D9A-9438-63C2E33416C1";
paths = (
{
closed = 1;
nodes = (
"343 563 LINE",
"190 647 LINE",
"166 609 LINE",
"320 526 LINE"
);
},
{
closed = 1;
nodes = (
"107 363 OFFCURVE",
"153 443 OFFCURVE",
"248 443 CURVE SMOOTH",
"325 443 OFFCURVE",
"368 391 OFFCURVE",
"368 307 CURVE",
"354 293 LINE",
"107 289 LINE"
);
},
{
closed = 1;
nodes = (
"440 308 LINE",
"440 421 OFFCURVE",
"363 488 OFFCURVE",
"251 488 CURVE SMOOTH",
"136 488 OFFCURVE",
"30 384 OFFCURVE",
"30 215 CURVE SMOOTH",
"30 82 OFFCURVE",
"124 -10 OFFCURVE",
"248 -10 CURVE SMOOTH",
"335 -10 OFFCURVE",
"397 33 OFFCURVE",
"420 56 CURVE",
"420 87 LINE",
"416 90 LINE",
"389 63 OFFCURVE",
"344 41 OFFCURVE",
"278 41 CURVE SMOOTH",
"162 41 OFFCURVE",
"107 167 OFFCURVE",
"107 242 CURVE",
"373 246 LINE"
);
}
);
width = 465;
}
);
leftMetricsKey = e;
rightMetricsKey = e;
unicode = 00E8;
},
{
color = 1;
glyphname = f;
lastChange = "2020-12-03 14:13:40 +0000";
layers = (
{
layerId = "A2204D38-078E-49A4-B70C-87904FFF8E34";
paths = (
{
closed = 1;
nodes = (
"274 671 LINE",
"265 680 OFFCURVE",
"243 690 OFFCURVE",
"217 690 CURVE SMOOTH",
"143 690 OFFCURVE",
"121 617 OFFCURVE",
"121 536 CURVE SMOOTH",
"121 37 LINE",
"121 20 LINE",
"121 0 LINE",
"55 0 LINE",
"55 20 LINE",
"55 37 LINE",
"55 517 LINE SMOOTH",
"55 556 OFFCURVE",
"65 601 OFFCURVE",
"88 633 CURVE SMOOTH",
"162 739 OFFCURVE",
"198 762 OFFCURVE",
"247 762 CURVE SMOOTH",
"265 762 OFFCURVE",
"293 758 OFFCURVE",
"303 755 CURVE",
"304 752 LINE",
"280 673 LINE"
);
},
{
closed = 1;
nodes = (
"283 465 LINE",
"283 415 LINE",
"56 415 LINE",
"55 418 LINE",
"55 465 LINE"
);
}
);
width = 309;
},
{
backgroundImage = {
crop = "{{0, 0}, {305.926, 73.749}}";
imagePath = ../pala/pala.png;
locked = "1";
transform = "{82.773, 0, 0, 82.773, -4151, -1413}";
};
layerId = "3EDEE92B-4D9D-4D9A-9438-63C2E33416C1";
paths = (
{
closed = 1;
nodes = (
"319 671 LINE",
"310 680 OFFCURVE",
"288 690 OFFCURVE",
"262 690 CURVE SMOOTH",
"188 690 OFFCURVE",
"166 617 OFFCURVE",
"166 536 CURVE SMOOTH",
"166 37 LINE",
"251 20 LINE",
"251 0 LINE",
"25 0 LINE",
"25 20 LINE",
"100 37 LINE",
"100 517 LINE SMOOTH",
"100 556 OFFCURVE",
"110 601 OFFCURVE",
"133 633 CURVE SMOOTH",
"207 739 OFFCURVE",
"243 762 OFFCURVE",
"292 762 CURVE SMOOTH",
"310 762 OFFCURVE",
"338 758 OFFCURVE",
"348 755 CURVE",
"349 752 LINE",
"325 673 LINE"
);
},
{
closed = 1;
nodes = (
"348 465 LINE",
"348 415 LINE",
"51 415 LINE",
"50 418 LINE",
"100 465 LINE"
);
}
);
width = 354;
}
);
leftMetricsKey = n;
rightMetricsKey = r;
unicode = 0066;
},
{
color = 1;
glyphname = g;
lastChange = "2020-12-03 16:27:04 +0000";
layers = (
{
layerId = "A2204D38-078E-49A4-B70C-87904FFF8E34";
paths = (
{
closed = 1;
nodes = (
"352 490 OFFCURVE",
"473 479 OFFCURVE",
"473 341 CURVE SMOOTH",
"473 265 OFFCURVE",
"392 178 OFFCURVE",
"258 178 CURVE SMOOTH",
"191 178 OFFCURVE",
"77 206 OFFCURVE",
"77 317 CURVE SMOOTH",
"77 436 OFFCURVE",
"220 490 OFFCURVE",
"285 490 CURVE SMOOTH"
);
},
{
closed = 1;
nodes = (
"192 466 OFFCURVE",
"150 400 OFFCURVE",
"150 317 CURVE SMOOTH",
"150 244 OFFCURVE",
"183 202 OFFCURVE",
"267 202 CURVE SMOOTH",
"364 202 OFFCURVE",
"405 282 OFFCURVE",
"405 341 CURVE SMOOTH",
"405 421 OFFCURVE",
"349 466 OFFCURVE",
"285 466 CURVE SMOOTH"
);
},
{
closed = 1;
nodes = (
"482 478 LINE",
"482 472 LINE",
"482 437 LINE",
"378 437 LINE",
"368 478 LINE"
);
},
{
closed = 1;
nodes = (
"459 92 OFFCURVE",
"530 37 OFFCURVE",
"530 -33 CURVE SMOOTH",
"530 -158 OFFCURVE",
"396 -227 OFFCURVE",
"267 -227 CURVE SMOOTH",
"135 -227 OFFCURVE",
"30 -184 OFFCURVE",
"30 -68 CURVE SMOOTH",
"30 15 OFFCURVE",
"163 76 OFFCURVE",
"184 85 CURVE",
"237 81 LINE",
"192 66 OFFCURVE",
"93 32 OFFCURVE",
"93 -55 CURVE SMOOTH",
"93 -149 OFFCURVE",
"158 -201 OFFCURVE",
"268 -201 CURVE SMOOTH",
"354 -201 OFFCURVE",
"455 -152 OFFCURVE",
"455 -65 CURVE SMOOTH",
"455 -3 OFFCURVE",
"406 41 OFFCURVE",
"321 41 CURVE SMOOTH",
"265 41 OFFCURVE",
"220 41 OFFCURVE",
"201 41 CURVE SMOOTH",
"131 41 OFFCURVE",
"79 55 OFFCURVE",
"79 95 CURVE SMOOTH",
"79 128 OFFCURVE",
"147 174 OFFCURVE",
"182 191 CURVE",
"213 186 LINE",
"195 177 OFFCURVE",
"168 162 OFFCURVE",
"168 128 CURVE SMOOTH",
"168 110 OFFCURVE",
"178 92 OFFCURVE",
"225 92 CURVE SMOOTH",
"313 92 OFFCURVE",
"316 92 OFFCURVE",
"358 92 CURVE SMOOTH"
);
}
);
width = 555;
},
{
backgroundImage = {
crop = "{{0, 0}, {305.926, 73.749}}";
imagePath = ../pala/pala.png;
locked = "1";
transform = "{82.773, 0, 0, 82.773, -4532, -1413}";
};
layerId = "3EDEE92B-4D9D-4D9A-9438-63C2E33416C1";
paths = (
{
closed = 1;
nodes = (
"352 490 OFFCURVE",
"473 479 OFFCURVE",
"473 341 CURVE SMOOTH",
"473 265 OFFCURVE",
"392 178 OFFCURVE",
"258 178 CURVE SMOOTH",
"191 178 OFFCURVE",
"77 206 OFFCURVE",
"77 317 CURVE SMOOTH",
"77 436 OFFCURVE",
"220 490 OFFCURVE",
"285 490 CURVE SMOOTH"
);
},
{
closed = 1;
nodes = (
"192 466 OFFCURVE",
"150 400 OFFCURVE",
"150 317 CURVE SMOOTH",
"150 244 OFFCURVE",
"183 202 OFFCURVE",
"267 202 CURVE SMOOTH",
"364 202 OFFCURVE",
"405 282 OFFCURVE",
"405 341 CURVE SMOOTH",
"405 421 OFFCURVE",
"349 466 OFFCURVE",
"285 466 CURVE SMOOTH"
);
},
{
closed = 1;
nodes = (
"565 447 LINE",
"567 441 LINE",
"556 406 LINE",
"418 406 LINE",
"408 447 LINE"
);
},
{
closed = 1;
nodes = (
"459 92 OFFCURVE",
"530 37 OFFCURVE",
"530 -33 CURVE SMOOTH",
"530 -158 OFFCURVE",
"396 -227 OFFCURVE",
"267 -227 CURVE SMOOTH",
"135 -227 OFFCURVE",
"30 -184 OFFCURVE",
"30 -68 CURVE SMOOTH",
"30 15 OFFCURVE",
"163 76 OFFCURVE",
"184 85 CURVE",
"237 81 LINE",
"192 66 OFFCURVE",
"93 32 OFFCURVE",
"93 -55 CURVE SMOOTH",
"93 -149 OFFCURVE",
"158 -201 OFFCURVE",
"268 -201 CURVE SMOOTH",
"354 -201 OFFCURVE",
"455 -152 OFFCURVE",
"455 -65 CURVE SMOOTH",
"455 -3 OFFCURVE",
"406 41 OFFCURVE",
"321 41 CURVE SMOOTH",
"265 41 OFFCURVE",
"220 41 OFFCURVE",
"201 41 CURVE SMOOTH",
"131 41 OFFCURVE",
"79 55 OFFCURVE",
"79 95 CURVE SMOOTH",
"79 128 OFFCURVE",
"147 174 OFFCURVE",
"182 191 CURVE",
"213 186 LINE",
"195 177 OFFCURVE",
"168 162 OFFCURVE",
"168 128 CURVE SMOOTH",
"168 110 OFFCURVE",
"178 92 OFFCURVE",
"225 92 CURVE SMOOTH",
"313 92 OFFCURVE",
"316 92 OFFCURVE",
"358 92 CURVE SMOOTH"
);
}
);
width = 575;
}
);
leftMetricsKey = o;
unicode = 0067;
},
{
color = 1;
glyphname = h;
lastChange = "2020-12-03 14:13:40 +0000";
layers = (
{
background = {
paths = (
{
closed = 1;
nodes = (
"196 510 OFFCURVE",
"138 460 OFFCURVE",
"74 365 CURVE",
"97 350 LINE",
"97 762 LINE",
"37 762 LINE",
"37 0 LINE",
"97 0 LINE",
"97 324 LINE",
"128 392 OFFCURVE",
"187 445 OFFCURVE",
"250 445 CURVE SMOOTH",
"341 445 OFFCURVE",
"374 376 OFFCURVE",
"374 267 CURVE SMOOTH",
"374 0 LINE",
"434 0 LINE",
"434 322 LINE SMOOTH",
"434 448 OFFCURVE",
"387 510 OFFCURVE",
"279 510 CURVE SMOOTH"
);
}
);
};
layerId = "A2204D38-078E-49A4-B70C-87904FFF8E34";
paths = (
{
closed = 1;
nodes = (
"55 762 LINE",
"55 703 LINE",
"55 699 LINE",
"55 37 LINE",
"55 20 LINE",
"55 0 LINE",
"119 0 LINE",
"119 20 LINE",
"119 37 LINE",
"119 762 LINE"
);
},
{
closed = 1;
nodes = (
"104 290 OFFCURVE",
"152 439 OFFCURVE",
"263 439 CURVE SMOOTH",
"363 439 OFFCURVE",
"393 369 OFFCURVE",
"393 254 CURVE SMOOTH",
"393 37 LINE",
"393 20 LINE",
"393 0 LINE",
"456 0 LINE",
"456 20 LINE",
"456 37 LINE",
"456 302 LINE SMOOTH",
"456 415 OFFCURVE",
"413 490 OFFCURVE",
"299 490 CURVE SMOOTH",
"189 490 OFFCURVE",
"125 404 OFFCURVE",
"106 371 CURVE",
"88 243 LINE"
);
}
);
width = 511;
},
{
associatedMasterId = "A2204D38-078E-49A4-B70C-87904FFF8E34";
background = {
paths = (
{
closed = 1;
nodes = (
"202 510 OFFCURVE",
"144 460 OFFCURVE",
"80 365 CURVE",
"103 350 LINE",
"103 762 LINE",
"43 762 LINE",
"43 0 LINE",
"103 0 LINE",
"103 324 LINE",
"134 392 OFFCURVE",
"193 445 OFFCURVE",
"256 445 CURVE SMOOTH",
"347 445 OFFCURVE",
"380 376 OFFCURVE",
"380 267 CURVE SMOOTH",
"380 0 LINE",
"440 0 LINE",
"440 322 LINE SMOOTH",
"440 448 OFFCURVE",
"393 510 OFFCURVE",
"285 510 CURVE SMOOTH"
);
}
);
};
backgroundImage = {
crop = "{{0, 0}, {194, 196}}";
imagePath = "../../Screenshot 2020-10-15 at 11.32.52.png";
transform = "{5.23478, 0, 0, 5.23478, -536, -298}";
};
layerId = "A9E281D5-F84D-4FB4-A69F-ACA557920CC3";
name = "Oct 15 20, 11:33";
paths = (
{
closed = 1;
nodes = (
"43 762 LINE",
"43 0 LINE",
"103 0 LINE",
"103 762 LINE"
);
},
{
closed = 1;
nodes = (
"116 358 OFFCURVE",
"174 448 OFFCURVE",
"256 448 CURVE SMOOTH",
"342 448 OFFCURVE",
"382 386 OFFCURVE",
"382 265 CURVE SMOOTH",
"382 0 LINE",
"442 0 LINE",
"442 279 LINE SMOOTH",
"442 442 OFFCURVE",
"407 509 OFFCURVE",
"285 510 CURVE SMOOTH",
"181 511 OFFCURVE",
"122 422 OFFCURVE",
"96 387 CURVE",
"98 314 LINE"
);
}
);
width = 492;
},
{
backgroundImage = {
crop = "{{0, 0}, {305.926, 73.749}}";
imagePath = ../pala/pala.png;
locked = "1";
transform = "{82.773, 0, 0, 82.773, -5123, -1413}";
};
layerId = "3EDEE92B-4D9D-4D9A-9438-63C2E33416C1";
paths = (
{
closed = 1;
nodes = (
"25 722 LINE",
"44 703 LINE",
"114 699 LINE",
"114 37 LINE",
"39 20 LINE",
"39 0 LINE",
"252 0 LINE",
"252 20 LINE",
"177 37 LINE",
"177 762 LINE"
);
},
{
closed = 1;
nodes = (
"162 290 OFFCURVE",
"210 439 OFFCURVE",
"321 439 CURVE SMOOTH",
"421 439 OFFCURVE",
"451 369 OFFCURVE",
"451 254 CURVE SMOOTH",
"451 37 LINE",
"411 20 LINE",
"411 0 LINE",
"589 0 LINE",
"589 20 LINE",
"514 37 LINE",
"514 302 LINE SMOOTH",
"514 415 OFFCURVE",
"471 490 OFFCURVE",
"357 490 CURVE SMOOTH",
"247 490 OFFCURVE",
"183 404 OFFCURVE",
"164 371 CURVE",
"146 243 LINE"
);
}
);
width = 614;
},
{
associatedMasterId = "3EDEE92B-4D9D-4D9A-9438-63C2E33416C1";
background = {
paths = (
{
closed = 1;
nodes = (
"202 510 OFFCURVE",
"144 460 OFFCURVE",
"80 365 CURVE",
"103 350 LINE",
"103 762 LINE",
"43 762 LINE",
"43 0 LINE",
"103 0 LINE",
"103 324 LINE",
"134 392 OFFCURVE",
"193 445 OFFCURVE",
"256 445 CURVE SMOOTH",
"347 445 OFFCURVE",
"380 376 OFFCURVE",
"380 267 CURVE SMOOTH",
"380 0 LINE",
"440 0 LINE",
"440 322 LINE SMOOTH",
"440 448 OFFCURVE",
"393 510 OFFCURVE",
"285 510 CURVE SMOOTH"
);
}
);
};
backgroundImage = {
crop = "{{0, 0}, {194, 196}}";
imagePath = "../../Screenshot 2020-10-15 at 11.32.52.png";
transform = "{5.23478, 0, 0, 5.23478, -536, -298}";
};
layerId = "23A60301-284F-4BA8-8883-5AACA35A98E0";
name = "Oct 15 20, 11:33";
paths = (
{
closed = 1;
nodes = (
"43 762 LINE",
"43 0 LINE",
"103 0 LINE",
"103 762 LINE"
);
},
{
closed = 1;
nodes = (
"116 358 OFFCURVE",
"174 448 OFFCURVE",
"256 448 CURVE SMOOTH",
"342 448 OFFCURVE",
"382 386 OFFCURVE",
"382 265 CURVE SMOOTH",
"382 0 LINE",
"442 0 LINE",
"442 279 LINE SMOOTH",
"442 442 OFFCURVE",
"407 509 OFFCURVE",
"285 510 CURVE SMOOTH",
"181 511 OFFCURVE",
"122 422 OFFCURVE",
"96 387 CURVE",
"98 314 LINE"
);
}
);
width = 492;
}
);
leftMetricsKey = n;
rightMetricsKey = n;
unicode = 0068;
},
{
color = 1;
glyphname = i;
lastChange = "2020-12-03 15:07:48 +0000";
layers = (
{
layerId = "A2204D38-078E-49A4-B70C-87904FFF8E34";
paths = (
{
closed = 1;
nodes = (
"118 483 OFFCURVE",
"97 483 OFFCURVE",
"76 488 CURVE",
"76 460 LINE",
"76 436 LINE",
"76 42 LINE",
"76 29 LINE",
"76 0 LINE",
"139 0 LINE",
"139 27 LINE",
"139 42 LINE",
"139 488 LINE"
);
},
{
closed = 1;
nodes = (
"136 598 OFFCURVE",
"157 621 OFFCURVE",
"157 648 CURVE SMOOTH",
"157 677 OFFCURVE",
"136 700 OFFCURVE",
"109 700 CURVE SMOOTH",
"81 700 OFFCURVE",
"60 677 OFFCURVE",
"60 648 CURVE SMOOTH",
"60 621 OFFCURVE",
"81 598 OFFCURVE",
"109 598 CURVE SMOOTH"
);
}
);
width = 217;
},
{
backgroundImage = {
crop = "{{0, 0}, {305.926, 73.749}}";
imagePath = ../pala/pala.png;
locked = "1";
transform = "{82.773, 0, 0, 82.773, -5801, -1413}";
};
guideLines = (
{
angle = 90;
locked = 1;
position = "{78, 848}";
},
{
angle = 90;
locked = 1;
position = "{141, 598}";
}
);
layerId = "3EDEE92B-4D9D-4D9A-9438-63C2E33416C1";
paths = (
{
closed = 1;
nodes = (
"120 483 OFFCURVE",
"45 464 OFFCURVE",
"8 463 CURVE",
"8 431 LINE",
"78 436 LINE",
"78 37 LINE",
"4 20 LINE",
"4 0 LINE",
"216 0 LINE",
"216 20 LINE",
"141 37 LINE",
"141 488 LINE"
);
},
{
closed = 1;
nodes = (
"136 598 OFFCURVE",
"157 621 OFFCURVE",
"157 648 CURVE SMOOTH",
"157 677 OFFCURVE",
"136 700 OFFCURVE",
"109 700 CURVE SMOOTH",
"81 700 OFFCURVE",
"60 677 OFFCURVE",
"60 648 CURVE SMOOTH",
"60 621 OFFCURVE",
"81 598 OFFCURVE",
"109 598 CURVE SMOOTH"
);
}
);
width = 226;
}
);
leftMetricsKey = l;
rightMetricsKey = l;
unicode = 0069;
},
{
color = 1;
glyphname = j;
lastChange = "2020-12-03 15:58:35 +0000";
layers = (
{
guideLines = (
{
angle = 90;
position = "{189, -253}";
}
);
layerId = "A2204D38-078E-49A4-B70C-87904FFF8E34";
paths = (
{
closed = 1;
nodes = (
"189 73 LINE SMOOTH",
"189 -90 OFFCURVE",
"178 -188 OFFCURVE",
"119 -188 CURVE SMOOTH",
"97 -188 OFFCURVE",
"85 -181 OFFCURVE",
"74 -171 CURVE",
"60 -198 LINE",
"68 -211 OFFCURVE",
"86 -228 OFFCURVE",
"121 -228 CURVE SMOOTH",
"187 -228 OFFCURVE",
"259 -143 OFFCURVE",
"259 19 CURVE SMOOTH",
"259 111 LINE",
"189 79 LINE"
);
},
{
closed = 1;
nodes = (
"238 483 OFFCURVE",
"166 461 OFFCURVE",
"119 463 CURVE",
"119 431 LINE",
"189 436 LINE",
"189 60 LINE",
"259 60 LINE",
"259 488 LINE"
);
},
{
closed = 1;
nodes = (
"251 598 OFFCURVE",
"272 621 OFFCURVE",
"272 648 CURVE SMOOTH",
"272 677 OFFCURVE",
"251 700 OFFCURVE",
"224 700 CURVE SMOOTH",
"196 700 OFFCURVE",
"175 677 OFFCURVE",
"175 648 CURVE SMOOTH",
"175 621 OFFCURVE",
"196 598 OFFCURVE",
"224 598 CURVE SMOOTH"
);
},
{
closed = 0;
nodes = (
"160 -245 LINE"
);
}
);
width = 332;
},
{
backgroundImage = {
crop = "{{0, 0}, {305.926, 73.749}}";
imagePath = ../pala/pala.png;
locked = "1";
transform = "{82.773, 0, 0, 82.773, -6053, -1413}";
};
guideLines = (
{
angle = 90;
position = "{129, -253}";
}
);
layerId = "3EDEE92B-4D9D-4D9A-9438-63C2E33416C1";
paths = (
{
closed = 1;
nodes = (
"129 73 LINE SMOOTH",
"129 -90 OFFCURVE",
"118 -188 OFFCURVE",
"59 -188 CURVE SMOOTH",
"37 -188 OFFCURVE",
"25 -181 OFFCURVE",
"14 -171 CURVE",
"0 -198 LINE",
"8 -211 OFFCURVE",
"26 -228 OFFCURVE",
"61 -228 CURVE SMOOTH",
"127 -228 OFFCURVE",
"199 -143 OFFCURVE",
"199 19 CURVE SMOOTH",
"199 111 LINE",
"129 79 LINE"
);
},
{
closed = 1;
nodes = (
"178 483 OFFCURVE",
"106 461 OFFCURVE",
"59 463 CURVE",
"59 431 LINE",
"129 436 LINE",
"129 60 LINE",
"199 60 LINE",
"199 488 LINE"
);
},
{
closed = 1;
nodes = (
"191 598 OFFCURVE",
"212 621 OFFCURVE",
"212 648 CURVE SMOOTH",
"212 677 OFFCURVE",
"191 700 OFFCURVE",
"164 700 CURVE SMOOTH",
"136 700 OFFCURVE",
"115 677 OFFCURVE",
"115 648 CURVE SMOOTH",
"115 621 OFFCURVE",
"136 598 OFFCURVE",
"164 598 CURVE SMOOTH"
);
},
{
closed = 0;
nodes = (
"100 -245 LINE"
);
}
);
width = 222;
}
);
rightMetricsKey = l;
unicode = 006A;
},
{
color = 1;
glyphname = k;
lastChange = "2020-12-03 16:27:04 +0000";
layers = (
{
backgroundImage = {
crop = "{{0, 0}, {305.926, 73.749}}";
imagePath = ../pala/pala.png;
locked = "1";
transform = "{82.773, 0, 0, 82.773, -6450, -1413}";
};
layerId = "A2204D38-078E-49A4-B70C-87904FFF8E34";
paths = (
{
closed = 1;
nodes = (
"55 729 LINE",
"55 693 LINE",
"55 33 LINE",
"55 14 LINE",
"55 0 LINE",
"118 0 LINE",
"118 14 LINE",
"118 33 LINE",
"118 762 LINE",
"55 762 LINE"
);
},
{
closed = 1;
nodes = (
"391 0 LINE",
"477 0 LINE",
"430 48 LINE",
"399 80 LINE",
"186 299 LINE",
"97 292 LINE",
"97 252 LINE",
"147 252 LINE"
);
},
{
closed = 1;
nodes = (
"180 288 LINE",
"453 504 LINE",
"453 516 LINE",
"420 508 OFFCURVE",
"391 510 OFFCURVE",
"362 521 CURVE",
"288 435 OFFCURVE",
"216 365 OFFCURVE",
"131 292 CURVE"
);
}
);
width = 482;
},
{
backgroundImage = {
crop = "{{0, 0}, {305.926, 73.749}}";
imagePath = ../pala/pala.png;
locked = "1";
transform = "{82.773, 0, 0, 82.773, -6400, -1413}";
};
layerId = "3EDEE92B-4D9D-4D9A-9438-63C2E33416C1";
paths = (
{
closed = 1;
nodes = (
"35 679 LINE",
"105 693 LINE",
"105 33 LINE",
"25 14 LINE",
"25 0 LINE",
"258 0 LINE",
"258 14 LINE",
"168 33 LINE",
"168 762 LINE",
"35 712 LINE"
);
},
{
closed = 1;
nodes = (
"441 0 LINE",
"567 20 LINE",
"567 47 LINE",
"481 59 LINE",
"236 299 LINE",
"147 292 LINE",
"147 252 LINE",
"197 252 LINE"
);
},
{
closed = 1;
nodes = (
"230 288 LINE",
"503 504 LINE",
"503 516 LINE",
"470 508 OFFCURVE",
"441 510 OFFCURVE",
"412 521 CURVE",
"338 435 OFFCURVE",
"266 365 OFFCURVE",
"181 292 CURVE"
);
}
);
width = 572;
}
);
leftMetricsKey = n;
rightMetricsKey = r;
unicode = 006B;
},
{
color = 1;
glyphname = l;
lastChange = "2020-12-03 15:07:25 +0000";
layers = (
{
layerId = "A2204D38-078E-49A4-B70C-87904FFF8E34";
paths = (
{
closed = 1;
nodes = (
"60 729 LINE",
"60 693 LINE",
"60 33 LINE",
"60 14 LINE",
"60 0 LINE",
"123 0 LINE",
"123 14 LINE",
"123 33 LINE",
"123 762 LINE",
"60 762 LINE"
);
}
);
width = 183;
},
{
backgroundImage = {
crop = "{{0, 0}, {305.926, 73.749}}";
imagePath = ../pala/pala.png;
locked = "1";
transform = "{82.773, 0, 0, 82.773, -7051, -1413}";
};
layerId = "3EDEE92B-4D9D-4D9A-9438-63C2E33416C1";
paths = (
{
closed = 1;
nodes = (
"4 679 LINE",
"74 693 LINE",
"74 33 LINE",
"14 14 LINE",
"14 0 LINE",
"229 0 LINE",
"229 14 LINE",
"139 33 LINE",
"139 762 LINE",
"4 712 LINE"
);
}
);
width = 239;
}
);
unicode = 006C;
},
{
color = 1;
glyphname = m;
lastChange = "2020-12-03 14:13:40 +0000";
layers = (
{
layerId = "A2204D38-078E-49A4-B70C-87904FFF8E34";
paths = (
{
closed = 1;
nodes = (
"55 478 LINE",
"55 455 LINE",
"55 431 LINE",
"55 37 LINE",
"55 18 LINE",
"55 0 LINE",
"118 0 LINE",
"118 18 LINE",
"118 37 LINE",
"118 478 LINE"
);
},
{
closed = 1;
nodes = (
"113 355 OFFCURVE",
"153 436 OFFCURVE",
"256 436 CURVE SMOOTH",
"344 436 OFFCURVE",
"369 368 OFFCURVE",
"369 254 CURVE SMOOTH",
"369 37 LINE",
"369 18 LINE",
"369 0 LINE",
"432 0 LINE",
"432 18 LINE",
"432 37 LINE",
"432 301 LINE SMOOTH",
"432 418 OFFCURVE",
"388 488 OFFCURVE",
"263 488 CURVE SMOOTH",
"169 488 OFFCURVE",
"115 404 OFFCURVE",
"96 370 CURVE",
"96 308 LINE"
);
},
{
closed = 1;
nodes = (
"418 306 OFFCURVE",
"457 429 OFFCURVE",
"570 429 CURVE SMOOTH",
"651 429 OFFCURVE",
"685 368 OFFCURVE",
"685 254 CURVE SMOOTH",
"685 37 LINE",
"685 18 LINE",
"685 0 LINE",
"748 0 LINE",
"748 18 LINE",
"748 37 LINE",
"748 301 LINE SMOOTH",
"748 418 OFFCURVE",
"704 488 OFFCURVE",
"579 488 CURVE SMOOTH",
"486 488 OFFCURVE",
"425 388 OFFCURVE",
"405 355 CURVE",
"398 236 LINE"
);
}
);
width = 803;
},
{
backgroundImage = {
crop = "{{0, 0}, {305.926, 73.749}}";
imagePath = ../pala/pala.png;
locked = "1";
transform = "{82.773, 0, 0, 82.773, -7320, -1413}";
};
layerId = "3EDEE92B-4D9D-4D9A-9438-63C2E33416C1";
paths = (
{
closed = 1;
nodes = (
"25 458 LINE",
"25 435 LINE",
"95 431 LINE",
"95 37 LINE",
"25 18 LINE",
"25 0 LINE",
"228 0 LINE",
"228 18 LINE",
"158 37 LINE",
"158 478 LINE"
);
},
{
closed = 1;
nodes = (
"153 355 OFFCURVE",
"193 436 OFFCURVE",
"296 436 CURVE SMOOTH",
"384 436 OFFCURVE",
"409 368 OFFCURVE",
"409 254 CURVE SMOOTH",
"409 37 LINE",
"329 18 LINE",
"329 0 LINE",
"552 0 LINE",
"552 18 LINE",
"472 37 LINE",
"472 301 LINE SMOOTH",
"472 418 OFFCURVE",
"428 488 OFFCURVE",
"303 488 CURVE SMOOTH",
"209 488 OFFCURVE",
"155 404 OFFCURVE",
"136 370 CURVE",
"136 308 LINE"
);
},
{
closed = 1;
nodes = (
"458 306 OFFCURVE",
"497 429 OFFCURVE",
"610 429 CURVE SMOOTH",
"691 429 OFFCURVE",
"725 368 OFFCURVE",
"725 254 CURVE SMOOTH",
"725 37 LINE",
"705 18 LINE",
"705 0 LINE",
"868 0 LINE",
"868 18 LINE",
"788 37 LINE",
"788 301 LINE SMOOTH",
"788 418 OFFCURVE",
"744 488 OFFCURVE",
"619 488 CURVE SMOOTH",
"526 488 OFFCURVE",
"465 388 OFFCURVE",
"445 355 CURVE",
"438 236 LINE"
);
}
);
width = 893;
}
);
leftMetricsKey = n;
rightMetricsKey = n;
unicode = 006D;
},
{
color = 1;
glyphname = n;
lastChange = "2020-12-03 14:09:33 +0000";
layers = (
{
layerId = "A2204D38-078E-49A4-B70C-87904FFF8E34";
paths = (
{
closed = 1;
nodes = (
"55 478 LINE",
"55 455 LINE",
"55 431 LINE",
"55 37 LINE",
"55 18 LINE",
"55 0 LINE",
"118 0 LINE",
"118 18 LINE",
"118 37 LINE",
"118 478 LINE"
);
},
{
closed = 1;
nodes = (
"113 355 OFFCURVE",
"153 436 OFFCURVE",
"256 436 CURVE SMOOTH",
"344 436 OFFCURVE",
"396 368 OFFCURVE",
"396 254 CURVE SMOOTH",
"396 37 LINE",
"396 18 LINE",
"396 0 LINE",
"459 0 LINE",
"459 18 LINE",
"459 37 LINE",
"459 301 LINE SMOOTH",
"459 418 OFFCURVE",
"408 488 OFFCURVE",
"283 488 CURVE SMOOTH",
"189 488 OFFCURVE",
"115 404 OFFCURVE",
"96 370 CURVE",
"96 308 LINE"
);
}
);
width = 514;
},
{
backgroundImage = {
crop = "{{0, 0}, {305.926, 73.749}}";
imagePath = ../pala/pala.png;
locked = "1";
transform = "{82.773, 0, 0, 82.773, -8260, -1413}";
};
layerId = "3EDEE92B-4D9D-4D9A-9438-63C2E33416C1";
paths = (
{
closed = 1;
nodes = (
"25 458 LINE",
"25 435 LINE",
"95 431 LINE",
"95 37 LINE",
"25 18 LINE",
"25 0 LINE",
"228 0 LINE",
"228 18 LINE",
"158 37 LINE",
"158 478 LINE"
);
},
{
closed = 1;
nodes = (
"153 355 OFFCURVE",
"193 436 OFFCURVE",
"296 436 CURVE SMOOTH",
"384 436 OFFCURVE",
"436 368 OFFCURVE",
"436 254 CURVE SMOOTH",
"436 37 LINE",
"416 18 LINE",
"416 0 LINE",
"579 0 LINE",
"579 18 LINE",
"499 37 LINE",
"499 301 LINE SMOOTH",
"499 418 OFFCURVE",
"448 488 OFFCURVE",
"323 488 CURVE SMOOTH",
"229 488 OFFCURVE",
"155 404 OFFCURVE",
"136 370 CURVE",
"136 308 LINE"
);
}
);
width = 604;
}
);
rightMetricsKey = "=|n";
unicode = 006E;
},
{
color = 0;
glyphname = o;
lastChange = "2020-12-03 12:53:46 +0000";
layers = (
{
backgroundImage = {
crop = "{{0, 0}, {305.926, 73.749}}";
imagePath = ../pala/pala.png;
locked = "1";
transform = "{81.953, 0, 0, 81.953, -8810, -1396}";
};
guideLines = (
{
angle = 90;
position = "{266, 604}";
}
);
layerId = "A2204D38-078E-49A4-B70C-87904FFF8E34";
paths = (
{
closed = 1;
nodes = (
"148 490 OFFCURVE",
"289 490 CURVE SMOOTH",
"466 490 OFFCURVE",
"510 373 OFFCURVE",
"510 264 CURVE SMOOTH",
"510 109 OFFCURVE",
"402 -12 OFFCURVE",
"254 -12 CURVE SMOOTH",
"141 -12 OFFCURVE",
"30 35 OFFCURVE",
"30 212 CURVE SMOOTH",
"30 369 OFFCURVE"
);
},
{
closed = 1;
nodes = (
"405 452 OFFCURVE",
"261 452 CURVE SMOOTH",
"161 452 OFFCURVE",
"98 343 OFFCURVE",
"98 255 CURVE SMOOTH",
"98 101 OFFCURVE",
"174 28 OFFCURVE",
"286 28 CURVE SMOOTH",
"384 28 OFFCURVE",
"442 132 OFFCURVE",
"442 235 CURVE SMOOTH",
"442 321 OFFCURVE"
);
}
);
width = 540;
},
{
associatedMasterId = "A2204D38-078E-49A4-B70C-87904FFF8E34";
backgroundImage = {
crop = "{{0, 0}, {29.329, 35.339}}";
imagePath = letters/oooo.tif;
locked = "1";
transform = "{23.43353, 0, 0, 23.43353, -91, -196}";
};
layerId = "2281934C-8464-4B17-8387-0B8969141099";
name = "Oct 15 20, 15:55";
paths = (
{
closed = 1;
nodes = (
"387 -10 OFFCURVE",
"543 83 OFFCURVE",
"543 272 CURVE SMOOTH",
"543 432 OFFCURVE",
"447 510 OFFCURVE",
"309 510 CURVE SMOOTH",
"150 510 OFFCURVE",
"35 388 OFFCURVE",
"35 231 CURVE SMOOTH",
"35 84 OFFCURVE",
"154 -10 OFFCURVE",
"269 -10 CURVE SMOOTH"
);
},
{
closed = 1;
nodes = (
"182 30 OFFCURVE",
"116 151 OFFCURVE",
"116 273 CURVE SMOOTH",
"116 377 OFFCURVE",
"172 475 OFFCURVE",
"292 475 CURVE SMOOTH",
"409 475 OFFCURVE",
"470 368 OFFCURVE",
"470 227 CURVE SMOOTH",
"470 123 OFFCURVE",
"409 30 OFFCURVE",
"303 30 CURVE SMOOTH"
);
}
);
width = 578;
},
{
backgroundImage = {
crop = "{{0, 0}, {305.926, 73.749}}";
imagePath = ../pala/pala.png;
locked = "1";
transform = "{81.95347, 0, 0, 81.95347, -8822, -1396}";
};
guideLines = (
{
position = "{210, 245}";
}
);
layerId = "3EDEE92B-4D9D-4D9A-9438-63C2E33416C1";
paths = (
{
closed = 1;
nodes = (
"148 490 OFFCURVE",
"289 490 CURVE SMOOTH",
"466 490 OFFCURVE",
"510 373 OFFCURVE",
"510 264 CURVE SMOOTH",
"510 109 OFFCURVE",
"402 -12 OFFCURVE",
"254 -12 CURVE SMOOTH",
"141 -12 OFFCURVE",
"30 35 OFFCURVE",
"30 212 CURVE SMOOTH",
"30 369 OFFCURVE"
);
},
{
closed = 1;
nodes = (
"405 452 OFFCURVE",
"261 452 CURVE SMOOTH",
"161 452 OFFCURVE",
"98 343 OFFCURVE",
"98 255 CURVE SMOOTH",
"98 101 OFFCURVE",
"174 28 OFFCURVE",
"286 28 CURVE SMOOTH",
"384 28 OFFCURVE",
"442 132 OFFCURVE",
"442 235 CURVE SMOOTH",
"442 321 OFFCURVE"
);
}
);
width = 540;
},
{
associatedMasterId = "3EDEE92B-4D9D-4D9A-9438-63C2E33416C1";
backgroundImage = {
crop = "{{0, 0}, {29.329, 35.339}}";
imagePath = letters/oooo.tif;
locked = "1";
transform = "{23.43353, 0, 0, 23.43353, -91, -196}";
};
layerId = "E782AF22-3249-4EA2-A84D-A9D5CF23617F";
name = "Oct 15 20, 15:55";
paths = (
{
closed = 1;
nodes = (
"387 -10 OFFCURVE",
"543 83 OFFCURVE",
"543 272 CURVE SMOOTH",
"543 432 OFFCURVE",
"447 510 OFFCURVE",
"309 510 CURVE SMOOTH",
"150 510 OFFCURVE",
"35 388 OFFCURVE",
"35 231 CURVE SMOOTH",
"35 84 OFFCURVE",
"154 -10 OFFCURVE",
"269 -10 CURVE SMOOTH"
);
},
{
closed = 1;
nodes = (
"182 30 OFFCURVE",
"116 151 OFFCURVE",
"116 273 CURVE SMOOTH",
"116 377 OFFCURVE",
"172 475 OFFCURVE",
"292 475 CURVE SMOOTH",
"409 475 OFFCURVE",
"470 368 OFFCURVE",
"470 227 CURVE SMOOTH",
"470 123 OFFCURVE",
"409 30 OFFCURVE",
"303 30 CURVE SMOOTH"
);
}
);
width = 578;
}
);
rightMetricsKey = "=|o";
unicode = 006F;
},
{
color = 0;
glyphname = p;
lastChange = "2020-12-03 16:27:04 +0000";
layers = (
{
layerId = "A2204D38-078E-49A4-B70C-87904FFF8E34";
paths = (
{
closed = 1;
nodes = (
"55 478 LINE",
"55 456 LINE",
"55 428 LINE",
"55 -196 LINE",
"55 -211 LINE",
"55 -238 LINE",
"118 -238 LINE",
"118 -211 LINE",
"118 -196 LINE",
"118 478 LINE"
);
},
{
closed = 1;
nodes = (
"101 279 LINE",
"135 372 OFFCURVE",
"196 448 OFFCURVE",
"268 448 CURVE SMOOTH",
"339 448 OFFCURVE",
"425 398 OFFCURVE",
"425 279 CURVE SMOOTH",
"425 158 OFFCURVE",
"373 40 OFFCURVE",
"231 40 CURVE SMOOTH",
"171 40 OFFCURVE",
"146 62 OFFCURVE",
"107 110 CURVE",
"79 58 LINE",
"111 21 OFFCURVE",
"129 -10 OFFCURVE",
"220 -10 CURVE SMOOTH",
"303 -10 OFFCURVE",
"499 82 OFFCURVE",
"499 292 CURVE SMOOTH",
"499 379 OFFCURVE",
"442 488 OFFCURVE",
"303 488 CURVE SMOOTH",
"175 488 OFFCURVE",
"134 417 OFFCURVE",
"101 377 CURVE"
);
}
);
width = 529;
},
{
backgroundImage = {
crop = "{{0, 0}, {305.926, 73.749}}";
imagePath = ../pala/pala.png;
locked = "1";
transform = "{82.773, 0, 0, 82.773, -9508, -1413}";
};
layerId = "3EDEE92B-4D9D-4D9A-9438-63C2E33416C1";
paths = (
{
closed = 1;
nodes = (
"31 448 LINE",
"31 426 LINE",
"101 428 LINE",
"101 -196 LINE",
"25 -211 LINE",
"25 -238 LINE",
"264 -238 LINE",
"264 -211 LINE",
"164 -196 LINE",
"164 478 LINE"
);
},
{
closed = 1;
nodes = (
"147 279 LINE",
"181 372 OFFCURVE",
"242 448 OFFCURVE",
"314 448 CURVE SMOOTH",
"385 448 OFFCURVE",
"471 398 OFFCURVE",
"471 279 CURVE SMOOTH",
"471 158 OFFCURVE",
"419 40 OFFCURVE",
"277 40 CURVE SMOOTH",
"217 40 OFFCURVE",
"192 62 OFFCURVE",
"153 110 CURVE",
"125 58 LINE",
"157 21 OFFCURVE",
"175 -10 OFFCURVE",
"266 -10 CURVE SMOOTH",
"349 -10 OFFCURVE",
"545 82 OFFCURVE",
"545 292 CURVE SMOOTH",
"545 379 OFFCURVE",
"488 488 OFFCURVE",
"349 488 CURVE SMOOTH",
"221 488 OFFCURVE",
"180 417 OFFCURVE",
"147 377 CURVE"
);
}
);
width = 575;
}
);
leftMetricsKey = n;
rightMetricsKey = o;
unicode = 0070;
},
{
color = 0;
glyphname = q;
lastChange = "2020-12-03 16:27:04 +0000";
layers = (
{
layerId = "A2204D38-078E-49A4-B70C-87904FFF8E34";
paths = (
{
closed = 1;
nodes = (
"400 478 LINE",
"400 -206 LINE",
"400 -219 LINE",
"400 -238 LINE",
"458 -238 LINE",
"458 -219 LINE",
"458 -206 LINE",
"458 456 LINE",
"458 466 LINE",
"458 478 LINE"
);
},
{
closed = 1;
nodes = (
"389 466 OFFCURVE",
"354 488 OFFCURVE",
"296 488 CURVE SMOOTH",
"226 488 OFFCURVE",
"30 430 OFFCURVE",
"30 182 CURVE SMOOTH",
"30 86 OFFCURVE",
"92 -10 OFFCURVE",
"228 -10 CURVE SMOOTH",
"279 -10 OFFCURVE",
"338 10 OFFCURVE",
"370 46 CURVE SMOOTH",
"427 109 LINE",
"409 147 LINE",
"385 99 OFFCURVE",
"335 38 OFFCURVE",
"252 38 CURVE SMOOTH",
"170 38 OFFCURVE",
"105 114 OFFCURVE",
"105 223 CURVE SMOOTH",
"105 340 OFFCURVE",
"152 439 OFFCURVE",
"268 439 CURVE SMOOTH",
"383 439 OFFCURVE",
"418 383 OFFCURVE",
"418 351 CURVE",
"419 443 LINE"
);
},
{
closed = 1;
nodes = (
"400 478 LINE",
"400 -206 LINE",
"400 -219 LINE",
"400 -238 LINE",
"458 -238 LINE",
"458 -219 LINE",
"458 -206 LINE",
"458 456 LINE",
"458 466 LINE",
"458 478 LINE"
);
},
{
closed = 1;
nodes = (
"389 466 OFFCURVE",
"354 488 OFFCURVE",
"296 488 CURVE SMOOTH",
"226 488 OFFCURVE",
"30 430 OFFCURVE",
"30 182 CURVE SMOOTH",
"30 86 OFFCURVE",
"92 -10 OFFCURVE",
"228 -10 CURVE SMOOTH",
"279 -10 OFFCURVE",
"338 10 OFFCURVE",
"370 46 CURVE SMOOTH",
"427 109 LINE",
"409 147 LINE",
"385 99 OFFCURVE",
"335 38 OFFCURVE",
"252 38 CURVE SMOOTH",
"170 38 OFFCURVE",
"105 114 OFFCURVE",
"105 223 CURVE SMOOTH",
"105 340 OFFCURVE",
"152 439 OFFCURVE",
"268 439 CURVE SMOOTH",
"383 439 OFFCURVE",
"418 383 OFFCURVE",
"418 351 CURVE",
"419 443 LINE"
);
}
);
width = 513;
},
{
backgroundImage = {
crop = "{{0, 0}, {305.926, 73.749}}";
imagePath = ../pala/pala.png;
locked = "1";
transform = "{82.773, 0, 0, 82.773, -10171, -1413}";
};
layerId = "3EDEE92B-4D9D-4D9A-9438-63C2E33416C1";
paths = (
{
closed = 1;
nodes = (
"400 478 LINE",
"400 -206 LINE",
"310 -219 LINE",
"310 -238 LINE",
"528 -238 LINE",
"528 -219 LINE",
"458 -206 LINE",
"458 456 LINE",
"488 476 LINE",
"488 488 LINE"
);
},
{
closed = 1;
nodes = (
"389 466 OFFCURVE",
"354 488 OFFCURVE",
"296 488 CURVE SMOOTH",
"226 488 OFFCURVE",
"30 430 OFFCURVE",
"30 182 CURVE SMOOTH",
"30 86 OFFCURVE",
"92 -10 OFFCURVE",
"228 -10 CURVE SMOOTH",
"279 -10 OFFCURVE",
"338 10 OFFCURVE",
"370 46 CURVE SMOOTH",
"427 109 LINE",
"409 147 LINE",
"385 99 OFFCURVE",
"335 38 OFFCURVE",
"252 38 CURVE SMOOTH",
"170 38 OFFCURVE",
"105 114 OFFCURVE",
"105 223 CURVE SMOOTH",
"105 340 OFFCURVE",
"152 439 OFFCURVE",
"268 439 CURVE SMOOTH",
"383 439 OFFCURVE",
"418 383 OFFCURVE",
"418 351 CURVE",
"419 443 LINE"
);
},
{
closed = 1;
nodes = (
"400 478 LINE",
"400 -206 LINE",
"310 -219 LINE",
"310 -238 LINE",
"528 -238 LINE",
"528 -219 LINE",
"458 -206 LINE",
"458 456 LINE",
"488 476 LINE",
"488 488 LINE"
);
},
{
closed = 1;
nodes = (
"389 466 OFFCURVE",
"354 488 OFFCURVE",
"296 488 CURVE SMOOTH",
"226 488 OFFCURVE",
"30 430 OFFCURVE",
"30 182 CURVE SMOOTH",
"30 86 OFFCURVE",
"92 -10 OFFCURVE",
"228 -10 CURVE SMOOTH",
"279 -10 OFFCURVE",
"338 10 OFFCURVE",
"370 46 CURVE SMOOTH",
"427 109 LINE",
"409 147 LINE",
"385 99 OFFCURVE",
"335 38 OFFCURVE",
"252 38 CURVE SMOOTH",
"170 38 OFFCURVE",
"105 114 OFFCURVE",
"105 223 CURVE SMOOTH",
"105 340 OFFCURVE",
"152 439 OFFCURVE",
"268 439 CURVE SMOOTH",
"383 439 OFFCURVE",
"418 383 OFFCURVE",
"418 351 CURVE",
"419 443 LINE"
);
}
);
width = 553;
}
);
leftMetricsKey = o;
rightMetricsKey = n;
unicode = 0071;
},
{
color = 0;
glyphname = r;
lastChange = "2020-12-03 14:13:40 +0000";
layers = (
{
layerId = "A2204D38-078E-49A4-B70C-87904FFF8E34";
paths = (
{
closed = 1;
nodes = (
"55 479 LINE",
"55 452 LINE",
"55 435 LINE",
"55 44 LINE",
"55 26 LINE",
"55 0 LINE",
"118 0 LINE",
"118 26 LINE",
"118 44 LINE",
"118 479 LINE"
);
},
{
closed = 1;
nodes = (
"340 464 LINE",
"331 475 OFFCURVE",
"301 488 OFFCURVE",
"268 488 CURVE SMOOTH",
"221 488 OFFCURVE",
"171 443 OFFCURVE",
"103 355 CURVE",
"110 273 LINE",
"110 353 OFFCURVE",
"175 414 OFFCURVE",
"222 414 CURVE SMOOTH",
"263 414 OFFCURVE",
"279 397 OFFCURVE",
"298 374 CURVE",
"306 372 LINE",
"313 408 OFFCURVE",
"327 430 OFFCURVE",
"342 458 CURVE"
);
}
);
width = 347;
},
{
backgroundImage = {
crop = "{{0, 0}, {305.926, 73.749}}";
imagePath = ../pala/pala.png;
locked = "1";
transform = "{82.773, 0, 0, 82.773, -10767, -1413}";
};
layerId = "3EDEE92B-4D9D-4D9A-9438-63C2E33416C1";
paths = (
{
closed = 1;
nodes = (
"35 459 LINE",
"35 432 LINE",
"105 435 LINE",
"105 44 LINE",
"25 26 LINE",
"25 0 LINE",
"258 0 LINE",
"258 26 LINE",
"168 44 LINE",
"168 479 LINE"
);
},
{
closed = 1;
nodes = (
"390 464 LINE",
"381 475 OFFCURVE",
"351 488 OFFCURVE",
"318 488 CURVE SMOOTH",
"271 488 OFFCURVE",
"221 443 OFFCURVE",
"153 355 CURVE",
"160 273 LINE",
"160 353 OFFCURVE",
"225 414 OFFCURVE",
"272 414 CURVE SMOOTH",
"313 414 OFFCURVE",
"329 397 OFFCURVE",
"348 374 CURVE",
"356 372 LINE",
"363 408 OFFCURVE",
"377 430 OFFCURVE",
"392 458 CURVE"
);
}
);
width = 397;
}
);
leftMetricsKey = n;
unicode = 0072;
},
{
color = 0;
glyphname = s;
lastChange = "2020-12-03 13:03:01 +0000";
layers = (
{
background = {
paths = (
{
closed = 1;
nodes = (
"1348 433 OFFCURVE",
"1314 503 OFFCURVE",
"1199 503 CURVE SMOOTH",
"1129 503 OFFCURVE",
"1059 473 OFFCURVE",
"1059 376 CURVE SMOOTH",
"1059 278 OFFCURVE",
"1169 246 OFFCURVE",
"1215 231 CURVE SMOOTH",
"1273 212 OFFCURVE",
"1311 194 OFFCURVE",
"1311 135 CURVE SMOOTH",
"1311 68 OFFCURVE",
"1249 36 OFFCURVE",
"1199 36 CURVE SMOOTH",
"1145 36 OFFCURVE",
"1095 50 OFFCURVE",
"1095 129 CURVE",
"1053 129 LINE",
"1053 56 OFFCURVE",
"1084 -3 OFFCURVE",
"1199 -3 CURVE SMOOTH",
"1269 -3 OFFCURVE",
"1355 50 OFFCURVE",
"1355 147 CURVE SMOOTH",
"1355 225 OFFCURVE",
"1293 254 OFFCURVE",
"1247 269 CURVE SMOOTH",
"1209 281 OFFCURVE",
"1106 315 OFFCURVE",
"1106 388 CURVE SMOOTH",
"1106 455 OFFCURVE",
"1169 461 OFFCURVE",
"1199 461 CURVE SMOOTH",
"1234 461 OFFCURVE",
"1306 446 OFFCURVE",
"1306 376 CURVE",
"1348 376 LINE"
);
}
);
};
backgroundImage = {
crop = "{{0, 0}, {305.926, 73.749}}";
imagePath = ../pala/pala.png;
locked = "1";
transform = "{82.773, 0, 0, 82.773, -11183, -1413}";
};
layerId = "A2204D38-078E-49A4-B70C-87904FFF8E34";
paths = (
{
closed = 1;
nodes = (
"359 216 OFFCURVE",
"284 254 OFFCURVE",
"208 278 CURVE SMOOTH",
"145 298 OFFCURVE",
"102 320 OFFCURVE",
"102 372 CURVE SMOOTH",
"102 414 OFFCURVE",
"136 448 OFFCURVE",
"196 448 CURVE SMOOTH",
"252 448 OFFCURVE",
"278 439 OFFCURVE",
"308 402 CURVE",
"316 400 LINE",
"326 416 LINE",
"350 454 LINE",
"327 472 OFFCURVE",
"272 488 OFFCURVE",
"204 488 CURVE SMOOTH",
"124 488 OFFCURVE",
"41 439 OFFCURVE",
"41 356 CURVE SMOOTH",
"41 272 OFFCURVE",
"116 237 OFFCURVE",
"187 216 CURVE SMOOTH",
"242 200 OFFCURVE",
"298 175 OFFCURVE",
"298 120 CURVE SMOOTH",
"298 78 OFFCURVE",
"258 30 OFFCURVE",
"178 30 CURVE SMOOTH",
"124 30 OFFCURVE",
"92 46 OFFCURVE",
"73 96 CURVE",
"68 98 LINE",
"43 55 LINE",
"30 34 LINE",
"53 16 OFFCURVE",
"98 -10 OFFCURVE",
"174 -10 CURVE SMOOTH",
"271 -10 OFFCURVE",
"359 46 OFFCURVE",
"359 137 CURVE SMOOTH"
);
}
);
width = 389;
},
{
background = {
paths = (
{
closed = 1;
nodes = (
"1348 433 OFFCURVE",
"1314 503 OFFCURVE",
"1199 503 CURVE SMOOTH",
"1129 503 OFFCURVE",
"1059 473 OFFCURVE",
"1059 376 CURVE SMOOTH",
"1059 278 OFFCURVE",
"1169 246 OFFCURVE",
"1215 231 CURVE SMOOTH",
"1273 212 OFFCURVE",
"1311 194 OFFCURVE",
"1311 135 CURVE SMOOTH",
"1311 68 OFFCURVE",
"1249 36 OFFCURVE",
"1199 36 CURVE SMOOTH",
"1145 36 OFFCURVE",
"1095 50 OFFCURVE",
"1095 129 CURVE",
"1053 129 LINE",
"1053 56 OFFCURVE",
"1084 -3 OFFCURVE",
"1199 -3 CURVE SMOOTH",
"1269 -3 OFFCURVE",
"1355 50 OFFCURVE",
"1355 147 CURVE SMOOTH",
"1355 225 OFFCURVE",
"1293 254 OFFCURVE",
"1247 269 CURVE SMOOTH",
"1209 281 OFFCURVE",
"1106 315 OFFCURVE",
"1106 388 CURVE SMOOTH",
"1106 455 OFFCURVE",
"1169 461 OFFCURVE",
"1199 461 CURVE SMOOTH",
"1234 461 OFFCURVE",
"1306 446 OFFCURVE",
"1306 376 CURVE",
"1348 376 LINE"
);
}
);
};
backgroundImage = {
crop = "{{0, 0}, {305.926, 73.749}}";
imagePath = ../pala/pala.png;
locked = "1";
transform = "{82.773, 0, 0, 82.773, -11183, -1413}";
};
layerId = "3EDEE92B-4D9D-4D9A-9438-63C2E33416C1";
paths = (
{
closed = 1;
nodes = (
"359 216 OFFCURVE",
"284 254 OFFCURVE",
"208 278 CURVE SMOOTH",
"145 298 OFFCURVE",
"102 320 OFFCURVE",
"102 372 CURVE SMOOTH",
"102 414 OFFCURVE",
"136 448 OFFCURVE",
"196 448 CURVE SMOOTH",
"252 448 OFFCURVE",
"278 439 OFFCURVE",
"308 402 CURVE",
"308 346 LINE",
"342 346 LINE",
"350 454 LINE",
"327 472 OFFCURVE",
"272 488 OFFCURVE",
"204 488 CURVE SMOOTH",
"124 488 OFFCURVE",
"41 439 OFFCURVE",
"41 356 CURVE SMOOTH",
"41 272 OFFCURVE",
"116 237 OFFCURVE",
"187 216 CURVE SMOOTH",
"242 200 OFFCURVE",
"298 175 OFFCURVE",
"298 120 CURVE SMOOTH",
"298 78 OFFCURVE",
"258 30 OFFCURVE",
"178 30 CURVE SMOOTH",
"124 30 OFFCURVE",
"92 46 OFFCURVE",
"73 96 CURVE",
"75 123 LINE",
"38 125 LINE",
"30 34 LINE",
"53 16 OFFCURVE",
"98 -10 OFFCURVE",
"174 -10 CURVE SMOOTH",
"271 -10 OFFCURVE",
"359 46 OFFCURVE",
"359 137 CURVE SMOOTH"
);
}
);
width = 389;
}
);
leftMetricsKey = o;
rightMetricsKey = o;
unicode = 0073;
},
{
color = 0;
glyphname = t;
lastChange = "2020-12-03 16:27:04 +0000";
layers = (
{
backgroundImage = {
crop = "{{0, 0}, {584.826, 615}}";
imagePath = 43107733732_e84851c66c_5k.jpg;
locked = "1";
transform = "{37.925, 0, 0, 37.925, -17932, -13383}";
};
layerId = "A2204D38-078E-49A4-B70C-87904FFF8E34";
paths = (
{
closed = 1;
nodes = (
"65 411 LINE",
"65 403 LINE",
"262 403 LINE",
"280 449 LINE",
"277 453 LINE",
"114 453 LINE"
);
},
{
closed = 1;
nodes = (
"55 113 LINE SMOOTH",
"55 15 OFFCURVE",
"94 -10 OFFCURVE",
"152 -10 CURVE SMOOTH",
"196 -10 OFFCURVE",
"233 7 OFFCURVE",
"253 24 CURVE",
"253 61 LINE",
"240 53 OFFCURVE",
"219 44 OFFCURVE",
"191 44 CURVE SMOOTH",
"136 44 OFFCURVE",
"121 80 OFFCURVE",
"121 166 CURVE SMOOTH",
"121 680 LINE",
"55 660 LINE"
);
},
{
closed = 0;
nodes = (
"286 420 LINE"
);
}
);
width = 291;
},
{
backgroundImage = {
crop = "{{0, 0}, {305.926, 73.749}}";
imagePath = ../pala/pala.png;
locked = "1";
transform = "{82.773, 0, 0, 82.773, -11648, -1413}";
};
layerId = "3EDEE92B-4D9D-4D9A-9438-63C2E33416C1";
paths = (
{
closed = 1;
nodes = (
"4 411 LINE",
"4 403 LINE",
"271 403 LINE",
"289 449 LINE",
"286 453 LINE",
"53 453 LINE"
);
},
{
closed = 1;
nodes = (
"67 113 LINE SMOOTH",
"67 15 OFFCURVE",
"107 -12 OFFCURVE",
"161 -12 CURVE SMOOTH",
"205 -12 OFFCURVE",
"242 7 OFFCURVE",
"262 24 CURVE",
"262 61 LINE",
"249 53 OFFCURVE",
"228 39 OFFCURVE",
"200 39 CURVE SMOOTH",
"145 39 OFFCURVE",
"130 80 OFFCURVE",
"130 166 CURVE SMOOTH",
"130 680 LINE",
"67 660 LINE"
);
},
{
closed = 0;
nodes = (
"295 420 LINE"
);
}
);
width = 300;
}
);
rightMetricsKey = r;
unicode = 0074;
},
{
color = 0;
glyphname = u;
lastChange = "2020-12-03 14:13:40 +0000";
layers = (
{
background = {
paths = (
{
closed = 1;
nodes = (
"438 0 LINE",
"438 31 LINE",
"438 47 LINE",
"438 478 LINE",
"380 478 LINE",
"380 442 LINE",
"380 425 LINE",
"380 0 LINE"
);
},
{
closed = 1;
nodes = (
"367 139 OFFCURVE",
"312 39 OFFCURVE",
"226 39 CURVE SMOOTH",
"144 39 OFFCURVE",
"113 87 OFFCURVE",
"113 211 CURVE SMOOTH",
"113 478 LINE",
"55 478 LINE",
"55 442 LINE",
"55 425 LINE",
"55 211 LINE SMOOTH",
"55 64 OFFCURVE",
"82 -10 OFFCURVE",
"205 -10 CURVE SMOOTH",
"294 -10 OFFCURVE",
"359 67 OFFCURVE",
"384 101 CURVE",
"384 182 LINE"
);
}
);
};
layerId = "A2204D38-078E-49A4-B70C-87904FFF8E34";
paths = (
{
closed = 1;
nodes = (
"438 0 LINE",
"438 31 LINE",
"438 47 LINE",
"438 478 LINE",
"380 478 LINE",
"380 442 LINE",
"380 425 LINE",
"380 0 LINE"
);
},
{
closed = 1;
nodes = (
"367 139 OFFCURVE",
"312 39 OFFCURVE",
"226 39 CURVE SMOOTH",
"144 39 OFFCURVE",
"113 87 OFFCURVE",
"113 211 CURVE SMOOTH",
"113 478 LINE",
"55 478 LINE",
"55 442 LINE",
"55 425 LINE",
"55 211 LINE SMOOTH",
"55 64 OFFCURVE",
"82 -10 OFFCURVE",
"205 -10 CURVE SMOOTH",
"294 -10 OFFCURVE",
"359 67 OFFCURVE",
"384 101 CURVE",
"384 182 LINE"
);
}
);
width = 493;
},
{
background = {
paths = (
{
closed = 1;
nodes = (
"474 0 LINE",
"474 500 LINE",
"414 500 LINE",
"414 0 LINE"
);
},
{
closed = 1;
nodes = (
"428 164 OFFCURVE",
"362 42 OFFCURVE",
"261 42 CURVE SMOOTH",
"166 42 OFFCURVE",
"135 121 OFFCURVE",
"135 235 CURVE SMOOTH",
"135 500 LINE",
"75 500 LINE",
"75 221 LINE SMOOTH",
"75 50 OFFCURVE",
"149 -10 OFFCURVE",
"232 -10 CURVE SMOOTH",
"336 -10 OFFCURVE",
"414 88 OFFCURVE",
"440 123 CURVE",
"451 206 LINE"
);
}
);
};
backgroundImage = {
crop = "{{0, 0}, {305.926, 73.749}}";
imagePath = ../pala/pala.png;
locked = "1";
transform = "{82.773, 0, 0, 82.773, -11983, -1413}";
};
layerId = "3EDEE92B-4D9D-4D9A-9438-63C2E33416C1";
paths = (
{
closed = 1;
nodes = (
"558 0 LINE",
"558 31 LINE",
"478 47 LINE",
"478 478 LINE",
"345 448 LINE",
"345 422 LINE",
"415 425 LINE",
"415 0 LINE"
);
},
{
closed = 1;
nodes = (
"402 139 OFFCURVE",
"347 39 OFFCURVE",
"261 39 CURVE SMOOTH",
"179 39 OFFCURVE",
"153 87 OFFCURVE",
"153 211 CURVE SMOOTH",
"153 478 LINE",
"20 448 LINE",
"20 422 LINE",
"90 425 LINE",
"90 211 LINE SMOOTH",
"90 64 OFFCURVE",
"117 -10 OFFCURVE",
"240 -10 CURVE SMOOTH",
"329 -10 OFFCURVE",
"394 67 OFFCURVE",
"419 101 CURVE",
"419 182 LINE"
);
}
);
width = 583;
}
);
rightMetricsKey = n;
unicode = 0075;
},
{
color = 0;
glyphname = v;
lastChange = "2020-12-03 14:54:52 +0000";
layers = (
{
background = {
paths = (
{
closed = 1;
nodes = (
"265 88 LINE",
"436 478 LINE",
"494 478 LINE",
"270 0 LINE",
"219 0 LINE",
"30 478 LINE",
"106 478 LINE",
"256 88 LINE"
);
}
);
};
guideLines = (
{
angle = 111.9087;
position = "{141, 220}";
}
);
layerId = "A2204D38-078E-49A4-B70C-87904FFF8E34";
paths = (
{
closed = 1;
nodes = (
"268 78 LINE",
"260 78 LINE",
"115 450 LINE",
"108 465 LINE",
"103 478 LINE",
"37 478 LINE",
"42 465 LINE",
"48 451 LINE",
"233 -10 LINE",
"267 -10 LINE",
"488 450 LINE",
"495 465 LINE",
"502 478 LINE",
"452 478 LINE",
"447 464 LINE",
"438 440 LINE"
);
}
);
width = 507;
},
{
associatedMasterId = "A2204D38-078E-49A4-B70C-87904FFF8E34";
backgroundImage = {
crop = "{{0, 0}, {140, 139}}";
imagePath = "../../Screenshot 2020-10-15 at 11.39.30.png";
locked = "1";
transform = "{4.75473, 0, 0, 4.75473, -100, -89}";
};
layerId = "931F6712-8DB6-4C5A-AEF2-3092C16EC71F";
name = "Oct 15 20, 11:40";
paths = (
{
closed = 1;
nodes = (
"232 92 LINE",
"413 500 LINE",
"466 500 LINE",
"237 0 LINE",
"188 0 LINE",
"10 500 LINE",
"82 500 LINE",
"219 92 LINE"
);
}
);
width = 491;
},
{
background = {
paths = (
{
closed = 1;
nodes = (
"290 88 LINE",
"461 478 LINE",
"519 478 LINE",
"295 0 LINE",
"244 0 LINE",
"55 478 LINE",
"131 478 LINE",
"281 88 LINE"
);
}
);
};
backgroundImage = {
crop = "{{0, 0}, {305.926, 73.749}}";
imagePath = ../pala/pala.png;
locked = "1";
transform = "{82.773, 0, 0, 82.773, -12580, -1413}";
};
guideLines = (
{
angle = 111.9087;
position = "{113, 220}";
}
);
layerId = "3EDEE92B-4D9D-4D9A-9438-63C2E33416C1";
paths = (
{
closed = 1;
nodes = (
"288 78 LINE",
"285 78 LINE",
"140 450 LINE",
"217 465 LINE",
"214 478 LINE",
"5 478 LINE",
"9 465 LINE",
"73 450 LINE",
"258 -10 LINE",
"292 -10 LINE",
"513 450 LINE",
"547 465 LINE",
"544 478 LINE",
"390 478 LINE",
"394 464 LINE",
"458 440 LINE"
);
}
);
width = 552;
},
{
associatedMasterId = "3EDEE92B-4D9D-4D9A-9438-63C2E33416C1";
backgroundImage = {
crop = "{{0, 0}, {140, 139}}";
imagePath = "../../Screenshot 2020-10-15 at 11.39.30.png";
locked = "1";
transform = "{4.75473, 0, 0, 4.75473, -100, -89}";
};
layerId = "4043D0D9-D51B-4FF2-9F09-3F3E70E27D03";
name = "Oct 15 20, 11:40";
paths = (
{
closed = 1;
nodes = (
"232 92 LINE",
"413 500 LINE",
"466 500 LINE",
"237 0 LINE",
"188 0 LINE",
"10 500 LINE",
"82 500 LINE",
"219 92 LINE"
);
}
);
width = 491;
}
);
unicode = 0076;
},
{
color = 0;
glyphname = w;
lastChange = "2020-12-03 15:08:47 +0000";
layers = (
{
layerId = "A2204D38-078E-49A4-B70C-87904FFF8E34";
paths = (
{
closed = 1;
nodes = (
"112 450 LINE",
"109 465 LINE",
"106 478 LINE",
"37 478 LINE",
"41 465 LINE",
"45 450 LINE",
"157 -10 LINE",
"194 -10 LINE",
"392 375 LINE",
"424 478 LINE",
"402 478 LINE",
"205 88 LINE",
"197 88 LINE"
);
},
{
closed = 1;
nodes = (
"424 478 LINE",
"379 402 LINE",
"540 -10 LINE",
"552 -10 LINE",
"758 453 LINE",
"764 468 LINE",
"769 478 LINE",
"708 478 LINE",
"704 468 LINE",
"702 453 LINE",
"558 88 LINE",
"555 88 LINE"
);
}
);
width = 774;
},
{
backgroundImage = {
crop = "{{0, 0}, {305.926, 73.749}}";
imagePath = ../pala/pala.png;
locked = "1";
transform = "{82.773, 0, 0, 82.773, -13170, -1413}";
};
layerId = "3EDEE92B-4D9D-4D9A-9438-63C2E33416C1";
paths = (
{
closed = 1;
nodes = (
"140 450 LINE",
"217 465 LINE",
"214 478 LINE",
"5 478 LINE",
"9 465 LINE",
"73 450 LINE",
"185 -10 LINE",
"222 -10 LINE",
"420 375 LINE",
"452 478 LINE",
"430 478 LINE",
"233 88 LINE",
"225 88 LINE"
);
},
{
closed = 1;
nodes = (
"452 478 LINE",
"407 402 LINE",
"568 -10 LINE",
"580 -10 LINE",
"786 453 LINE",
"832 468 LINE",
"837 478 LINE",
"656 478 LINE",
"652 468 LINE",
"730 453 LINE",
"586 88 LINE",
"583 88 LINE"
);
}
);
width = 842;
}
);
leftMetricsKey = v;
rightMetricsKey = v;
unicode = 0077;
},
{
color = 0;
glyphname = x;
lastChange = "2020-12-03 16:08:19 +0000";
layers = (
{
layerId = "A2204D38-078E-49A4-B70C-87904FFF8E34";
paths = (
{
closed = 1;
nodes = (
"64 463 LINE",
"95 414 LINE",
"386 0 LINE",
"413 0 LINE",
"430 0 LINE",
"446 0 LINE",
"422 33 LINE",
"122 478 LINE",
"82 478 LINE",
"54 478 LINE"
);
},
{
closed = 1;
nodes = (
"242 234 LINE",
"37 0 LINE",
"53 0 LINE",
"112 0 LINE",
"259 206 LINE"
);
},
{
closed = 1;
nodes = (
"266 211 LINE",
"495 478 LINE",
"488 478 LINE",
"410 478 LINE",
"250 235 LINE"
);
}
);
width = 500;
},
{
backgroundImage = {
crop = "{{0, 0}, {305.926, 73.749}}";
imagePath = ../pala/pala.png;
locked = "1";
transform = "{82.773, 0, 0, 82.773, -14022, -1413}";
};
layerId = "3EDEE92B-4D9D-4D9A-9438-63C2E33416C1";
paths = (
{
closed = 1;
nodes = (
"15 393 LINE",
"86 414 LINE",
"381 -10 LINE",
"487 10 LINE",
"496 26 LINE",
"492 33 LINE",
"417 33 LINE",
"117 478 LINE",
"77 478 LINE",
"5 408 LINE"
);
},
{
closed = 1;
nodes = (
"237 234 LINE",
"32 0 LINE",
"38 -10 LINE",
"107 0 LINE",
"254 206 LINE"
);
},
{
closed = 1;
nodes = (
"261 211 LINE",
"490 478 LINE",
"483 488 LINE",
"405 478 LINE",
"245 235 LINE"
);
}
);
width = 501;
}
);
leftMetricsKey = v;
rightMetricsKey = v;
unicode = 0078;
},
{
color = 0;
glyphname = y;
lastChange = "2020-12-03 15:08:42 +0000";
layers = (
{
guideLines = (
{
angle = 113.0744;
position = "{167, 223}";
},
{
angle = -68.5382;
position = "{221, 257}";
},
{
angle = 67.4983;
position = "{384, 257}";
},
{
angle = 246.1688;
position = "{417, 223}";
}
);
layerId = "A2204D38-078E-49A4-B70C-87904FFF8E34";
paths = (
{
closed = 1;
nodes = (
"305 67 LINE",
"476 478 LINE",
"488 478 LINE",
"498 478 LINE",
"516 478 LINE",
"524 478 LINE",
"530 478 LINE",
"318 0 LINE",
"262 0 LINE",
"58 478 LINE",
"70 478 LINE",
"80 478 LINE",
"115 478 LINE",
"124 478 LINE",
"134 478 LINE",
"295 67 LINE"
);
},
{
closed = 1;
nodes = (
"260 -132 LINE SMOOTH",
"232 -196 OFFCURVE",
"175 -239 OFFCURVE",
"119 -239 CURVE SMOOTH",
"81 -239 OFFCURVE",
"48 -210 OFFCURVE",
"37 -176 CURVE",
"58 -156 LINE",
"72 -176 OFFCURVE",
"96 -189 OFFCURVE",
"119 -189 CURVE SMOOTH",
"184 -189 OFFCURVE",
"213 -149 OFFCURVE",
"253 -59 CURVE SMOOTH",
"282 6 LINE",
"327 20 LINE"
);
}
);
width = 535;
},
{
backgroundImage = {
crop = "{{0, 0}, {305.926, 73.749}}";
imagePath = ../pala/pala.png;
locked = "1";
transform = "{82.773, 0, 0, 82.773, -14613, -1383}";
};
guideLines = (
{
angle = 66.2;
locked = 1;
position = "{468, 271}";
}
);
layerId = "3EDEE92B-4D9D-4D9A-9438-63C2E33416C1";
paths = (
{
closed = 1;
nodes = (
"328 67 LINE",
"485 446 LINE",
"378 462 LINE",
"385 478 LINE",
"592 478 LINE",
"583 462 LINE",
"545 446 LINE",
"348 0 LINE",
"292 0 LINE",
"109 446 LINE",
"12 462 LINE",
"5 478 LINE",
"246 478 LINE",
"251 462 LINE",
"176 446 LINE",
"325 67 LINE"
);
},
{
closed = 1;
nodes = (
"290 -132 LINE SMOOTH",
"262 -196 OFFCURVE",
"205 -239 OFFCURVE",
"149 -239 CURVE SMOOTH",
"111 -239 OFFCURVE",
"78 -210 OFFCURVE",
"67 -176 CURVE",
"88 -156 LINE",
"102 -176 OFFCURVE",
"126 -189 OFFCURVE",
"149 -189 CURVE SMOOTH",
"214 -189 OFFCURVE",
"244 -149 OFFCURVE",
"284 -59 CURVE SMOOTH",
"313 6 LINE",
"357 20 LINE"
);
}
);
width = 597;
}
);
leftMetricsKey = v;
rightMetricsKey = v;
unicode = 0079;
},
{
color = 0;
glyphname = z;
lastChange = "2020-12-03 16:04:39 +0000";
layers = (
{
layerId = "A2204D38-078E-49A4-B70C-87904FFF8E34";
paths = (
{
closed = 1;
nodes = (
"84 437 LINE",
"111 437 LINE",
"128 437 LINE",
"415 437 LINE",
"416 478 LINE",
"84 478 LINE"
);
},
{
closed = 1;
nodes = (
"87 0 LINE",
"464 0 LINE",
"464 48 LINE",
"443 48 LINE",
"425 48 LINE",
"87 48 LINE"
);
},
{
closed = 1;
nodes = (
"43 0 LINE",
"104 0 LINE",
"466 473 LINE",
"466 478 LINE",
"390 478 LINE",
"37 6 LINE"
);
}
);
width = 471;
},
{
backgroundImage = {
crop = "{{0, 0}, {305.926, 73.749}}";
imagePath = ../pala/pala.png;
locked = "1";
transform = "{82.773, 0, 0, 82.773, -15263, -1383}";
};
layerId = "3EDEE92B-4D9D-4D9A-9438-63C2E33416C1";
paths = (
{
closed = 1;
nodes = (
"42 387 LINE",
"69 387 LINE",
"96 437 LINE",
"383 437 LINE",
"383 478 LINE",
"52 478 LINE"
);
},
{
closed = 1;
nodes = (
"55 0 LINE",
"432 0 LINE",
"444 118 LINE",
"423 118 LINE",
"393 48 LINE",
"55 48 LINE"
);
},
{
closed = 1;
nodes = (
"11 0 LINE",
"72 0 LINE",
"434 473 LINE",
"434 478 LINE",
"358 478 LINE",
"5 6 LINE"
);
}
);
width = 449;
}
);
leftMetricsKey = v;
rightMetricsKey = v;
unicode = 007A;
},
{
color = 1;
glyphname = a.001;
lastChange = "2020-12-03 13:03:01 +0000";
layers = (
{
layerId = "A2204D38-078E-49A4-B70C-87904FFF8E34";
paths = (
{
closed = 1;
nodes = (
"66 410 LINE",
"96 445 OFFCURVE",
"162 488 OFFCURVE",
"245 488 CURVE SMOOTH",
"341 488 OFFCURVE",
"392 433 OFFCURVE",
"392 322 CURVE SMOOTH",
"392 37 LINE",
"392 21 LINE",
"392 0 LINE",
"325 0 LINE",
"325 37 LINE",
"325 302 LINE",
"325 395 OFFCURVE",
"290 440 OFFCURVE",
"215 440 CURVE SMOOTH",
"178 440 OFFCURVE",
"124 410 OFFCURVE",
"88 366 CURVE"
);
},
{
closed = 1;
nodes = (
"347 275 LINE",
"267 259 OFFCURVE",
"109 221 OFFCURVE",
"109 121 CURVE SMOOTH",
"109 77 OFFCURVE",
"146 48 OFFCURVE",
"183 48 CURVE SMOOTH",
"248 48 OFFCURVE",
"313 119 OFFCURVE",
"341 166 CURVE",
"346 122 LINE",
"305 61 OFFCURVE",
"237 -10 OFFCURVE",
"159 -10 CURVE SMOOTH",
"69 -10 OFFCURVE",
"30 47 OFFCURVE",
"30 110 CURVE SMOOTH",
"30 226 OFFCURVE",
"190 271 OFFCURVE",
"347 306 CURVE"
);
}
);
width = 422;
},
{
associatedMasterId = "A2204D38-078E-49A4-B70C-87904FFF8E34";
background = {
paths = (
{
closed = 1;
nodes = (
"63 416 LINE",
"104 473 OFFCURVE",
"168 510 OFFCURVE",
"236 510 CURVE SMOOTH",
"349 510 OFFCURVE",
"402 433 OFFCURVE",
"402 337 CURVE SMOOTH",
"402 0 LINE",
"342 0 LINE",
"342 316 LINE",
"342 399 OFFCURVE",
"292 460 OFFCURVE",
"223 460 CURVE SMOOTH",
"179 460 OFFCURVE",
"132 444 OFFCURVE",
"95 398 CURVE"
);
},
{
closed = 1;
nodes = (
"355 288 LINE",
"287 275 OFFCURVE",
"102 232 OFFCURVE",
"102 123 CURVE SMOOTH",
"102 78 OFFCURVE",
"132 45 OFFCURVE",
"195 45 CURVE SMOOTH",
"271 45 OFFCURVE",
"331 126 OFFCURVE",
"354 175 CURVE",
"354 138 LINE",
"311 74 OFFCURVE",
"265 -10 OFFCURVE",
"153 -10 CURVE SMOOTH",
"58 -10 OFFCURVE",
"30 70 OFFCURVE",
"30 118 CURVE SMOOTH",
"30 258 OFFCURVE",
"191 288 OFFCURVE",
"355 322 CURVE"
);
}
);
};
backgroundImage = {
crop = "{{0, 0}, {320, 437}}";
imagePath = "../../Screenshot 2020-10-15 at 11.24.38.png";
locked = "1";
transform = "{1.831, 0, 0, 1.831, -73, -186}";
};
layerId = "7BCF6627-4367-41A7-93C7-86B12A22C6E6";
name = "Oct 15 20, 11:30";
paths = (
{
closed = 1;
nodes = (
"63 425 LINE",
"94 461 OFFCURVE",
"162 510 OFFCURVE",
"248 510 CURVE SMOOTH",
"349 510 OFFCURVE",
"402 453 OFFCURVE",
"402 337 CURVE SMOOTH",
"402 0 LINE",
"332 0 LINE",
"332 316 LINE",
"332 413 OFFCURVE",
"296 460 OFFCURVE",
"217 460 CURVE SMOOTH",
"179 460 OFFCURVE",
"117 434 OFFCURVE",
"80 388 CURVE"
);
},
{
closed = 1;
nodes = (
"355 288 LINE",
"271 271 OFFCURVE",
"106 231 OFFCURVE",
"106 127 CURVE SMOOTH",
"106 81 OFFCURVE",
"145 51 OFFCURVE",
"184 51 CURVE SMOOTH",
"252 51 OFFCURVE",
"320 125 OFFCURVE",
"349 174 CURVE",
"354 128 LINE",
"311 64 OFFCURVE",
"240 -10 OFFCURVE",
"159 -10 CURVE SMOOTH",
"65 -10 OFFCURVE",
"24 50 OFFCURVE",
"24 115 CURVE SMOOTH",
"24 236 OFFCURVE",
"191 283 OFFCURVE",
"355 320 CURVE"
);
}
);
width = 447;
},
{
background = {
paths = (
{
closed = 1;
nodes = (
"53 416 LINE",
"94 473 OFFCURVE",
"158 510 OFFCURVE",
"226 510 CURVE SMOOTH",
"339 510 OFFCURVE",
"392 433 OFFCURVE",
"392 337 CURVE SMOOTH",
"392 0 LINE",
"332 0 LINE",
"332 316 LINE",
"332 399 OFFCURVE",
"282 460 OFFCURVE",
"213 460 CURVE SMOOTH",
"169 460 OFFCURVE",
"122 444 OFFCURVE",
"85 398 CURVE"
);
},
{
closed = 1;
nodes = (
"345 288 LINE",
"277 275 OFFCURVE",
"92 232 OFFCURVE",
"92 123 CURVE SMOOTH",
"92 78 OFFCURVE",
"122 45 OFFCURVE",
"185 45 CURVE SMOOTH",
"261 45 OFFCURVE",
"321 126 OFFCURVE",
"344 175 CURVE",
"344 138 LINE",
"301 74 OFFCURVE",
"255 -10 OFFCURVE",
"143 -10 CURVE SMOOTH",
"48 -10 OFFCURVE",
"20 70 OFFCURVE",
"20 118 CURVE SMOOTH",
"20 258 OFFCURVE",
"181 288 OFFCURVE",
"345 322 CURVE"
);
}
);
};
backgroundImage = {
crop = "{{0, 0}, {305.926, 73.749}}";
imagePath = ../pala/pala.png;
locked = "1";
transform = "{82.773, 0, 0, 82.773, -1314, -1413}";
};
layerId = "3EDEE92B-4D9D-4D9A-9438-63C2E33416C1";
paths = (
{
closed = 1;
nodes = (
"66 410 LINE",
"96 445 OFFCURVE",
"162 488 OFFCURVE",
"245 488 CURVE SMOOTH",
"341 488 OFFCURVE",
"392 433 OFFCURVE",
"392 322 CURVE SMOOTH",
"392 37 LINE",
"473 21 LINE",
"473 0 LINE",
"319 0 LINE",
"325 37 LINE",
"325 302 LINE",
"325 395 OFFCURVE",
"290 440 OFFCURVE",
"215 440 CURVE SMOOTH",
"178 440 OFFCURVE",
"124 410 OFFCURVE",
"88 366 CURVE"
);
},
{
closed = 1;
nodes = (
"347 275 LINE",
"267 259 OFFCURVE",
"109 221 OFFCURVE",
"109 121 CURVE SMOOTH",
"109 77 OFFCURVE",
"146 48 OFFCURVE",
"183 48 CURVE SMOOTH",
"248 48 OFFCURVE",
"313 119 OFFCURVE",
"341 166 CURVE",
"346 122 LINE",
"305 61 OFFCURVE",
"237 -10 OFFCURVE",
"159 -10 CURVE SMOOTH",
"69 -10 OFFCURVE",
"30 47 OFFCURVE",
"30 110 CURVE SMOOTH",
"30 226 OFFCURVE",
"190 271 OFFCURVE",
"347 306 CURVE"
);
}
);
width = 503;
},
{
associatedMasterId = "3EDEE92B-4D9D-4D9A-9438-63C2E33416C1";
background = {
paths = (
{
closed = 1;
nodes = (
"63 416 LINE",
"104 473 OFFCURVE",
"168 510 OFFCURVE",
"236 510 CURVE SMOOTH",
"349 510 OFFCURVE",
"402 433 OFFCURVE",
"402 337 CURVE SMOOTH",
"402 0 LINE",
"342 0 LINE",
"342 316 LINE",
"342 399 OFFCURVE",
"292 460 OFFCURVE",
"223 460 CURVE SMOOTH",
"179 460 OFFCURVE",
"132 444 OFFCURVE",
"95 398 CURVE"
);
},
{
closed = 1;
nodes = (
"355 288 LINE",
"287 275 OFFCURVE",
"102 232 OFFCURVE",
"102 123 CURVE SMOOTH",
"102 78 OFFCURVE",
"132 45 OFFCURVE",
"195 45 CURVE SMOOTH",
"271 45 OFFCURVE",
"331 126 OFFCURVE",
"354 175 CURVE",
"354 138 LINE",
"311 74 OFFCURVE",
"265 -10 OFFCURVE",
"153 -10 CURVE SMOOTH",
"58 -10 OFFCURVE",
"30 70 OFFCURVE",
"30 118 CURVE SMOOTH",
"30 258 OFFCURVE",
"191 288 OFFCURVE",
"355 322 CURVE"
);
}
);
};
backgroundImage = {
crop = "{{0, 0}, {320, 437}}";
imagePath = "../../Screenshot 2020-10-15 at 11.24.38.png";
locked = "1";
transform = "{1.831, 0, 0, 1.831, -73, -186}";
};
layerId = "CFA403A6-0876-4B87-9D85-CF7E3A582D40";
name = "Oct 15 20, 11:30";
paths = (
{
closed = 1;
nodes = (
"63 425 LINE",
"94 461 OFFCURVE",
"162 510 OFFCURVE",
"248 510 CURVE SMOOTH",
"349 510 OFFCURVE",
"402 453 OFFCURVE",
"402 337 CURVE SMOOTH",
"402 0 LINE",
"332 0 LINE",
"332 316 LINE",
"332 413 OFFCURVE",
"296 460 OFFCURVE",
"217 460 CURVE SMOOTH",
"179 460 OFFCURVE",
"117 434 OFFCURVE",
"80 388 CURVE"
);
},
{
closed = 1;
nodes = (
"355 288 LINE",
"271 271 OFFCURVE",
"106 231 OFFCURVE",
"106 127 CURVE SMOOTH",
"106 81 OFFCURVE",
"145 51 OFFCURVE",
"184 51 CURVE SMOOTH",
"252 51 OFFCURVE",
"320 125 OFFCURVE",
"349 174 CURVE",
"354 128 LINE",
"311 64 OFFCURVE",
"240 -10 OFFCURVE",
"159 -10 CURVE SMOOTH",
"65 -10 OFFCURVE",
"24 50 OFFCURVE",
"24 115 CURVE SMOOTH",
"24 236 OFFCURVE",
"191 283 OFFCURVE",
"355 320 CURVE"
);
}
);
width = 447;
}
);
leftMetricsKey = o;
rightMetricsKey = o;
},
{
color = 1;
glyphname = f_f.liga;
lastChange = "2020-12-03 14:13:40 +0000";
layers = (
{
layerId = "A2204D38-078E-49A4-B70C-87904FFF8E34";
paths = (
{
closed = 1;
nodes = (
"274 671 LINE",
"265 680 OFFCURVE",
"243 690 OFFCURVE",
"217 690 CURVE SMOOTH",
"143 690 OFFCURVE",
"121 617 OFFCURVE",
"121 536 CURVE SMOOTH",
"121 37 LINE",
"121 20 LINE",
"121 0 LINE",
"55 0 LINE",
"55 20 LINE",
"55 37 LINE",
"55 517 LINE SMOOTH",
"55 556 OFFCURVE",
"65 601 OFFCURVE",
"88 633 CURVE SMOOTH",
"162 739 OFFCURVE",
"198 762 OFFCURVE",
"247 762 CURVE SMOOTH",
"265 762 OFFCURVE",
"293 758 OFFCURVE",
"303 755 CURVE",
"304 752 LINE",
"280 673 LINE"
);
},
{
closed = 1;
nodes = (
"303 465 LINE",
"303 415 LINE",
"56 415 LINE",
"55 418 LINE",
"55 465 LINE"
);
},
{
closed = 1;
nodes = (
"517 671 LINE",
"508 680 OFFCURVE",
"486 690 OFFCURVE",
"460 690 CURVE SMOOTH",
"386 690 OFFCURVE",
"364 617 OFFCURVE",
"364 536 CURVE SMOOTH",
"364 37 LINE",
"364 20 LINE",
"364 0 LINE",
"298 0 LINE",
"298 20 LINE",
"298 37 LINE",
"298 517 LINE SMOOTH",
"298 556 OFFCURVE",
"308 601 OFFCURVE",
"331 633 CURVE SMOOTH",
"405 739 OFFCURVE",
"441 762 OFFCURVE",
"490 762 CURVE SMOOTH",
"508 762 OFFCURVE",
"536 758 OFFCURVE",
"546 755 CURVE",
"547 752 LINE",
"523 673 LINE"
);
},
{
closed = 1;
nodes = (
"536 465 LINE",
"536 415 LINE",
"249 415 LINE",
"248 418 LINE",
"298 465 LINE"
);
}
);
width = 552;
},
{
backgroundImage = {
crop = "{{0, 0}, {305.926, 73.749}}";
imagePath = ../pala/pala.png;
locked = "1";
transform = "{82.773, 0, 0, 82.773, -4151, -1413}";
};
layerId = "3EDEE92B-4D9D-4D9A-9438-63C2E33416C1";
paths = (
{
closed = 1;
nodes = (
"319 671 LINE",
"310 680 OFFCURVE",
"288 690 OFFCURVE",
"262 690 CURVE SMOOTH",
"188 690 OFFCURVE",
"166 617 OFFCURVE",
"166 536 CURVE SMOOTH",
"166 37 LINE",
"251 20 LINE",
"251 0 LINE",
"25 0 LINE",
"25 20 LINE",
"100 37 LINE",
"100 517 LINE SMOOTH",
"100 556 OFFCURVE",
"110 601 OFFCURVE",
"133 633 CURVE SMOOTH",
"207 739 OFFCURVE",
"243 762 OFFCURVE",
"292 762 CURVE SMOOTH",
"310 762 OFFCURVE",
"338 758 OFFCURVE",
"348 755 CURVE",
"349 752 LINE",
"325 673 LINE"
);
},
{
closed = 1;
nodes = (
"348 465 LINE",
"348 415 LINE",
"51 415 LINE",
"50 418 LINE",
"100 465 LINE"
);
},
{
closed = 1;
nodes = (
"562 671 LINE",
"553 680 OFFCURVE",
"531 690 OFFCURVE",
"505 690 CURVE SMOOTH",
"431 690 OFFCURVE",
"409 617 OFFCURVE",
"409 536 CURVE SMOOTH",
"409 37 LINE",
"494 20 LINE",
"494 0 LINE",
"268 0 LINE",
"268 20 LINE",
"343 37 LINE",
"343 517 LINE SMOOTH",
"343 556 OFFCURVE",
"353 601 OFFCURVE",
"376 633 CURVE SMOOTH",
"450 739 OFFCURVE",
"486 762 OFFCURVE",
"535 762 CURVE SMOOTH",
"553 762 OFFCURVE",
"581 758 OFFCURVE",
"591 755 CURVE",
"592 752 LINE",
"568 673 LINE"
);
},
{
closed = 1;
nodes = (
"591 465 LINE",
"591 415 LINE",
"294 415 LINE",
"293 418 LINE",
"343 465 LINE"
);
}
);
width = 597;
}
);
leftMetricsKey = n;
rightMetricsKey = r;
},
{
color = 0;
glyphname = zero;
lastChange = "2020-12-03 16:57:42 +0000";
layers = (
{
backgroundImage = {
crop = "{{0, 0}, {294, 68.104}}";
imagePath = "palatino-source/alphabet.jpg";
locked = "1";
transform = "{72.664, 0, 0, 72.664, -11288, -2348}";
};
layerId = "A2204D38-078E-49A4-B70C-87904FFF8E34";
paths = (
{
closed = 1;
nodes = (
"486 101 OFFCURVE",
"379 -10 OFFCURVE",
"235 -10 CURVE SMOOTH",
"112 -10 OFFCURVE",
"45 88 OFFCURVE",
"45 249 CURVE SMOOTH",
"45 468 OFFCURVE",
"136 615 OFFCURVE",
"312 615 CURVE SMOOTH",
"442 615 OFFCURVE",
"486 473 OFFCURVE",
"486 348 CURVE SMOOTH"
);
},
{
closed = 1;
nodes = (
"411 462 OFFCURVE",
"353 561 OFFCURVE",
"257 561 CURVE SMOOTH",
"188 561 OFFCURVE",
"117 477 OFFCURVE",
"117 275 CURVE SMOOTH",
"117 84 OFFCURVE",
"209 31 OFFCURVE",
"272 31 CURVE SMOOTH",
"338 31 OFFCURVE",
"411 98 OFFCURVE",
"411 308 CURVE SMOOTH"
);
}
);
width = 531;
},
{
backgroundImage = {
crop = "{{0, 0}, {294, 68.104}}";
imagePath = "palatino-source/alphabet.jpg";
locked = "1";
transform = "{72.664, 0, 0, 72.664, -11313, -2348}";
};
guideLines = (
{
position = "{366, 621}";
}
);
layerId = "3EDEE92B-4D9D-4D9A-9438-63C2E33416C1";
paths = (
{
closed = 1;
nodes = (
"451 109 OFFCURVE",
"344 -12 OFFCURVE",
"210 -12 CURVE SMOOTH",
"87 -12 OFFCURVE",
"30 88 OFFCURVE",
"30 249 CURVE SMOOTH",
"30 466 OFFCURVE",
"100 621 OFFCURVE",
"287 621 CURVE SMOOTH",
"429 621 OFFCURVE",
"451 426 OFFCURVE",
"451 348 CURVE SMOOTH"
);
},
{
closed = 1;
nodes = (
"386 462 OFFCURVE",
"338 571 OFFCURVE",
"242 571 CURVE SMOOTH",
"149 571 OFFCURVE",
"92 478 OFFCURVE",
"92 275 CURVE SMOOTH",
"92 73 OFFCURVE",
"178 37 OFFCURVE",
"237 37 CURVE SMOOTH",
"316 37 OFFCURVE",
"386 96 OFFCURVE",
"386 308 CURVE SMOOTH"
);
}
);
width = 481;
}
);
unicode = 0030;
},
{
color = 0;
glyphname = one;
lastChange = "2020-12-03 16:58:04 +0000";
layers = (
{
backgroundImage = {
crop = "{{0, 0}, {294, 68.104}}";
imagePath = "palatino-source/alphabet.jpg";
locked = "1";
transform = "{72.664, 0, 0, 72.664, -6456, -2348}";
};
layerId = "A2204D38-078E-49A4-B70C-87904FFF8E34";
paths = (
{
closed = 1;
nodes = (
"47 509 LINE",
"200 532 LINE",
"263 523 LINE",
"263 612 LINE",
"45 555 LINE"
);
},
{
closed = 1;
nodes = (
"197 0 LINE",
"263 0 LINE",
"263 554 LINE",
"197 554 LINE"
);
}
);
width = 308;
},
{
backgroundImage = {
crop = "{{0, 0}, {294, 68.104}}";
imagePath = "palatino-source/alphabet.jpg";
transform = "{72.664, 0, 0, 72.664, -6471, -2348}";
};
guideLines = (
{
angle = 180;
position = "{502, 621}";
}
);
layerId = "3EDEE92B-4D9D-4D9A-9438-63C2E33416C1";
paths = (
{
closed = 1;
nodes = (
"42 509 LINE",
"185 532 LINE",
"245 523 LINE",
"245 621 LINE",
"40 555 LINE"
);
},
{
closed = 1;
nodes = (
"182 0 LINE",
"245 0 LINE",
"245 554 LINE",
"182 554 LINE"
);
}
);
width = 275;
}
);
unicode = 0031;
},
{
color = 0;
glyphname = two;
lastChange = "2020-12-03 16:30:34 +0000";
layers = (
{
backgroundImage = {
crop = "{{0, 0}, {294, 68.104}}";
imagePath = "palatino-source/alphabet.jpg";
locked = "1";
transform = "{72.664, 0, 0, 72.664, -6880, -2348}";
};
layerId = "A2204D38-078E-49A4-B70C-87904FFF8E34";
paths = (
{
closed = 1;
nodes = (
"118 547 LINE",
"152 580 OFFCURVE",
"225 621 OFFCURVE",
"284 621 CURVE SMOOTH",
"357 621 OFFCURVE",
"435 568 OFFCURVE",
"435 479 CURVE SMOOTH",
"435 351 OFFCURVE",
"217 118 OFFCURVE",
"175 75 CURVE",
"179 65 LINE",
"471 65 LINE",
"471 1 LINE",
"45 1 LINE",
"45 20 LINE",
"220 180 OFFCURVE",
"358 317 OFFCURVE",
"350 459 CURVE SMOOTH",
"347 514 OFFCURVE",
"316 552 OFFCURVE",
"254 552 CURVE SMOOTH",
"204 552 OFFCURVE",
"151 515 OFFCURVE",
"118 484 CURVE"
);
}
);
width = 516;
},
{
backgroundImage = {
crop = "{{0, 0}, {294, 68.104}}";
imagePath = "palatino-source/alphabet.jpg";
locked = "1";
transform = "{72.664, 0, 0, 72.664, -6880, -2348}";
};
guideLines = (
{
locked = 1;
position = "{557, 609}";
},
{
position = "{502, 621}";
}
);
layerId = "3EDEE92B-4D9D-4D9A-9438-63C2E33416C1";
paths = (
{
closed = 1;
nodes = (
"128 547 LINE",
"162 580 OFFCURVE",
"213 621 OFFCURVE",
"284 621 CURVE SMOOTH",
"357 621 OFFCURVE",
"427 565 OFFCURVE",
"427 476 CURVE SMOOTH",
"427 348 OFFCURVE",
"312 215 OFFCURVE",
"156 55 CURVE",
"159 51 LINE",
"451 51 LINE",
"451 1 LINE",
"55 1 LINE",
"55 20 LINE",
"219 185 OFFCURVE",
"370 317 OFFCURVE",
"362 459 CURVE SMOOTH",
"359 513 OFFCURVE",
"317 552 OFFCURVE",
"254 552 CURVE SMOOTH",
"206 552 OFFCURVE",
"164 518 OFFCURVE",
"132 488 CURVE",
"128 488 LINE"
);
}
);
width = 516;
}
);
unicode = 0032;
},
{
color = 0;
glyphname = three;
lastChange = "2020-12-03 16:29:53 +0000";
layers = (
{
backgroundImage = {
crop = "{{0, 0}, {294, 68.104}}";
imagePath = "palatino-source/alphabet.jpg";
transform = "{72.664, 0, 0, 72.664, -7410, -2348}";
};
layerId = "A2204D38-078E-49A4-B70C-87904FFF8E34";
paths = (
{
closed = 1;
nodes = (
"133 567 LINE",
"167 600 OFFCURVE",
"220 621 OFFCURVE",
"279 621 CURVE SMOOTH",
"352 621 OFFCURVE",
"399 573 OFFCURVE",
"399 523 CURVE SMOOTH",
"399 447 OFFCURVE",
"320 395 OFFCURVE",
"278 352 CURVE",
"302 333 LINE",
"189 332 LINE",
"249 368 OFFCURVE",
"320 395 OFFCURVE",
"325 468 CURVE SMOOTH",
"329 523 OFFCURVE",
"311 552 OFFCURVE",
"249 552 CURVE SMOOTH",
"199 552 OFFCURVE",
"166 535 OFFCURVE",
"133 504 CURVE"
);
},
{
closed = 1;
nodes = (
"113 84 OFFCURVE",
"136 49 OFFCURVE",
"199 49 CURVE SMOOTH",
"308 49 OFFCURVE",
"378 124 OFFCURVE",
"378 210 CURVE SMOOTH",
"378 257 OFFCURVE",
"334 308 OFFCURVE",
"290 308 CURVE SMOOTH",
"258 308 OFFCURVE",
"214 298 OFFCURVE",
"189 287 CURVE",
"189 332 LINE",
"301 379 LINE",
"338 370 OFFCURVE",
"445 337 OFFCURVE",
"445 237 CURVE SMOOTH",
"445 97 OFFCURVE",
"286 -10 OFFCURVE",
"191 -10 CURVE SMOOTH",
"132 -10 OFFCURVE",
"79 17 OFFCURVE",
"45 50 CURVE",
"95 115 LINE"
);
}
);
width = 490;
},
{
backgroundImage = {
crop = "{{0, 0}, {294, 68.104}}";
imagePath = "palatino-source/alphabet.jpg";
locked = "1";
transform = "{72.664, 0, 0, 72.664, -7435, -2348}";
};
guideLines = (
{
position = "{477, 621}";
}
);
layerId = "3EDEE92B-4D9D-4D9A-9438-63C2E33416C1";
paths = (
{
closed = 1;
nodes = (
"118 567 LINE",
"152 600 OFFCURVE",
"195 621 OFFCURVE",
"254 621 CURVE SMOOTH",
"327 621 OFFCURVE",
"365 573 OFFCURVE",
"365 523 CURVE SMOOTH",
"365 440 OFFCURVE",
"298 390 OFFCURVE",
"250 351 CURVE",
"174 332 LINE",
"234 368 OFFCURVE",
"301 412 OFFCURVE",
"301 478 CURVE SMOOTH",
"301 523 OFFCURVE",
"273 567 OFFCURVE",
"220 567 CURVE SMOOTH",
"172 567 OFFCURVE",
"139 549 OFFCURVE",
"122 528 CURVE",
"118 528 LINE"
);
},
{
closed = 1;
nodes = (
"98 67 OFFCURVE",
"124 32 OFFCURVE",
"190 32 CURVE SMOOTH",
"266 32 OFFCURVE",
"353 122 OFFCURVE",
"353 210 CURVE SMOOTH",
"353 264 OFFCURVE",
"323 321 OFFCURVE",
"260 321 CURVE SMOOTH",
"222 321 OFFCURVE",
"192 303 OFFCURVE",
"174 294 CURVE",
"174 332 LINE",
"253 364 LINE",
"310 379 OFFCURVE",
"412 337 OFFCURVE",
"412 237 CURVE SMOOTH",
"412 114 OFFCURVE",
"284 -12 OFFCURVE",
"166 -12 CURVE SMOOTH",
"100 -12 OFFCURVE",
"62 11 OFFCURVE",
"30 50 CURVE",
"80 98 LINE"
);
}
);
width = 442;
}
);
unicode = 0033;
},
{
color = 0;
glyphname = four;
lastChange = "2020-12-03 16:32:59 +0000";
layers = (
{
backgroundImage = {
crop = "{{0, 0}, {294, 68.104}}";
imagePath = "palatino-source/alphabet.jpg";
transform = "{72.664, 0, 0, 72.664, -7924, -2348}";
};
layerId = "A2204D38-078E-49A4-B70C-87904FFF8E34";
paths = (
{
closed = 1;
nodes = (
"60 154 LINE",
"97 154 LINE",
"331 551 LINE",
"334 549 LINE",
"399 522 LINE",
"399 632 LINE",
"316 612 LINE",
"45 169 LINE"
);
},
{
closed = 1;
nodes = (
"333 0 LINE",
"399 0 LINE",
"399 554 LINE",
"333 554 LINE"
);
},
{
closed = 1;
nodes = (
"485 154 LINE",
"485 209 LINE",
"113 209 LINE",
"92 154 LINE"
);
}
);
width = 525;
},
{
backgroundImage = {
crop = "{{0, 0}, {294, 68.104}}";
imagePath = "palatino-source/alphabet.jpg";
locked = "1";
transform = "{72.664, 0, 0, 72.664, -7949, -2357}";
};
guideLines = (
{
position = "{452, 621}";
}
);
layerId = "3EDEE92B-4D9D-4D9A-9438-63C2E33416C1";
paths = (
{
closed = 1;
nodes = (
"35 151 LINE",
"72 151 LINE",
"306 551 LINE",
"309 550 LINE",
"371 522 LINE",
"371 621 LINE",
"290 600 LINE",
"30 169 LINE"
);
},
{
closed = 1;
nodes = (
"308 0 LINE",
"371 0 LINE",
"371 554 LINE",
"308 554 LINE"
);
},
{
closed = 1;
nodes = (
"88 201 LINE",
"67 151 LINE",
"437 151 LINE",
"454 195 LINE",
"448 201 LINE"
);
}
);
width = 484;
}
);
unicode = 0034;
},
{
color = 0;
glyphname = five;
lastChange = "2020-12-03 16:37:29 +0000";
layers = (
{
backgroundImage = {
crop = "{{0, 0}, {294, 68.104}}";
imagePath = "palatino-source/alphabet.jpg";
transform = "{72.664, 0, 0, 72.664, -8508, -2348}";
};
layerId = "A2204D38-078E-49A4-B70C-87904FFF8E34";
paths = (
{
closed = 1;
nodes = (
"249 420 OFFCURVE",
"223 416 OFFCURVE",
"196 404 CURVE",
"202 556 LINE",
"180 541 LINE",
"422 541 LINE",
"475 617 LINE",
"470 623 LINE",
"174 623 LINE",
"140 588 LINE",
"140 300 LINE",
"159 305 LINE",
"169 316 OFFCURVE",
"216 338 OFFCURVE",
"260 338 CURVE SMOOTH",
"307 338 OFFCURVE",
"369 300 OFFCURVE",
"369 222 CURVE SMOOTH",
"369 119 OFFCURVE",
"300 50 OFFCURVE",
"209 50 CURVE SMOOTH",
"152 50 OFFCURVE",
"124 88 OFFCURVE",
"111 115 CURVE",
"45 65 LINE",
"60 38 OFFCURVE",
"92 -10 OFFCURVE",
"190 -10 CURVE SMOOTH",
"362 -10 OFFCURVE",
"447 172 OFFCURVE",
"447 270 CURVE SMOOTH",
"447 368 OFFCURVE",
"374 420 OFFCURVE",
"284 420 CURVE SMOOTH"
);
}
);
width = 520;
},
{
backgroundImage = {
crop = "{{0, 0}, {294, 68.104}}";
imagePath = "palatino-source/alphabet.jpg";
locked = "1";
transform = "{72.664, 0, 0, 72.664, -8508, -2348}";
};
guideLines = (
{
position = "{460, 609}";
}
);
layerId = "3EDEE92B-4D9D-4D9A-9438-63C2E33416C1";
paths = (
{
closed = 1;
nodes = (
"260 413 OFFCURVE",
"222 398 OFFCURVE",
"192 375 CURVE",
"203 566 LINE",
"180 556 LINE",
"422 556 LINE",
"463 603 LINE",
"460 609 LINE",
"174 609 LINE",
"140 588 LINE",
"140 300 LINE",
"159 305 LINE",
"169 316 OFFCURVE",
"216 348 OFFCURVE",
"260 348 CURVE SMOOTH",
"320 348 OFFCURVE",
"379 300 OFFCURVE",
"379 222 CURVE SMOOTH",
"379 116 OFFCURVE",
"299 30 OFFCURVE",
"209 30 CURVE SMOOTH",
"152 30 OFFCURVE",
"134 68 OFFCURVE",
"121 95 CURVE",
"65 55 LINE",
"82 29 OFFCURVE",
"111 -12 OFFCURVE",
"190 -12 CURVE SMOOTH",
"349 -12 OFFCURVE",
"440 172 OFFCURVE",
"440 270 CURVE SMOOTH",
"440 353 OFFCURVE",
"374 413 OFFCURVE",
"307 413 CURVE SMOOTH"
);
}
);
width = 520;
}
);
unicode = 0035;
},
{
color = 0;
glyphname = six;
lastChange = "2020-12-03 16:47:25 +0000";
layers = (
{
background = {
paths = (
{
closed = 0;
nodes = (
"47 202 LINE SMOOTH",
"47 369 OFFCURVE",
"218 552 OFFCURVE",
"360 656 CURVE",
"402 615 LINE",
"299 554 OFFCURVE",
"229 494 OFFCURVE",
"154 386 CURVE",
"158 382 LINE",
"183 403 OFFCURVE",
"245 441 OFFCURVE",
"322 441 CURVE SMOOTH"
);
},
{
closed = 0;
nodes = (
"279 381 LINE SMOOTH",
"209 381 OFFCURVE",
"123 337 OFFCURVE",
"123 240 CURVE SMOOTH"
);
},
{
closed = 0;
nodes = (
"47 202 LINE SMOOTH",
"47 369 OFFCURVE",
"218 552 OFFCURVE",
"360 656 CURVE",
"402 615 LINE",
"299 554 OFFCURVE",
"229 494 OFFCURVE",
"154 386 CURVE",
"158 382 LINE",
"183 403 OFFCURVE",
"245 441 OFFCURVE",
"322 441 CURVE SMOOTH"
);
},
{
closed = 0;
nodes = (
"279 381 LINE SMOOTH",
"209 381 OFFCURVE",
"123 337 OFFCURVE",
"123 240 CURVE SMOOTH"
);
}
);
};
backgroundImage = {
crop = "{{0, 0}, {294, 68.104}}";
imagePath = "palatino-source/alphabet.jpg";
transform = "{72.664, 0, 0, 72.664, -9064, -2348}";
};
layerId = "A2204D38-078E-49A4-B70C-87904FFF8E34";
paths = (
{
closed = 1;
nodes = (
"45 316 OFFCURVE",
"189 435 OFFCURVE",
"323 435 CURVE SMOOTH",
"436 435 OFFCURVE",
"492 376 OFFCURVE",
"492 264 CURVE SMOOTH",
"492 102 OFFCURVE",
"355 -10 OFFCURVE",
"230 -10 CURVE SMOOTH",
"105 -10 OFFCURVE",
"45 96 OFFCURVE",
"45 186 CURVE SMOOTH"
);
},
{
closed = 1;
nodes = (
"117 148 OFFCURVE",
"166 44 OFFCURVE",
"271 44 CURVE SMOOTH",
"370 44 OFFCURVE",
"420 133 OFFCURVE",
"420 231 CURVE SMOOTH",
"420 314 OFFCURVE",
"357 381 OFFCURVE",
"270 381 CURVE SMOOTH",
"183 381 OFFCURVE",
"117 319 OFFCURVE",
"117 208 CURVE SMOOTH"
);
},
{
closed = 1;
nodes = (
"45 379 OFFCURVE",
"222 550 OFFCURVE",
"364 654 CURVE",
"402 615 LINE",
"297 551 OFFCURVE",
"183 440 OFFCURVE",
"154 380 CURVE",
"158 372 LINE",
"45 186 LINE"
);
}
);
width = 537;
},
{
background = {
paths = (
{
closed = 0;
nodes = (
"47 202 LINE SMOOTH",
"47 369 OFFCURVE",
"218 552 OFFCURVE",
"360 656 CURVE",
"402 615 LINE",
"299 554 OFFCURVE",
"229 494 OFFCURVE",
"154 386 CURVE",
"158 382 LINE",
"183 403 OFFCURVE",
"245 441 OFFCURVE",
"322 441 CURVE SMOOTH"
);
},
{
closed = 0;
nodes = (
"279 381 LINE SMOOTH",
"209 381 OFFCURVE",
"123 337 OFFCURVE",
"123 240 CURVE SMOOTH"
);
},
{
closed = 0;
nodes = (
"47 202 LINE SMOOTH",
"47 369 OFFCURVE",
"218 552 OFFCURVE",
"360 656 CURVE",
"402 615 LINE",
"299 554 OFFCURVE",
"229 494 OFFCURVE",
"154 386 CURVE",
"158 382 LINE",
"183 403 OFFCURVE",
"245 441 OFFCURVE",
"322 441 CURVE SMOOTH"
);
},
{
closed = 0;
nodes = (
"279 381 LINE SMOOTH",
"209 381 OFFCURVE",
"123 337 OFFCURVE",
"123 240 CURVE SMOOTH"
);
}
);
};
backgroundImage = {
crop = "{{0, 0}, {294, 68.104}}";
imagePath = "palatino-source/alphabet.jpg";
locked = "1";
transform = "{72.664, 0, 0, 72.664, -9064, -2358}";
};
guideLines = (
{
position = "{460, 621}";
}
);
layerId = "3EDEE92B-4D9D-4D9A-9438-63C2E33416C1";
paths = (
{
closed = 1;
nodes = (
"64 275 OFFCURVE",
"192 406 OFFCURVE",
"321 406 CURVE SMOOTH",
"442 406 OFFCURVE",
"482 336 OFFCURVE",
"482 238 CURVE SMOOTH",
"482 138 OFFCURVE",
"394 -16 OFFCURVE",
"232 -12 CURVE SMOOTH",
"119 -9 OFFCURVE",
"64 64 OFFCURVE",
"64 178 CURVE SMOOTH"
);
},
{
closed = 1;
nodes = (
"118 114 OFFCURVE",
"176 34 OFFCURVE",
"268 34 CURVE SMOOTH",
"357 34 OFFCURVE",
"423 112 OFFCURVE",
"423 202 CURVE SMOOTH",
"423 305 OFFCURVE",
"350 356 OFFCURVE",
"272 356 CURVE SMOOTH",
"182 356 OFFCURVE",
"118 269 OFFCURVE",
"118 190 CURVE SMOOTH"
);
},
{
closed = 1;
nodes = (
"64 364 OFFCURVE",
"233 537 OFFCURVE",
"365 621 CURVE",
"395 587 LINE",
"294 526 OFFCURVE",
"183 408 OFFCURVE",
"155 350 CURVE",
"162 343 LINE",
"64 178 LINE"
);
}
);
width = 537;
}
);
unicode = 0036;
},
{
color = 0;
glyphname = seven;
lastChange = "2020-12-03 16:49:49 +0000";
layers = (
{
backgroundImage = {
crop = "{{0, 0}, {294, 68.104}}";
imagePath = "palatino-source/alphabet.jpg";
locked = "1";
transform = "{72.664, 0, 0, 72.664, -9648, -2348}";
};
layerId = "A2204D38-078E-49A4-B70C-87904FFF8E34";
paths = (
{
closed = 1;
nodes = (
"436 611 LINE",
"436 601 LINE",
"107 0 LINE",
"45 0 LINE",
"348 534 LINE",
"345 543 LINE",
"46 543 LINE",
"59 617 LINE"
);
}
);
width = 481;
},
{
backgroundImage = {
crop = "{{0, 0}, {294, 68.104}}";
imagePath = "palatino-source/alphabet.jpg";
locked = "1";
transform = "{72.664, 0, 0, 72.664, -9663, -2348}";
};
guideLines = (
{
position = "{445, 621}";
}
);
layerId = "3EDEE92B-4D9D-4D9A-9438-63C2E33416C1";
paths = (
{
closed = 1;
nodes = (
"421 609 LINE",
"421 600 LINE",
"92 0 LINE",
"30 0 LINE",
"344 547 LINE",
"338 557 LINE",
"51 557 LINE",
"44 609 LINE"
);
}
);
width = 451;
}
);
unicode = 0037;
},
{
color = 0;
glyphname = eight;
lastChange = "2020-12-03 16:52:07 +0000";
layers = (
{
backgroundImage = {
crop = "{{0, 0}, {294, 68.104}}";
imagePath = "palatino-source/alphabet.jpg";
locked = "1";
transform = "{72.664, 0, 0, 72.664, -10132, -2348}";
};
layerId = "A2204D38-078E-49A4-B70C-87904FFF8E34";
paths = (
{
closed = 1;
nodes = (
"317 625 OFFCURVE",
"408 602 OFFCURVE",
"408 520 CURVE SMOOTH",
"408 442 OFFCURVE",
"355 390 OFFCURVE",
"216 316 CURVE SMOOTH",
"131 271 OFFCURVE",
"111 196 OFFCURVE",
"111 151 CURVE SMOOTH",
"111 113 OFFCURVE",
"145 42 OFFCURVE",
"244 42 CURVE SMOOTH",
"324 42 OFFCURVE",
"392 92 OFFCURVE",
"392 196 CURVE SMOOTH",
"392 263 OFFCURVE",
"324 298 OFFCURVE",
"252 316 CURVE SMOOTH",
"149 342 OFFCURVE",
"91 366 OFFCURVE",
"91 459 CURVE SMOOTH",
"91 526 OFFCURVE",
"180 625 OFFCURVE",
"251 625 CURVE SMOOTH"
);
},
{
closed = 1;
nodes = (
"179 568 OFFCURVE",
"143 526 OFFCURVE",
"143 478 CURVE SMOOTH",
"143 428 OFFCURVE",
"196 389 OFFCURVE",
"287 361 CURVE SMOOTH",
"420 320 OFFCURVE",
"458 299 OFFCURVE",
"458 201 CURVE SMOOTH",
"458 84 OFFCURVE",
"287 -10 OFFCURVE",
"204 -10 CURVE SMOOTH",
"114 -10 OFFCURVE",
"45 47 OFFCURVE",
"45 127 CURVE SMOOTH",
"45 223 OFFCURVE",
"137 292 OFFCURVE",
"218 344 CURVE SMOOTH",
"338 421 OFFCURVE",
"340 436 OFFCURVE",
"340 500 CURVE SMOOTH",
"340 542 OFFCURVE",
"299 568 OFFCURVE",
"240 568 CURVE SMOOTH"
);
}
);
width = 503;
},
{
backgroundImage = {
crop = "{{0, 0}, {294, 68.104}}";
imagePath = "palatino-source/alphabet.jpg";
locked = "1";
transform = "{72.664, 0, 0, 72.664, -10152, -2348}";
};
guideLines = (
{
position = "{425, 621}";
}
);
layerId = "3EDEE92B-4D9D-4D9A-9438-63C2E33416C1";
paths = (
{
closed = 1;
nodes = (
"295 621 OFFCURVE",
"378 597 OFFCURVE",
"378 520 CURVE SMOOTH",
"378 442 OFFCURVE",
"332 396 OFFCURVE",
"196 316 CURVE SMOOTH",
"111 266 OFFCURVE",
"90 196 OFFCURVE",
"90 151 CURVE SMOOTH",
"90 113 OFFCURVE",
"125 36 OFFCURVE",
"224 36 CURVE SMOOTH",
"304 36 OFFCURVE",
"374 92 OFFCURVE",
"374 196 CURVE SMOOTH",
"374 263 OFFCURVE",
"304 293 OFFCURVE",
"232 316 CURVE SMOOTH",
"142 345 OFFCURVE",
"78 368 OFFCURVE",
"78 459 CURVE SMOOTH",
"78 514 OFFCURVE",
"160 621 OFFCURVE",
"245 621 CURVE SMOOTH"
);
},
{
closed = 1;
nodes = (
"159 570 OFFCURVE",
"123 530 OFFCURVE",
"123 478 CURVE SMOOTH",
"123 428 OFFCURVE",
"176 381 OFFCURVE",
"267 353 CURVE SMOOTH",
"391 315 OFFCURVE",
"429 302 OFFCURVE",
"429 201 CURVE SMOOTH",
"429 84 OFFCURVE",
"267 -12 OFFCURVE",
"184 -12 CURVE SMOOTH",
"94 -12 OFFCURVE",
"30 47 OFFCURVE",
"30 127 CURVE SMOOTH",
"30 223 OFFCURVE",
"113 299 OFFCURVE",
"198 344 CURVE SMOOTH",
"304 400 OFFCURVE",
"320 457 OFFCURVE",
"320 490 CURVE SMOOTH",
"320 532 OFFCURVE",
"279 570 OFFCURVE",
"220 570 CURVE SMOOTH"
);
}
);
width = 459;
}
);
unicode = 0038;
},
{
color = 0;
glyphname = nine;
lastChange = "2020-12-03 16:54:19 +0000";
layers = (
{
backgroundImage = {
crop = "{{0, 0}, {294, 68.104}}";
imagePath = "palatino-source/alphabet.jpg";
transform = "{72.664, 0, 0, 72.664, -10694, -2348}";
};
layerId = "A2204D38-078E-49A4-B70C-87904FFF8E34";
paths = (
{
closed = 1;
nodes = (
"482 328 OFFCURVE",
"346 232 OFFCURVE",
"231 232 CURVE SMOOTH",
"118 232 OFFCURVE",
"45 297 OFFCURVE",
"45 409 CURVE SMOOTH",
"45 538 OFFCURVE",
"172 637 OFFCURVE",
"291 637 CURVE SMOOTH",
"416 637 OFFCURVE",
"482 529 OFFCURVE",
"482 458 CURVE SMOOTH"
);
},
{
closed = 1;
nodes = (
"407 513 OFFCURVE",
"332 583 OFFCURVE",
"253 583 CURVE SMOOTH",
"167 583 OFFCURVE",
"117 525 OFFCURVE",
"117 458 CURVE SMOOTH",
"117 331 OFFCURVE",
"205 287 OFFCURVE",
"268 287 CURVE SMOOTH",
"334 287 OFFCURVE",
"407 326 OFFCURVE",
"407 418 CURVE SMOOTH"
);
},
{
closed = 1;
nodes = (
"482 153 OFFCURVE",
"232 20 OFFCURVE",
"152 -10 CURVE",
"103 29 LINE",
"231 60 OFFCURVE",
"358 165 OFFCURVE",
"417 303 CURVE",
"409 303 LINE",
"482 458 LINE"
);
}
);
width = 527;
},
{
backgroundImage = {
crop = "{{0, 0}, {294, 68.104}}";
imagePath = "palatino-source/alphabet.jpg";
locked = "1";
transform = "{72.664, 0, 0, 72.664, -10719, -2348}";
};
guideLines = (
{
position = "{391, 621}";
}
);
layerId = "3EDEE92B-4D9D-4D9A-9438-63C2E33416C1";
paths = (
{
closed = 1;
nodes = (
"447 326 OFFCURVE",
"321 232 OFFCURVE",
"206 232 CURVE SMOOTH",
"94 232 OFFCURVE",
"30 317 OFFCURVE",
"30 407 CURVE SMOOTH",
"30 536 OFFCURVE",
"147 621 OFFCURVE",
"266 621 CURVE SMOOTH",
"391 621 OFFCURVE",
"447 527 OFFCURVE",
"447 456 CURVE SMOOTH"
);
},
{
closed = 1;
nodes = (
"388 513 OFFCURVE",
"307 583 OFFCURVE",
"228 583 CURVE SMOOTH",
"142 583 OFFCURVE",
"92 525 OFFCURVE",
"92 458 CURVE SMOOTH",
"92 331 OFFCURVE",
"180 285 OFFCURVE",
"243 285 CURVE SMOOTH",
"309 285 OFFCURVE",
"388 326 OFFCURVE",
"388 418 CURVE SMOOTH"
);
},
{
closed = 1;
nodes = (
"447 151 OFFCURVE",
"207 18 OFFCURVE",
"127 -12 CURVE",
"85 24 LINE",
"217 53 OFFCURVE",
"331 165 OFFCURVE",
"392 301 CURVE",
"378 310 LINE",
"447 456 LINE"
);
}
);
width = 477;
}
);
unicode = 0039;
},
{
color = 0;
glyphname = period;
lastChange = "2020-12-03 13:59:59 +0000";
layers = (
{
layerId = "A2204D38-078E-49A4-B70C-87904FFF8E34";
paths = (
{
closed = 1;
nodes = (
"80 -12 OFFCURVE",
"101 9 OFFCURVE",
"101 36 CURVE SMOOTH",
"101 63 OFFCURVE",
"80 84 OFFCURVE",
"53 84 CURVE SMOOTH",
"26 84 OFFCURVE",
"5 63 OFFCURVE",
"5 36 CURVE SMOOTH",
"5 9 OFFCURVE",
"26 -12 OFFCURVE",
"53 -12 CURVE"
);
}
);
width = 121;
},
{
layerId = "3EDEE92B-4D9D-4D9A-9438-63C2E33416C1";
paths = (
{
closed = 1;
nodes = (
"80 -12 OFFCURVE",
"101 9 OFFCURVE",
"101 36 CURVE SMOOTH",
"101 63 OFFCURVE",
"80 84 OFFCURVE",
"53 84 CURVE SMOOTH",
"26 84 OFFCURVE",
"5 63 OFFCURVE",
"5 36 CURVE SMOOTH",
"5 9 OFFCURVE",
"26 -12 OFFCURVE",
"53 -12 CURVE"
);
}
);
width = 121;
}
);
unicode = 002E;
},
{
color = 0;
glyphname = comma;
lastChange = "2020-12-03 13:59:13 +0000";
layers = (
{
layerId = "A2204D38-078E-49A4-B70C-87904FFF8E34";
paths = (
{
closed = 1;
nodes = (
"5 -173 LINE",
"53 -182 LINE",
"191 55 LINE",
"184 93 LINE",
"172 93 LINE",
"143 70 OFFCURVE",
"112 63 OFFCURVE",
"81 54 CURVE",
"62 -25 OFFCURVE",
"38 -103 OFFCURVE",
"5 -159 CURVE"
);
}
);
width = 211;
},
{
layerId = "3EDEE92B-4D9D-4D9A-9438-63C2E33416C1";
paths = (
{
closed = 1;
nodes = (
"5 -173 LINE",
"53 -182 LINE",
"191 55 LINE",
"184 93 LINE",
"172 93 LINE",
"143 70 OFFCURVE",
"112 63 OFFCURVE",
"81 54 CURVE",
"62 -25 OFFCURVE",
"38 -103 OFFCURVE",
"5 -159 CURVE"
);
}
);
width = 211;
}
);
unicode = 002C;
},
{
color = 0;
glyphname = colon;
lastChange = "2020-12-03 13:56:39 +0000";
layers = (
{
layerId = "A2204D38-078E-49A4-B70C-87904FFF8E34";
paths = (
{
closed = 1;
nodes = (
"81 278 OFFCURVE",
"101 299 OFFCURVE",
"101 326 CURVE SMOOTH",
"101 353 OFFCURVE",
"80 374 OFFCURVE",
"53 374 CURVE SMOOTH",
"26 374 OFFCURVE",
"5 353 OFFCURVE",
"5 326 CURVE SMOOTH",
"5 299 OFFCURVE",
"26 278 OFFCURVE",
"53 278 CURVE"
);
},
{
closed = 1;
nodes = (
"81 48 OFFCURVE",
"101 69 OFFCURVE",
"101 96 CURVE SMOOTH",
"101 123 OFFCURVE",
"80 144 OFFCURVE",
"53 144 CURVE SMOOTH",
"26 144 OFFCURVE",
"5 123 OFFCURVE",
"5 96 CURVE SMOOTH",
"5 69 OFFCURVE",
"26 48 OFFCURVE",
"53 48 CURVE"
);
}
);
width = 121;
},
{
layerId = "3EDEE92B-4D9D-4D9A-9438-63C2E33416C1";
paths = (
{
closed = 1;
nodes = (
"81 278 OFFCURVE",
"101 299 OFFCURVE",
"101 326 CURVE SMOOTH",
"101 353 OFFCURVE",
"80 374 OFFCURVE",
"53 374 CURVE SMOOTH",
"26 374 OFFCURVE",
"5 353 OFFCURVE",
"5 326 CURVE SMOOTH",
"5 299 OFFCURVE",
"26 278 OFFCURVE",
"53 278 CURVE"
);
},
{
closed = 1;
nodes = (
"81 48 OFFCURVE",
"101 69 OFFCURVE",
"101 96 CURVE SMOOTH",
"101 123 OFFCURVE",
"80 144 OFFCURVE",
"53 144 CURVE SMOOTH",
"26 144 OFFCURVE",
"5 123 OFFCURVE",
"5 96 CURVE SMOOTH",
"5 69 OFFCURVE",
"26 48 OFFCURVE",
"53 48 CURVE"
);
}
);
width = 121;
}
);
unicode = 003A;
},
{
color = 0;
glyphname = semicolon;
lastChange = "2020-12-03 13:57:51 +0000";
layers = (
{
backgroundImage = {
crop = "{{0, 0}, {294, 68.104}}";
imagePath = "palatino-source/alphabet.jpg";
transform = "{72.664, 0, 0, 72.664, -3331, -2344}";
};
layerId = "A2204D38-078E-49A4-B70C-87904FFF8E34";
paths = (
{
closed = 1;
nodes = (
"5 -173 LINE",
"53 -182 LINE",
"191 55 LINE",
"184 93 LINE",
"172 93 LINE",
"143 70 OFFCURVE",
"112 63 OFFCURVE",
"81 54 CURVE",
"62 -25 OFFCURVE",
"38 -103 OFFCURVE",
"5 -159 CURVE"
);
},
{
closed = 1;
nodes = (
"157 278 OFFCURVE",
"177 299 OFFCURVE",
"177 326 CURVE SMOOTH",
"177 353 OFFCURVE",
"156 374 OFFCURVE",
"129 374 CURVE SMOOTH",
"102 374 OFFCURVE",
"81 353 OFFCURVE",
"81 326 CURVE SMOOTH",
"81 299 OFFCURVE",
"102 278 OFFCURVE",
"129 278 CURVE"
);
}
);
width = 211;
},
{
backgroundImage = {
crop = "{{0, 0}, {305.926, 73.749}}";
imagePath = ../pala/pala.png;
locked = "1";
transform = "{82.773, 0, 0, 82.773, -4416, -2837}";
};
layerId = "3EDEE92B-4D9D-4D9A-9438-63C2E33416C1";
paths = (
{
closed = 1;
nodes = (
"5 -173 LINE",
"53 -182 LINE",
"191 55 LINE",
"184 93 LINE",
"172 93 LINE",
"143 70 OFFCURVE",
"112 63 OFFCURVE",
"81 54 CURVE",
"62 -25 OFFCURVE",
"38 -103 OFFCURVE",
"5 -159 CURVE"
);
},
{
closed = 1;
nodes = (
"157 278 OFFCURVE",
"177 299 OFFCURVE",
"177 326 CURVE SMOOTH",
"177 353 OFFCURVE",
"156 374 OFFCURVE",
"129 374 CURVE SMOOTH",
"102 374 OFFCURVE",
"81 353 OFFCURVE",
"81 326 CURVE SMOOTH",
"81 299 OFFCURVE",
"102 278 OFFCURVE",
"129 278 CURVE"
);
}
);
width = 211;
}
);
unicode = 003B;
},
{
color = 0;
glyphname = ellipsis;
lastChange = "2020-12-03 14:01:07 +0000";
layers = (
{
layerId = "A2204D38-078E-49A4-B70C-87904FFF8E34";
paths = (
{
closed = 1;
nodes = (
"80 -12 OFFCURVE",
"101 9 OFFCURVE",
"101 36 CURVE SMOOTH",
"101 63 OFFCURVE",
"80 84 OFFCURVE",
"53 84 CURVE SMOOTH",
"26 84 OFFCURVE",
"5 63 OFFCURVE",
"5 36 CURVE SMOOTH",
"5 9 OFFCURVE",
"26 -12 OFFCURVE",
"53 -12 CURVE"
);
},
{
closed = 1;
nodes = (
"220 -12 OFFCURVE",
"241 9 OFFCURVE",
"241 36 CURVE SMOOTH",
"241 63 OFFCURVE",
"220 84 OFFCURVE",
"193 84 CURVE SMOOTH",
"166 84 OFFCURVE",
"145 63 OFFCURVE",
"145 36 CURVE SMOOTH",
"145 9 OFFCURVE",
"166 -12 OFFCURVE",
"193 -12 CURVE"
);
},
{
closed = 1;
nodes = (
"360 -12 OFFCURVE",
"381 9 OFFCURVE",
"381 36 CURVE SMOOTH",
"381 63 OFFCURVE",
"360 84 OFFCURVE",
"333 84 CURVE SMOOTH",
"306 84 OFFCURVE",
"285 63 OFFCURVE",
"285 36 CURVE SMOOTH",
"285 9 OFFCURVE",
"306 -12 OFFCURVE",
"333 -12 CURVE"
);
}
);
width = 401;
},
{
layerId = "3EDEE92B-4D9D-4D9A-9438-63C2E33416C1";
paths = (
{
closed = 1;
nodes = (
"80 -12 OFFCURVE",
"101 9 OFFCURVE",
"101 36 CURVE SMOOTH",
"101 63 OFFCURVE",
"80 84 OFFCURVE",
"53 84 CURVE SMOOTH",
"26 84 OFFCURVE",
"5 63 OFFCURVE",
"5 36 CURVE SMOOTH",
"5 9 OFFCURVE",
"26 -12 OFFCURVE",
"53 -12 CURVE"
);
},
{
closed = 1;
nodes = (
"220 -12 OFFCURVE",
"241 9 OFFCURVE",
"241 36 CURVE SMOOTH",
"241 63 OFFCURVE",
"220 84 OFFCURVE",
"193 84 CURVE SMOOTH",
"166 84 OFFCURVE",
"145 63 OFFCURVE",
"145 36 CURVE SMOOTH",
"145 9 OFFCURVE",
"166 -12 OFFCURVE",
"193 -12 CURVE"
);
},
{
closed = 1;
nodes = (
"360 -12 OFFCURVE",
"381 9 OFFCURVE",
"381 36 CURVE SMOOTH",
"381 63 OFFCURVE",
"360 84 OFFCURVE",
"333 84 CURVE SMOOTH",
"306 84 OFFCURVE",
"285 63 OFFCURVE",
"285 36 CURVE SMOOTH",
"285 9 OFFCURVE",
"306 -12 OFFCURVE",
"333 -12 CURVE"
);
}
);
width = 401;
}
);
unicode = 2026;
},
{
color = 0;
glyphname = exclam;
lastChange = "2020-12-03 14:01:13 +0000";
layers = (
{
layerId = "A2204D38-078E-49A4-B70C-87904FFF8E34";
paths = (
{
closed = 1;
nodes = (
"38 141 LINE",
"60 141 LINE",
"67 150 LINE",
"122 710 LINE",
"110 724 LINE",
"13 700 LINE"
);
},
{
closed = 1;
nodes = (
"80 -12 OFFCURVE",
"101 9 OFFCURVE",
"101 36 CURVE SMOOTH",
"101 63 OFFCURVE",
"80 84 OFFCURVE",
"53 84 CURVE SMOOTH",
"26 84 OFFCURVE",
"5 63 OFFCURVE",
"5 36 CURVE SMOOTH",
"5 9 OFFCURVE",
"26 -12 OFFCURVE",
"53 -12 CURVE"
);
}
);
width = 142;
},
{
backgroundImage = {
crop = "{{0, 0}, {305.926, 73.749}}";
imagePath = ../pala/pala.png;
transform = "{82.773, 0, 0, 82.773, -4802, -2837}";
};
layerId = "3EDEE92B-4D9D-4D9A-9438-63C2E33416C1";
paths = (
{
closed = 1;
nodes = (
"38 141 LINE",
"60 141 LINE",
"67 150 LINE",
"122 710 LINE",
"110 724 LINE",
"13 700 LINE"
);
},
{
closed = 1;
nodes = (
"80 -12 OFFCURVE",
"101 9 OFFCURVE",
"101 36 CURVE SMOOTH",
"101 63 OFFCURVE",
"80 84 OFFCURVE",
"53 84 CURVE SMOOTH",
"26 84 OFFCURVE",
"5 63 OFFCURVE",
"5 36 CURVE SMOOTH",
"5 9 OFFCURVE",
"26 -12 OFFCURVE",
"53 -12 CURVE"
);
}
);
width = 142;
}
);
unicode = 0021;
},
{
color = 0;
glyphname = question;
lastChange = "2020-12-03 13:50:26 +0000";
layers = (
{
backgroundImage = {
crop = "{{0, 0}, {294, 68.104}}";
imagePath = "palatino-source/alphabet.jpg";
transform = "{72.664, 0, 0, 72.664, -3972, -2355}";
};
layerId = "A2204D38-078E-49A4-B70C-87904FFF8E34";
paths = (
{
closed = 1;
nodes = (
"214 -12 OFFCURVE",
"235 9 OFFCURVE",
"235 36 CURVE SMOOTH",
"235 63 OFFCURVE",
"214 84 OFFCURVE",
"187 84 CURVE SMOOTH",
"160 84 OFFCURVE",
"139 63 OFFCURVE",
"139 36 CURVE SMOOTH",
"139 9 OFFCURVE",
"160 -12 OFFCURVE",
"187 -12 CURVE"
);
},
{
closed = 1;
nodes = (
"5 556 LINE",
"27 556 LINE",
"35 596 OFFCURVE",
"68 630 OFFCURVE",
"161 630 CURVE SMOOTH",
"203 630 OFFCURVE",
"261 589 OFFCURVE",
"261 542 CURVE SMOOTH",
"261 394 OFFCURVE",
"122 295 OFFCURVE",
"122 192 CURVE SMOOTH",
"122 167 OFFCURVE",
"134 146 OFFCURVE",
"139 128 CURVE",
"213 128 LINE",
"234 149 LINE",
"217 162 OFFCURVE",
"178 179 OFFCURVE",
"178 218 CURVE SMOOTH",
"178 304 OFFCURVE",
"336 478 OFFCURVE",
"336 567 CURVE SMOOTH",
"336 664 OFFCURVE",
"247 710 OFFCURVE",
"171 710 CURVE SMOOTH",
"82 710 OFFCURVE",
"24 674 OFFCURVE",
"5 659 CURVE"
);
}
);
width = 356;
},
{
backgroundImage = {
crop = "{{0, 0}, {305.926, 73.749}}";
imagePath = ../pala/pala.png;
locked = "1";
transform = "{82.773, 0, 0, 82.773, -5109, -2837}";
};
layerId = "3EDEE92B-4D9D-4D9A-9438-63C2E33416C1";
paths = (
{
closed = 1;
nodes = (
"213 -12 OFFCURVE",
"234 9 OFFCURVE",
"234 36 CURVE SMOOTH",
"234 63 OFFCURVE",
"213 84 OFFCURVE",
"186 84 CURVE SMOOTH",
"159 84 OFFCURVE",
"138 63 OFFCURVE",
"138 36 CURVE SMOOTH",
"138 9 OFFCURVE",
"159 -12 OFFCURVE",
"186 -12 CURVE"
);
},
{
closed = 1;
nodes = (
"4 556 LINE",
"26 556 LINE",
"34 596 OFFCURVE",
"67 630 OFFCURVE",
"160 630 CURVE SMOOTH",
"202 630 OFFCURVE",
"260 589 OFFCURVE",
"260 542 CURVE SMOOTH",
"260 394 OFFCURVE",
"121 295 OFFCURVE",
"121 192 CURVE SMOOTH",
"121 167 OFFCURVE",
"133 146 OFFCURVE",
"138 128 CURVE",
"212 128 LINE",
"233 149 LINE",
"216 162 OFFCURVE",
"177 179 OFFCURVE",
"177 218 CURVE SMOOTH",
"177 304 OFFCURVE",
"335 478 OFFCURVE",
"335 567 CURVE SMOOTH",
"335 664 OFFCURVE",
"246 710 OFFCURVE",
"170 710 CURVE SMOOTH",
"81 710 OFFCURVE",
"23 674 OFFCURVE",
"4 659 CURVE"
);
}
);
width = 355;
}
);
unicode = 003F;
},
{
color = 0;
glyphname = parenleft;
lastChange = "2020-12-03 13:08:58 +0000";
layers = (
{
backgroundImage = {
crop = "{{0, 0}, {294, 68.104}}";
imagePath = "palatino-source/alphabet.jpg";
locked = "1";
transform = "{72.664, 0, 0, 72.664, -4663, -2355}";
};
layerId = "A2204D38-078E-49A4-B70C-87904FFF8E34";
paths = (
{
closed = 1;
nodes = (
"210 754 LINE",
"148 709 OFFCURVE",
"25 536 OFFCURVE",
"25 305 CURVE SMOOTH",
"25 108 OFFCURVE",
"111 -13 OFFCURVE",
"195 -102 CURVE",
"217 -79 LINE",
"182 -41 OFFCURVE",
"85 108 OFFCURVE",
"85 305 CURVE SMOOTH",
"85 555 OFFCURVE",
"182 685 OFFCURVE",
"230 724 CURVE"
);
}
);
width = 245;
},
{
backgroundImage = {
crop = "{{0, 0}, {294, 68.104}}";
imagePath = "palatino-source/alphabet.jpg";
locked = "1";
transform = "{72.664, 0, 0, 72.664, -4663, -2355}";
};
layerId = "3EDEE92B-4D9D-4D9A-9438-63C2E33416C1";
paths = (
{
closed = 1;
nodes = (
"210 754 LINE",
"148 709 OFFCURVE",
"25 536 OFFCURVE",
"25 305 CURVE SMOOTH",
"25 108 OFFCURVE",
"111 -13 OFFCURVE",
"195 -102 CURVE",
"217 -79 LINE",
"182 -41 OFFCURVE",
"85 108 OFFCURVE",
"85 305 CURVE SMOOTH",
"85 555 OFFCURVE",
"182 685 OFFCURVE",
"230 724 CURVE"
);
}
);
width = 245;
}
);
unicode = 0028;
},
{
color = 0;
glyphname = parenright;
lastChange = "2020-12-03 13:08:58 +0000";
layers = (
{
layerId = "A2204D38-078E-49A4-B70C-87904FFF8E34";
paths = (
{
closed = 1;
nodes = (
"63 685 OFFCURVE",
"160 555 OFFCURVE",
"160 305 CURVE SMOOTH",
"160 108 OFFCURVE",
"63 -41 OFFCURVE",
"28 -79 CURVE",
"50 -102 LINE",
"134 -13 OFFCURVE",
"220 108 OFFCURVE",
"220 305 CURVE SMOOTH",
"220 536 OFFCURVE",
"97 709 OFFCURVE",
"35 754 CURVE",
"15 724 LINE"
);
}
);
width = 245;
},
{
layerId = "3EDEE92B-4D9D-4D9A-9438-63C2E33416C1";
paths = (
{
closed = 1;
nodes = (
"63 685 OFFCURVE",
"160 555 OFFCURVE",
"160 305 CURVE SMOOTH",
"160 108 OFFCURVE",
"63 -41 OFFCURVE",
"28 -79 CURVE",
"50 -102 LINE",
"134 -13 OFFCURVE",
"220 108 OFFCURVE",
"220 305 CURVE SMOOTH",
"220 536 OFFCURVE",
"97 709 OFFCURVE",
"35 754 CURVE",
"15 724 LINE"
);
}
);
width = 245;
}
);
unicode = 0029;
},
{
color = 0;
glyphname = hyphen;
lastChange = "2020-12-03 13:08:58 +0000";
layers = (
{
layerId = "A2204D38-078E-49A4-B70C-87904FFF8E34";
paths = (
{
closed = 1;
nodes = (
"242 325 LINE",
"25 325 LINE",
"25 269 LINE",
"242 269 LINE"
);
}
);
width = 267;
},
{
layerId = "3EDEE92B-4D9D-4D9A-9438-63C2E33416C1";
paths = (
{
closed = 1;
nodes = (
"242 325 LINE",
"25 325 LINE",
"25 269 LINE",
"242 269 LINE"
);
}
);
width = 267;
}
);
unicode = 002D;
},
{
color = 0;
glyphname = endash;
lastChange = "2020-12-03 13:08:58 +0000";
layers = (
{
layerId = "A2204D38-078E-49A4-B70C-87904FFF8E34";
paths = (
{
closed = 1;
nodes = (
"483 325 LINE",
"25 325 LINE",
"25 269 LINE",
"483 269 LINE"
);
}
);
width = 508;
},
{
layerId = "3EDEE92B-4D9D-4D9A-9438-63C2E33416C1";
paths = (
{
closed = 1;
nodes = (
"483 325 LINE",
"25 325 LINE",
"25 269 LINE",
"483 269 LINE"
);
}
);
width = 508;
}
);
unicode = 2013;
},
{
color = 0;
glyphname = underscore;
lastChange = "2020-12-03 13:08:58 +0000";
layers = (
{
layerId = "A2204D38-078E-49A4-B70C-87904FFF8E34";
paths = (
{
closed = 1;
nodes = (
"404 -10 LINE",
"25 -10 LINE",
"25 -66 LINE",
"404 -66 LINE"
);
}
);
width = 429;
},
{
layerId = "3EDEE92B-4D9D-4D9A-9438-63C2E33416C1";
paths = (
{
closed = 1;
nodes = (
"404 -10 LINE",
"25 -10 LINE",
"25 -66 LINE",
"404 -66 LINE"
);
}
);
width = 429;
}
);
unicode = 005F;
},
{
color = 0;
glyphname = quoteright;
lastChange = "2020-12-03 13:08:58 +0000";
layers = (
{
layerId = "A2204D38-078E-49A4-B70C-87904FFF8E34";
paths = (
{
closed = 1;
nodes = (
"84 682 OFFCURVE",
"105 690 OFFCURVE",
"129 706 CURVE",
"153 691 LINE",
"130 613 OFFCURVE",
"95 550 OFFCURVE",
"42 502 CURVE",
"19 500 LINE",
"15 524 LINE",
"41 559 OFFCURVE",
"57 610 OFFCURVE",
"65 677 CURVE"
);
}
);
width = 178;
},
{
layerId = "3EDEE92B-4D9D-4D9A-9438-63C2E33416C1";
paths = (
{
closed = 1;
nodes = (
"84 682 OFFCURVE",
"105 690 OFFCURVE",
"129 706 CURVE",
"153 691 LINE",
"130 613 OFFCURVE",
"95 550 OFFCURVE",
"42 502 CURVE",
"19 500 LINE",
"15 524 LINE",
"41 559 OFFCURVE",
"57 610 OFFCURVE",
"65 677 CURVE"
);
}
);
width = 178;
}
);
unicode = 2019;
},
{
color = 0;
glyphname = quotesingle;
lastChange = "2020-12-03 13:08:58 +0000";
layers = (
{
backgroundImage = {
crop = "{{0, 0}, {294, 68.104}}";
imagePath = "palatino-source/alphabet.jpg";
locked = "1";
transform = "{72.664, 0, 0, 72.664, -4420, -2355}";
};
layerId = "A2204D38-078E-49A4-B70C-87904FFF8E34";
paths = (
{
closed = 1;
nodes = (
"84 682 OFFCURVE",
"105 690 OFFCURVE",
"129 706 CURVE",
"153 691 LINE",
"130 613 OFFCURVE",
"95 550 OFFCURVE",
"42 502 CURVE",
"19 500 LINE",
"15 524 LINE",
"41 559 OFFCURVE",
"57 610 OFFCURVE",
"65 677 CURVE"
);
}
);
width = 183;
},
{
backgroundImage = {
crop = "{{0, 0}, {294, 68.104}}";
imagePath = "palatino-source/alphabet.jpg";
locked = "1";
transform = "{72.664, 0, 0, 72.664, -4420, -2355}";
};
layerId = "3EDEE92B-4D9D-4D9A-9438-63C2E33416C1";
paths = (
{
closed = 1;
nodes = (
"84 682 OFFCURVE",
"105 690 OFFCURVE",
"129 706 CURVE",
"153 691 LINE",
"130 613 OFFCURVE",
"95 550 OFFCURVE",
"42 502 CURVE",
"19 500 LINE",
"15 524 LINE",
"41 559 OFFCURVE",
"57 610 OFFCURVE",
"65 677 CURVE"
);
}
);
width = 183;
}
);
unicode = 0027;
},
{
color = 0;
glyphname = .notdef;
lastChange = "2020-12-03 14:13:40 +0000";
layers = (
{
layerId = "A2204D38-078E-49A4-B70C-87904FFF8E34";
paths = (
{
closed = 1;
nodes = (
"55 0 LINE",
"330 0 LINE",
"330 500 LINE",
"55 500 LINE"
);
},
{
closed = 1;
nodes = (
"86 -1 OFFCURVE",
"55 111 OFFCURVE",
"55 249 CURVE SMOOTH",
"55 387 OFFCURVE",
"86 499 OFFCURVE",
"124 499 CURVE SMOOTH",
"161 499 OFFCURVE",
"330 387 OFFCURVE",
"330 249 CURVE SMOOTH",
"330 111 OFFCURVE",
"161 -1 OFFCURVE",
"124 -1 CURVE SMOOTH"
);
},
{
closed = 1;
nodes = (
"224 -1 OFFCURVE",
"55 111 OFFCURVE",
"55 249 CURVE SMOOTH",
"55 387 OFFCURVE",
"224 499 OFFCURVE",
"262 499 CURVE SMOOTH",
"299 499 OFFCURVE",
"330 387 OFFCURVE",
"330 249 CURVE SMOOTH",
"330 111 OFFCURVE",
"299 -1 OFFCURVE",
"262 -1 CURVE SMOOTH"
);
}
);
width = 385;
},
{
layerId = "3EDEE92B-4D9D-4D9A-9438-63C2E33416C1";
paths = (
{
closed = 1;
nodes = (
"25 0 LINE",
"300 0 LINE",
"300 500 LINE",
"25 500 LINE"
);
},
{
closed = 1;
nodes = (
"56 -1 OFFCURVE",
"25 111 OFFCURVE",
"25 249 CURVE SMOOTH",
"25 387 OFFCURVE",
"56 499 OFFCURVE",
"94 499 CURVE SMOOTH",
"131 499 OFFCURVE",
"300 387 OFFCURVE",
"300 249 CURVE SMOOTH",
"300 111 OFFCURVE",
"131 -1 OFFCURVE",
"94 -1 CURVE SMOOTH"
);
},
{
closed = 1;
nodes = (
"194 -1 OFFCURVE",
"25 111 OFFCURVE",
"25 249 CURVE SMOOTH",
"25 387 OFFCURVE",
"194 499 OFFCURVE",
"232 499 CURVE SMOOTH",
"269 499 OFFCURVE",
"300 387 OFFCURVE",
"300 249 CURVE SMOOTH",
"300 111 OFFCURVE",
"269 -1 OFFCURVE",
"232 -1 CURVE SMOOTH"
);
}
);
width = 325;
}
);
leftMetricsKey = n;
rightMetricsKey = n;
},
{
glyphname = dollar;
lastChange = "2020-12-03 17:12:36 +0000";
layers = (
{
backgroundImage = {
crop = "{{0, 0}, {294, 68.104}}";
imagePath = "palatino-source/alphabet.jpg";
locked = "1";
transform = "{72.664, 0, 0, 72.664, -5681, -2348}";
};
layerId = "A2204D38-078E-49A4-B70C-87904FFF8E34";
paths = (
{
closed = 1;
nodes = (
"532 335 OFFCURVE",
"480 398 OFFCURVE",
"395 398 CURVE SMOOTH",
"369 398 OFFCURVE",
"297 392 OFFCURVE",
"247 392 CURVE SMOOTH",
"190 392 OFFCURVE",
"156 437 OFFCURVE",
"156 516 CURVE SMOOTH",
"156 629 OFFCURVE",
"252 671 OFFCURVE",
"317 671 CURVE SMOOTH",
"381 671 OFFCURVE",
"427 652 OFFCURVE",
"461 623 CURVE",
"469 585 LINE",
"495 585 LINE",
"491 660 LINE",
"469 689 OFFCURVE",
"406 712 OFFCURVE",
"328 710 CURVE SMOOTH",
"158 706 OFFCURVE",
"88 580 OFFCURVE",
"88 468 CURVE SMOOTH",
"88 372 OFFCURVE",
"156 326 OFFCURVE",
"238 326 CURVE SMOOTH",
"290 326 OFFCURVE",
"329 327 OFFCURVE",
"352 327 CURVE SMOOTH",
"441 327 OFFCURVE",
"476 282 OFFCURVE",
"476 206 CURVE SMOOTH",
"476 137 OFFCURVE",
"406 38 OFFCURVE",
"291 38 CURVE SMOOTH",
"226 38 OFFCURVE",
"165 72 OFFCURVE",
"135 104 CURVE",
"124 102 LINE",
"97 45 LINE",
"130 19 OFFCURVE",
"174 -12 OFFCURVE",
"256 -12 CURVE SMOOTH",
"424 -12 OFFCURVE",
"532 125 OFFCURVE",
"532 256 CURVE SMOOTH"
);
},
{
closed = 1;
nodes = (
"288 -75 LINE",
"338 -65 LINE",
"338 762 LINE",
"288 752 LINE"
);
}
);
width = 600;
},
{
layerId = "3EDEE92B-4D9D-4D9A-9438-63C2E33416C1";
width = 600;
}
);
unicode = 0024;
},
{
color = 0;
glyphname = ampersand;
lastChange = "2020-12-03 13:09:17 +0000";
layers = (
{
layerId = "A2204D38-078E-49A4-B70C-87904FFF8E34";
paths = (
{
closed = 1;
nodes = (
"413 424 LINE",
"390 380 LINE",
"442 373 OFFCURVE",
"490 357 OFFCURVE",
"490 272 CURVE SMOOTH",
"490 183 OFFCURVE",
"380 60 OFFCURVE",
"291 60 CURVE SMOOTH",
"174 60 OFFCURVE",
"103 142 OFFCURVE",
"103 216 CURVE SMOOTH",
"103 244 OFFCURVE",
"125 311 OFFCURVE",
"226 401 CURVE SMOOTH",
"337 501 OFFCURVE",
"390 558 OFFCURVE",
"390 625 CURVE SMOOTH",
"390 677 OFFCURVE",
"342 710 OFFCURVE",
"295 710 CURVE SMOOTH",
"226 710 OFFCURVE",
"127 642 OFFCURVE",
"127 502 CURVE SMOOTH",
"127 344 OFFCURVE",
"308 212 OFFCURVE",
"583 27 CURVE",
"724 111 LINE",
"696 124 LINE",
"599 94 LINE",
"494 128 OFFCURVE",
"350 248 OFFCURVE",
"289 325 CURVE SMOOTH",
"221 408 OFFCURVE",
"190 493 OFFCURVE",
"190 563 CURVE SMOOTH",
"190 623 OFFCURVE",
"223 657 OFFCURVE",
"266 657 CURVE SMOOTH",
"294 657 OFFCURVE",
"329 626 OFFCURVE",
"329 589 CURVE SMOOTH",
"329 486 OFFCURVE",
"40 317 OFFCURVE",
"40 188 CURVE SMOOTH",
"40 72 OFFCURVE",
"113 -10 OFFCURVE",
"226 -10 CURVE SMOOTH",
"384 -10 OFFCURVE",
"536 195 OFFCURVE",
"536 316 CURVE SMOOTH",
"536 345 OFFCURVE",
"530 352 OFFCURVE",
"530 368 CURVE SMOOTH",
"530 380 OFFCURVE",
"538 381 OFFCURVE",
"570 383 CURVE SMOOTH",
"652 386 LINE",
"674 424 LINE"
);
}
);
width = 764;
},
{
layerId = "3EDEE92B-4D9D-4D9A-9438-63C2E33416C1";
paths = (
{
closed = 1;
nodes = (
"413 424 LINE",
"390 380 LINE",
"442 373 OFFCURVE",
"490 357 OFFCURVE",
"490 272 CURVE SMOOTH",
"490 183 OFFCURVE",
"380 60 OFFCURVE",
"291 60 CURVE SMOOTH",
"174 60 OFFCURVE",
"103 142 OFFCURVE",
"103 216 CURVE SMOOTH",
"103 244 OFFCURVE",
"125 311 OFFCURVE",
"226 401 CURVE SMOOTH",
"337 501 OFFCURVE",
"390 558 OFFCURVE",
"390 625 CURVE SMOOTH",
"390 677 OFFCURVE",
"342 710 OFFCURVE",
"295 710 CURVE SMOOTH",
"226 710 OFFCURVE",
"127 642 OFFCURVE",
"127 502 CURVE SMOOTH",
"127 344 OFFCURVE",
"308 212 OFFCURVE",
"583 27 CURVE",
"724 111 LINE",
"696 124 LINE",
"599 94 LINE",
"494 128 OFFCURVE",
"350 248 OFFCURVE",
"289 325 CURVE SMOOTH",
"221 408 OFFCURVE",
"190 493 OFFCURVE",
"190 563 CURVE SMOOTH",
"190 623 OFFCURVE",
"223 657 OFFCURVE",
"266 657 CURVE SMOOTH",
"294 657 OFFCURVE",
"329 626 OFFCURVE",
"329 589 CURVE SMOOTH",
"329 486 OFFCURVE",
"40 317 OFFCURVE",
"40 188 CURVE SMOOTH",
"40 72 OFFCURVE",
"113 -10 OFFCURVE",
"226 -10 CURVE SMOOTH",
"384 -10 OFFCURVE",
"536 195 OFFCURVE",
"536 316 CURVE SMOOTH",
"536 345 OFFCURVE",
"530 352 OFFCURVE",
"530 368 CURVE SMOOTH",
"530 380 OFFCURVE",
"538 381 OFFCURVE",
"570 383 CURVE SMOOTH",
"652 386 LINE",
"674 424 LINE"
);
}
);
width = 764;
}
);
unicode = 0026;
},
{
color = 0;
glyphname = gravecomb;
lastChange = "2020-12-03 13:09:20 +0000";
layers = (
{
layerId = "A2204D38-078E-49A4-B70C-87904FFF8E34";
paths = (
{
closed = 1;
nodes = (
"338 589 LINE",
"178 676 LINE",
"153 637 LINE",
"314 550 LINE"
);
}
);
width = 600;
},
{
layerId = "3EDEE92B-4D9D-4D9A-9438-63C2E33416C1";
paths = (
{
closed = 1;
nodes = (
"338 589 LINE",
"178 676 LINE",
"153 637 LINE",
"314 550 LINE"
);
}
);
width = 600;
}
);
unicode = 0300;
},
{
glyphname = acutecomb;
lastChange = "2020-12-03 14:14:33 +0000";
layers = (
{
layerId = "A2204D38-078E-49A4-B70C-87904FFF8E34";
paths = (
{
closed = 1;
nodes = (
"338 637 LINE",
"313 676 LINE",
"153 589 LINE",
"177 550 LINE"
);
}
);
width = 600;
},
{
layerId = "3EDEE92B-4D9D-4D9A-9438-63C2E33416C1";
paths = (
{
closed = 1;
nodes = (
"338 637 LINE",
"313 676 LINE",
"153 589 LINE",
"177 550 LINE"
);
}
);
width = 600;
}
);
unicode = 0301;
},
{
glyphname = circumflexcomb;
lastChange = "2020-12-03 14:14:46 +0000";
layers = (
{
layerId = "A2204D38-078E-49A4-B70C-87904FFF8E34";
paths = (
{
closed = 1;
nodes = (
"105 569 LINE",
"120 550 LINE",
"280 637 LINE",
"256 676 LINE"
);
},
{
closed = 1;
nodes = (
"232 637 LINE",
"392 550 LINE",
"407 569 LINE",
"256 676 LINE"
);
}
);
width = 600;
},
{
layerId = "3EDEE92B-4D9D-4D9A-9438-63C2E33416C1";
paths = (
{
closed = 1;
nodes = (
"105 569 LINE",
"120 550 LINE",
"280 637 LINE",
"256 676 LINE"
);
},
{
closed = 1;
nodes = (
"232 637 LINE",
"392 550 LINE",
"407 569 LINE",
"256 676 LINE"
);
}
);
width = 600;
}
);
unicode = 0302;
},
{
color = 0;
glyphname = acute;
lastChange = "2020-12-03 13:18:06 +0000";
layers = (
{
components = (
{
name = acutecomb;
}
);
layerId = "A2204D38-078E-49A4-B70C-87904FFF8E34";
paths = (
{
closed = 1;
nodes = (
"338 637 LINE",
"313 676 LINE",
"153 589 LINE",
"177 550 LINE"
);
}
);
width = 600;
},
{
components = (
{
name = acutecomb;
}
);
layerId = "3EDEE92B-4D9D-4D9A-9438-63C2E33416C1";
width = 600;
}
);
unicode = 00B4;
},
